<svg width="1497" height="675" viewBox="0 0 1497 675" fill="none" xmlns="http://www.w3.org/2000/svg">
<g opacity="0.5">
<path d="M381.025 186.5C381.025 192.391 385.801 197.167 391.692 197.167C397.583 197.167 402.358 192.391 402.358 186.5C402.358 180.609 397.583 175.833 391.692 175.833C385.801 175.833 381.025 180.609 381.025 186.5ZM29.9837 196.196L31.9195 196.698L29.9837 196.196ZM674.692 604.5C674.692 603.395 673.796 602.5 672.692 602.5C671.587 602.5 670.692 603.395 670.692 604.5H674.692ZM215.692 644.907L214.183 643.593L215.692 644.907ZM29.9837 473.49L28.2884 472.429L29.9837 473.49ZM197.692 51.8632H199.692H197.692ZM393.432 181.091C393.323 179.991 392.343 179.189 391.244 179.298C390.145 179.407 389.342 180.387 389.452 181.486L393.432 181.091ZM387.365 172.072C387.744 173.109 388.893 173.642 389.93 173.262C390.968 172.883 391.501 171.734 391.121 170.697L387.365 172.072ZM385.906 161.227C385.23 160.354 383.973 160.194 383.1 160.871C382.227 161.547 382.067 162.803 382.744 163.677L385.906 161.227ZM375.811 157.01C376.702 157.662 377.954 157.469 378.606 156.578C379.259 155.686 379.065 154.435 378.174 153.782L375.811 157.01ZM368.958 148.445C367.954 147.983 366.767 148.423 366.305 149.426C365.844 150.43 366.283 151.618 367.287 152.079L368.958 148.445ZM357.997 148.569C359.051 148.897 360.172 148.308 360.5 147.253C360.828 146.198 360.238 145.077 359.184 144.749L357.997 148.569ZM349.112 142.107C348.033 141.868 346.965 142.549 346.727 143.627C346.488 144.706 347.168 145.774 348.247 146.013L349.112 142.107ZM338.265 144.098C339.355 144.28 340.385 143.544 340.567 142.454C340.749 141.365 340.013 140.334 338.923 140.153L338.265 144.098ZM328.756 138.636C327.661 138.489 326.655 139.257 326.507 140.352C326.36 141.446 327.128 142.453 328.223 142.6L328.756 138.636ZM318.099 141.332C319.196 141.462 320.19 140.678 320.32 139.581C320.45 138.484 319.666 137.49 318.569 137.36L318.099 141.332ZM308.387 136.184C307.29 136.058 306.298 136.846 306.172 137.943C306.047 139.041 306.834 140.032 307.931 140.158L308.387 136.184ZM297.743 138.96C298.839 139.094 299.837 138.314 299.971 137.218C300.105 136.121 299.325 135.124 298.229 134.99L297.743 138.96ZM288.109 133.666C287.016 133.512 286.004 134.274 285.85 135.367C285.695 136.461 286.457 137.473 287.551 137.627L288.109 133.666ZM277.376 136.048C278.464 136.235 279.498 135.504 279.685 134.415C279.871 133.326 279.14 132.292 278.051 132.106L277.376 136.048ZM268.086 130.192C267.007 129.959 265.943 130.646 265.71 131.726C265.478 132.806 266.165 133.87 267.245 134.102L268.086 130.192ZM257.179 131.646C258.244 131.94 259.345 131.315 259.639 130.25C259.933 129.186 259.308 128.084 258.243 127.79L257.179 131.646ZM248.617 124.757C247.578 124.383 246.433 124.924 246.059 125.963C245.686 127.003 246.226 128.148 247.266 128.521L248.617 124.757ZM237.626 124.546C238.625 125.018 239.817 124.591 240.289 123.592C240.761 122.594 240.334 121.401 239.335 120.93L237.626 124.546ZM230.576 116.146C229.642 115.557 228.407 115.836 227.817 116.771C227.228 117.705 227.508 118.94 228.442 119.529L230.576 116.146ZM219.97 113.307C220.809 114.025 222.072 113.927 222.79 113.088C223.508 112.249 223.41 110.986 222.571 110.268L219.97 113.307ZM215.598 103.26C214.886 102.415 213.624 102.308 212.78 103.02C211.936 103.732 211.829 104.994 212.541 105.838L215.598 103.26ZM206.443 97.2483C207.006 98.1988 208.233 98.513 209.183 97.9503C210.134 97.3875 210.448 96.1608 209.885 95.2103L206.443 97.2483ZM205.528 86.3174C205.119 85.2913 203.956 84.7912 202.93 85.2003C201.904 85.6093 201.404 86.7727 201.813 87.7987L205.528 86.3174ZM198.612 77.8097C198.88 78.8814 199.965 79.5336 201.037 79.2663C202.109 78.999 202.761 77.9135 202.494 76.8417L198.612 77.8097ZM200.643 67.0286C200.497 65.9336 199.492 65.164 198.397 65.3096C197.302 65.4552 196.532 66.4608 196.678 67.5557L200.643 67.0286ZM195.798 57.209C195.843 58.3126 196.774 59.1711 197.877 59.1263C198.981 59.0816 199.84 58.1507 199.795 57.047L195.798 57.209ZM199.248 46.5681C199.051 45.4813 198.01 44.7601 196.923 44.9572C195.836 45.1544 195.115 46.1953 195.312 47.2821L199.248 46.5681ZM191.466 39.7881C192.298 40.515 193.562 40.4301 194.289 39.5985C195.015 38.7668 194.931 37.5033 194.099 36.7764L191.466 39.7881ZM183.832 32.8897C182.731 32.8112 181.774 33.6408 181.695 34.7425C181.617 35.8443 182.446 36.8011 183.548 36.8796L183.832 32.8897ZM174.306 37.7487C175.384 37.509 176.064 36.4406 175.824 35.3624C175.585 34.2841 174.516 33.6043 173.438 33.844L174.306 37.7487ZM163.641 36.8764C162.611 37.2743 162.098 38.4322 162.496 39.4626C162.894 40.493 164.052 41.0057 165.082 40.6078L163.641 36.8764ZM156.264 44.5282C157.253 44.0356 157.655 42.8348 157.162 41.8462C156.67 40.8576 155.469 40.4554 154.48 40.948L156.264 44.5282ZM145.638 45.7565C144.685 46.3157 144.367 47.5412 144.926 48.4938C145.485 49.4463 146.71 49.7652 147.663 49.206L145.638 45.7565ZM139.328 54.4183C140.249 53.8083 140.501 52.5673 139.891 51.6465C139.281 50.7256 138.04 50.4736 137.119 51.0836L139.328 54.4183ZM128.936 56.7819C128.044 57.433 127.848 58.6841 128.499 59.5764C129.15 60.4687 130.401 60.6642 131.294 60.0131L128.936 56.7819ZM123.482 65.9603C124.348 65.2741 124.493 64.0161 123.807 63.1505C123.121 62.285 121.863 62.1396 120.997 62.8258L123.482 65.9603ZM113.294 69.1672C112.454 69.8844 112.355 71.1468 113.072 71.9869C113.789 72.8269 115.052 72.9264 115.892 72.2092L113.294 69.1672ZM108.52 78.726C109.335 77.9806 109.392 76.7155 108.646 75.9004C107.901 75.0853 106.636 75.0289 105.82 75.7744L108.52 78.726ZM98.5722 82.626C97.782 83.3977 97.767 84.664 98.5387 85.4542C99.3104 86.2445 100.577 86.2595 101.367 85.4878L98.5722 82.626ZM94.4341 92.4782C95.1993 91.6816 95.1739 90.4156 94.3774 89.6503C93.5808 88.8851 92.3147 88.9105 91.5495 89.7071L94.4341 92.4782ZM84.7555 97.0075C84.0159 97.8279 84.0814 99.0925 84.9018 99.8321C85.7222 100.572 86.9869 100.506 87.7265 99.6858L84.7555 97.0075ZM81.2516 107.102C81.9646 106.259 81.8588 104.997 81.0152 104.284C80.1716 103.571 78.9097 103.676 78.1967 104.52L81.2516 107.102ZM71.8828 112.24C71.1975 113.106 71.3443 114.364 72.2106 115.05C73.077 115.735 74.3348 115.588 75.02 114.722L71.8828 112.24ZM69.0451 122.54C69.7009 121.651 69.512 120.399 68.6233 119.743C67.7345 119.087 66.4823 119.276 65.8265 120.165L69.0451 122.54ZM60.044 128.292C59.4195 129.203 59.6519 130.448 60.563 131.072C61.4741 131.697 62.7189 131.464 63.3434 130.553L60.044 128.292ZM57.9334 138.762C58.5241 137.829 58.2464 136.593 57.313 136.003C56.3797 135.412 55.1442 135.69 54.5535 136.623L57.9334 138.762ZM49.3773 145.16C48.8232 146.115 49.1486 147.339 50.1042 147.893C51.0597 148.447 52.2835 148.122 52.8376 147.166L49.3773 145.16ZM48.0839 155.764C48.5981 154.786 48.2224 153.577 47.2448 153.063C46.2672 152.549 45.0579 152.924 44.5437 153.902L48.0839 155.764ZM40.0858 162.848C39.6154 163.848 40.0443 165.039 41.0438 165.51C42.0432 165.98 43.2347 165.551 43.705 164.552L40.0858 162.848ZM39.7382 173.525C40.1602 172.504 39.6748 171.334 38.654 170.912C37.6332 170.49 36.4636 170.976 36.0416 171.997L39.7382 173.525ZM32.4552 181.341C32.0867 182.382 32.632 183.525 33.6733 183.894C34.7146 184.262 35.8574 183.717 36.226 182.676L32.4552 181.341ZM33.2164 191.994C33.5257 190.933 32.9169 189.823 31.8565 189.514C30.7961 189.204 29.6858 189.813 29.3764 190.873L33.2164 191.994ZM26.8388 200.715C26.5992 201.793 27.2792 202.862 28.3574 203.101C29.4357 203.341 30.504 202.661 30.7436 201.583L26.8388 200.715ZM28.9142 211.414C29.079 210.322 28.3271 209.303 27.2349 209.138C26.1427 208.973 25.1237 209.725 24.9589 210.817L28.9142 211.414ZM23.7647 221.017C23.672 222.118 24.4892 223.085 25.5898 223.178C26.6905 223.271 27.6579 222.454 27.7506 221.353L23.7647 221.017ZM27.2197 231.357C27.245 230.252 26.3703 229.337 25.2661 229.311C24.1618 229.286 23.2461 230.161 23.2208 231.265L27.2197 231.357ZM23.2753 241.52C23.3113 242.624 24.2353 243.49 25.3393 243.454C26.4433 243.418 27.3091 242.494 27.2732 241.39L23.2753 241.52ZM27.8515 251.42C27.7615 250.319 26.7962 249.5 25.6953 249.59C24.5944 249.679 23.7748 250.645 23.8648 251.746L27.8515 251.42ZM24.9184 261.92C25.0547 263.016 26.0537 263.794 27.1499 263.658C28.246 263.522 29.0241 262.523 28.8878 261.427L24.9184 261.92ZM30.3125 271.4C30.1377 270.309 29.1119 269.567 28.0212 269.742C26.9306 269.916 26.1881 270.942 26.3629 272.033L30.3125 271.4ZM28.1254 282.082C28.3309 283.167 29.3773 283.88 30.4626 283.675C31.5479 283.469 32.261 282.423 32.0555 281.337L28.1254 282.082ZM34.0476 291.243C33.8188 290.162 32.7573 289.471 31.6767 289.7C30.5961 289.929 29.9055 290.99 30.1343 292.071L34.0476 291.243ZM32.3203 302.009C32.5649 303.086 33.6364 303.761 34.7136 303.517C35.7907 303.272 36.4656 302.2 36.221 301.123L32.3203 302.009ZM38.5097 310.991C38.2564 309.916 37.1795 309.25 36.1043 309.503C35.0292 309.757 34.3629 310.834 34.6162 311.909L38.5097 310.991ZM36.9562 321.785C37.2111 322.86 38.2889 323.525 39.3637 323.27C40.4385 323.015 41.1032 321.937 40.8483 320.862L36.9562 321.785ZM43.1713 330.751C42.9221 329.675 41.8478 329.004 40.7717 329.253C39.6956 329.503 39.0253 330.577 39.2744 331.653L43.1713 330.751ZM41.5041 341.527C41.7403 342.606 42.8064 343.289 43.8855 343.053C44.9645 342.817 45.6478 341.751 45.4116 340.672L41.5041 341.527ZM47.4997 350.639C47.2842 349.555 46.2313 348.852 45.1479 349.067C44.0646 349.283 43.3611 350.336 43.5766 351.419L47.4997 350.639ZM45.4205 361.34C45.6073 362.429 46.6412 363.16 47.7299 362.973C48.8185 362.786 49.5496 361.752 49.3629 360.664L45.4205 361.34ZM50.9248 370.756C50.7752 369.662 49.7667 368.896 48.6723 369.046C47.5779 369.195 46.812 370.204 46.9617 371.298L50.9248 370.756ZM48.1222 381.294C48.2258 382.394 49.2013 383.201 50.301 383.098C51.4007 382.994 52.2081 382.019 52.1045 380.919L48.1222 381.294ZM52.8177 391.138C52.7691 390.034 51.835 389.179 50.7315 389.228C49.628 389.277 48.7729 390.211 48.8216 391.314L52.8177 391.138ZM48.9815 401.34C48.9666 402.445 49.8498 403.352 50.9543 403.367C52.0588 403.382 52.9662 402.499 52.9811 401.394L48.9815 401.34ZM52.5159 411.656C52.6022 410.555 51.7795 409.592 50.6783 409.506C49.5771 409.42 48.6144 410.243 48.5281 411.344L52.5159 411.656ZM47.3983 421.286C47.2344 422.378 47.987 423.396 49.0793 423.56C50.1717 423.724 51.1901 422.972 51.354 421.879L47.3983 421.286ZM49.4498 431.988C49.6951 430.911 49.0209 429.839 47.944 429.594C46.867 429.348 45.795 430.023 45.5497 431.1L49.4498 431.988ZM42.9607 440.736C42.633 441.791 43.2226 442.912 44.2774 443.24C45.3323 443.567 46.453 442.978 46.7807 441.923L42.9607 440.736ZM43.3513 451.622C43.7593 450.596 43.2579 449.433 42.2315 449.025C41.2051 448.617 40.0422 449.118 39.6342 450.145L43.3513 451.622ZM35.5976 459.277C35.1137 460.27 35.5263 461.468 36.5192 461.952C37.5121 462.435 38.7093 462.023 39.1933 461.03L35.5976 459.277ZM34.3595 470.102C34.913 469.146 34.5869 467.922 33.6311 467.369C32.6752 466.815 31.4516 467.141 30.8981 468.097L34.3595 470.102ZM25.6403 476.753C25.0728 477.7 25.3809 478.929 26.3286 479.496C27.2762 480.064 28.5045 479.756 29.072 478.808L25.6403 476.753ZM24.2791 487.189C24.8073 486.219 24.4492 485.005 23.4791 484.476C22.509 483.948 21.2944 484.306 20.7662 485.276L24.2791 487.189ZM16.2274 494.075C15.7439 495.068 16.1571 496.266 17.1502 496.749C18.1433 497.232 19.3404 496.819 19.8239 495.826L16.2274 494.075ZM15.8572 504.506C16.2908 503.49 15.8188 502.315 14.8029 501.881C13.787 501.448 12.6119 501.92 12.1783 502.936L15.8572 504.506ZM8.51073 512.233C8.13504 513.272 8.67254 514.418 9.71125 514.794C10.75 515.17 11.8966 514.632 12.2723 513.594L8.51073 512.233ZM9.28406 522.707C9.5952 521.648 8.98826 520.536 7.92842 520.225C6.86858 519.914 5.75717 520.521 5.44603 521.581L9.28406 522.707ZM2.98654 531.131C2.74825 532.21 3.42943 533.277 4.50799 533.515C5.58656 533.754 6.65407 533.073 6.89235 531.994L2.98654 531.131ZM5.15957 541.51C5.31546 540.416 4.55536 539.403 3.46185 539.247C2.36834 539.091 1.35549 539.851 1.1996 540.945L5.15957 541.51ZM0.199896 550.808C0.134444 551.91 0.975242 552.857 2.07787 552.923C3.1805 552.988 4.12742 552.147 4.19287 551.045L0.199896 550.808ZM4.04535 560.586C4.01283 559.482 3.09143 558.613 1.98734 558.646C0.883252 558.678 0.0145668 559.6 0.0470798 560.704L4.04535 560.586ZM0.805963 570.616C0.942824 571.712 1.9423 572.489 3.03836 572.353C4.13442 572.216 4.912 571.216 4.77514 570.12L0.805963 570.616ZM6.4316 579.564C6.18664 578.487 5.11493 577.812 4.03786 578.057C2.9608 578.302 2.28624 579.374 2.5312 580.451L6.4316 579.564ZM5.23068 590.046C5.58344 591.092 6.71796 591.655 7.76468 591.302C8.8114 590.949 9.37396 589.815 9.0212 588.768L5.23068 590.046ZM12.5281 597.655C12.0712 596.65 10.8856 596.205 9.87994 596.662C8.87428 597.119 8.4294 598.304 8.88627 599.31L12.5281 597.655ZM13.4504 608.157C14.0047 609.112 15.2285 609.438 16.184 608.883C17.1394 608.329 17.4646 607.105 16.9104 606.15L13.4504 608.157ZM22.1043 614.187C21.4616 613.288 20.2123 613.081 19.314 613.724C18.4157 614.367 18.2085 615.616 18.8513 616.514L22.1043 614.187ZM25.0018 624.33C25.7231 625.166 26.9859 625.26 27.8225 624.539C28.6591 623.817 28.7525 622.554 28.0312 621.718L25.0018 624.33ZM34.606 628.712C33.8163 627.94 32.55 627.954 31.7777 628.743C31.0054 629.533 31.0195 630.799 31.8092 631.572L34.606 628.712ZM39.1776 638.221C40.026 638.928 41.2872 638.814 41.9944 637.965C42.7017 637.117 42.5872 635.855 41.7387 635.148L39.1776 638.221ZM49.3498 641.023C48.4513 640.381 47.2021 640.589 46.5596 641.487C45.9172 642.385 46.1247 643.635 47.0232 644.277L49.3498 641.023ZM55.277 649.752C56.2179 650.33 57.4497 650.036 58.0283 649.096C58.6068 648.155 58.313 646.923 57.3721 646.344L55.277 649.752ZM65.7441 651.118C64.7673 650.602 63.5574 650.976 63.0416 651.953C62.5259 652.93 62.8996 654.14 63.8763 654.655L65.7441 651.118ZM72.7668 658.999C73.7737 659.453 74.9581 659.005 75.4122 657.998C75.8662 656.991 75.4181 655.807 74.4111 655.353L72.7668 658.999ZM83.3248 659.055C82.2926 658.662 81.137 659.18 80.7438 660.212C80.3505 661.244 80.8685 662.399 81.9007 662.793L83.3248 659.055ZM91.2359 666.042C92.2891 666.375 93.4127 665.791 93.7457 664.738C94.0786 663.685 93.4947 662.561 92.4415 662.228L91.2359 666.042ZM101.724 664.875C100.654 664.602 99.5651 665.249 99.2925 666.319C99.0198 667.39 99.6666 668.478 100.737 668.751L101.724 664.875ZM110.382 670.919C111.466 671.131 112.516 670.424 112.728 669.339C112.94 668.255 112.233 667.205 111.148 666.993L110.382 670.919ZM120.679 668.573C119.584 668.424 118.576 669.19 118.426 670.285C118.277 671.379 119.043 672.387 120.138 672.537L120.679 668.573ZM129.973 673.588C131.075 673.673 132.036 672.849 132.121 671.747C132.206 670.646 131.382 669.684 130.281 669.6L129.973 673.588ZM139.92 670.049C138.816 670.031 137.906 670.913 137.889 672.017C137.872 673.122 138.753 674.031 139.857 674.048L139.92 670.049ZM149.756 673.885C150.859 673.831 151.709 672.892 151.655 671.789C151.6 670.686 150.662 669.836 149.559 669.89L149.756 673.885ZM159.151 669.083C158.055 669.215 157.272 670.211 157.404 671.307C157.536 672.404 158.532 673.186 159.628 673.054L159.151 669.083ZM169.426 671.497C170.509 671.281 171.212 670.228 170.996 669.145C170.78 668.061 169.726 667.359 168.643 667.575L169.426 671.497ZM177.962 665.3C176.901 665.609 176.292 666.72 176.601 667.78C176.91 668.841 178.021 669.45 179.081 669.141L177.962 665.3ZM188.501 665.896C189.526 665.484 190.023 664.319 189.611 663.294C189.199 662.269 188.034 661.772 187.009 662.184L188.501 665.896ZM195.651 658.144C194.679 658.669 194.317 659.882 194.842 660.854C195.367 661.826 196.58 662.188 197.552 661.663L195.651 658.144ZM206.048 656.346C206.943 655.699 207.145 654.448 206.497 653.553C205.85 652.658 204.6 652.457 203.705 653.104L206.048 656.346ZM210.947 647.021C210.157 647.794 210.143 649.06 210.916 649.849C211.688 650.639 212.954 650.653 213.744 649.881L210.947 647.021ZM220.54 642.46C221.282 641.642 221.22 640.377 220.402 639.635C219.583 638.893 218.318 638.955 217.576 639.774L220.54 642.46ZM224.47 632.476C223.695 633.263 223.705 634.529 224.492 635.304C225.279 636.079 226.546 636.069 227.321 635.282L224.47 632.476ZM234.304 628.48C235.111 627.726 235.155 626.46 234.401 625.653C233.647 624.845 232.381 624.802 231.574 625.556L234.304 628.48ZM239.101 618.833C238.261 619.55 238.162 620.812 238.879 621.653C239.596 622.493 240.859 622.592 241.699 621.875L239.101 618.833ZM249.23 615.729C250.101 615.05 250.257 613.794 249.578 612.922C248.899 612.051 247.642 611.895 246.771 612.574L249.23 615.729ZM254.888 606.547C253.986 607.184 253.772 608.432 254.409 609.334C255.047 610.237 256.295 610.451 257.197 609.813L254.888 606.547ZM265.29 604.372C266.221 603.777 266.493 602.54 265.898 601.609C265.303 600.679 264.067 600.406 263.136 601.001L265.29 604.372ZM271.755 595.779C270.797 596.329 270.465 597.551 271.015 598.509C271.565 599.467 272.787 599.799 273.745 599.249L271.755 595.779ZM282.338 594.587C283.321 594.083 283.71 592.878 283.206 591.895C282.703 590.912 281.498 590.523 280.515 591.027L282.338 594.587ZM289.57 586.656C288.564 587.113 288.118 588.298 288.575 589.304C289.031 590.31 290.216 590.755 291.222 590.299L289.57 586.656ZM300.234 586.463C301.26 586.054 301.76 584.891 301.351 583.865C300.942 582.838 299.779 582.338 298.753 582.747L300.234 586.463ZM308.162 579.247C307.119 579.608 306.565 580.747 306.926 581.791C307.288 582.835 308.427 583.388 309.47 583.027L308.162 579.247ZM318.81 580.029C319.869 579.715 320.473 578.602 320.159 577.543C319.845 576.484 318.731 575.88 317.673 576.194L318.81 580.029ZM327.345 573.554C326.273 573.821 325.622 574.907 325.889 575.979C326.157 577.05 327.243 577.702 328.315 577.434L327.345 573.554ZM337.894 575.254C338.976 575.031 339.673 573.974 339.45 572.892C339.227 571.81 338.17 571.113 337.088 571.336L337.894 575.254ZM346.934 569.516C345.844 569.695 345.106 570.724 345.285 571.814C345.464 572.904 346.493 573.642 347.583 573.463L346.934 569.516ZM357.323 572.057C358.419 571.92 359.196 570.92 359.059 569.824C358.922 568.728 357.922 567.951 356.826 568.088L357.323 572.057ZM366.77 567.03C365.67 567.127 364.856 568.097 364.953 569.198C365.05 570.298 366.021 571.111 367.121 571.014L366.77 567.03ZM376.95 570.321C378.053 570.262 378.899 569.32 378.84 568.217C378.782 567.114 377.84 566.268 376.737 566.327L376.95 570.321ZM386.721 565.96C385.617 565.982 384.74 566.896 384.762 568C384.785 569.105 385.699 569.982 386.803 569.959L386.721 565.96ZM396.665 569.91C397.77 569.922 398.674 569.036 398.686 567.931C398.697 566.827 397.811 565.922 396.707 565.911L396.665 569.91ZM406.688 566.16C405.584 566.117 404.654 566.976 404.61 568.08C404.567 569.184 405.426 570.114 406.53 570.157L406.688 566.16ZM416.386 570.682C417.489 570.755 418.442 569.921 418.515 568.819C418.589 567.717 417.755 566.764 416.653 566.69L416.386 570.682ZM426.599 567.484C425.499 567.382 424.525 568.191 424.424 569.291C424.322 570.391 425.131 571.365 426.231 571.467L426.599 567.484ZM436.055 572.495C437.152 572.623 438.146 571.837 438.274 570.74C438.402 569.643 437.616 568.65 436.519 568.522L436.055 572.495ZM446.409 569.789C445.315 569.637 444.305 570.4 444.152 571.494C444 572.588 444.763 573.598 445.857 573.751L446.409 569.789ZM455.635 575.218C456.725 575.394 457.751 574.651 457.927 573.561C458.102 572.47 457.36 571.444 456.269 571.269L455.635 575.218ZM466.089 572.945C465.002 572.749 463.961 573.471 463.765 574.558C463.569 575.645 464.291 576.685 465.378 576.881L466.089 572.945ZM475.104 578.728C476.187 578.943 477.24 578.24 477.456 577.157C477.671 576.073 476.968 575.02 475.885 574.805L475.104 578.728ZM485.623 576.828C484.543 576.594 483.479 577.28 483.245 578.36C483.012 579.439 483.698 580.504 484.778 580.737L485.623 576.828ZM494.454 582.908C495.53 583.157 496.605 582.488 496.854 581.412C497.104 580.336 496.435 579.261 495.359 579.011L494.454 582.908ZM505.007 581.322C503.935 581.058 502.851 581.713 502.586 582.785C502.322 583.858 502.977 584.941 504.049 585.206L505.007 581.322ZM513.687 587.648C514.756 587.926 515.848 587.285 516.126 586.216C516.404 585.147 515.762 584.055 514.693 583.777L513.687 587.648ZM524.262 586.322C523.196 586.032 522.097 586.662 521.807 587.728C521.518 588.794 522.147 589.892 523.213 590.182L524.262 586.322ZM532.81 592.841C533.873 593.141 534.978 592.522 535.278 591.459C535.577 590.396 534.959 589.291 533.896 588.991L532.81 592.841ZM543.435 591.725C542.375 591.417 541.265 592.027 540.956 593.087C540.648 594.148 541.257 595.258 542.318 595.566L543.435 591.725ZM551.832 598.369C552.891 598.684 554.005 598.081 554.32 597.023C554.635 595.964 554.033 594.85 552.974 594.535L551.832 598.369ZM562.518 597.404C561.46 597.083 560.344 597.681 560.024 598.738C559.703 599.795 560.301 600.911 561.358 601.232L562.518 597.404ZM570.761 604.095C571.817 604.418 572.935 603.823 573.258 602.767C573.581 601.71 572.986 600.592 571.93 600.269L570.761 604.095ZM581.515 603.201C580.458 602.878 579.34 603.473 579.017 604.529C578.694 605.586 579.289 606.704 580.345 607.027L581.515 603.201ZM589.851 609.919C590.908 610.238 592.024 609.64 592.344 608.583C592.663 607.525 592.065 606.409 591.008 606.09L589.851 609.919ZM600.405 608.897C599.346 608.585 598.234 609.191 597.922 610.251C597.609 611.31 598.215 612.422 599.275 612.734L600.405 608.897ZM608.929 615.517C609.993 615.815 611.097 615.195 611.395 614.132C611.694 613.068 611.074 611.964 610.01 611.666L608.929 615.517ZM619.594 614.257C618.524 613.981 617.433 614.624 617.157 615.693C616.88 616.762 617.523 617.853 618.593 618.13L619.594 614.257ZM628.307 620.482C629.385 620.722 630.454 620.043 630.695 618.965C630.935 617.887 630.256 616.818 629.178 616.578L628.307 620.482ZM638.805 618.472C637.715 618.292 636.685 619.029 636.505 620.119C636.324 621.208 637.061 622.238 638.151 622.419L638.805 618.472ZM648.216 623.626C649.318 623.697 650.269 622.861 650.34 621.758C650.411 620.656 649.575 619.705 648.472 619.634L648.216 623.626ZM657.914 619.392C656.821 619.553 656.066 620.569 656.226 621.661C656.387 622.754 657.403 623.51 658.496 623.35L657.914 619.392ZM668.557 619.43C669.425 618.747 669.577 617.49 668.894 616.621C668.212 615.753 666.955 615.601 666.086 616.284L668.557 619.43ZM670.249 609.166C670.021 610.246 670.713 611.307 671.793 611.535C672.874 611.763 673.935 611.071 674.163 609.99L670.249 609.166ZM393.692 186.5C393.692 184.627 393.604 182.825 393.432 181.091L389.452 181.486C389.61 183.081 389.692 184.751 389.692 186.5H393.692ZM391.121 170.697C389.829 167.165 388.072 164.024 385.906 161.227L382.744 163.677C384.658 166.148 386.214 168.927 387.365 172.072L391.121 170.697ZM378.174 153.782C375.385 151.74 372.293 149.978 368.958 148.445L367.287 152.079C370.421 153.52 373.273 155.151 375.811 157.01L378.174 153.782ZM359.184 144.749C355.97 143.751 352.602 142.88 349.112 142.107L348.247 146.013C351.65 146.766 354.908 147.609 357.997 148.569L359.184 144.749ZM338.923 140.153C335.608 139.6 332.211 139.101 328.756 138.636L328.223 142.6C331.648 143.061 335.001 143.554 338.265 144.098L338.923 140.153ZM318.569 137.36C315.207 136.963 311.804 136.576 308.387 136.184L307.931 140.158C311.355 140.551 314.747 140.936 318.099 141.332L318.569 137.36ZM298.229 134.99C294.852 134.576 291.474 134.141 288.109 133.666L287.551 137.627C290.946 138.106 294.349 138.545 297.743 138.96L298.229 134.99ZM278.051 132.106C274.691 131.53 271.364 130.897 268.086 130.192L267.245 134.102C270.586 134.822 273.969 135.464 277.376 136.048L278.051 132.106ZM258.243 127.79C254.954 126.883 251.74 125.878 248.617 124.757L247.266 128.521C250.494 129.68 253.805 130.715 257.179 131.646L258.243 127.79ZM239.335 120.93C236.285 119.488 233.359 117.9 230.576 116.146L228.442 119.529C231.374 121.378 234.444 123.042 237.626 124.546L239.335 120.93ZM222.571 110.268C220.075 108.133 217.744 105.804 215.598 103.26L212.541 105.838C214.832 108.555 217.317 111.037 219.97 113.307L222.571 110.268ZM209.885 95.2103C208.256 92.4598 206.798 89.502 205.528 86.3174L201.813 87.7987C203.158 91.1715 204.707 94.3158 206.443 97.2483L209.885 95.2103ZM202.494 76.8417C201.724 73.7544 201.103 70.4874 200.643 67.0286L196.678 67.5557C197.156 71.1547 197.804 74.5693 198.612 77.8097L202.494 76.8417ZM199.795 57.047C199.726 55.3589 199.692 53.6313 199.692 51.8632H195.692C195.692 53.6837 195.728 55.4653 195.798 57.209L199.795 57.047ZM199.692 51.8632C199.692 49.9646 199.544 48.1991 199.248 46.5681L195.312 47.2821C195.56 48.6461 195.692 50.1698 195.692 51.8632H199.692ZM194.099 36.7764C191.371 34.3918 187.841 33.1752 183.832 32.8897L183.548 36.8796C186.928 37.1203 189.554 38.1164 191.466 39.7881L194.099 36.7764ZM173.438 33.844C170.353 34.5298 167.073 35.5509 163.641 36.8764L165.082 40.6078C168.364 39.3403 171.451 38.3834 174.306 37.7487L173.438 33.844ZM154.48 40.948C151.608 42.379 148.655 43.9856 145.638 45.7565L147.663 49.206C150.608 47.4771 153.481 45.9148 156.264 44.5282L154.48 40.948ZM137.119 51.0836C134.424 52.869 131.692 54.7707 128.936 56.7819L131.294 60.0131C134.004 58.0358 136.686 56.1688 139.328 54.4183L137.119 51.0836ZM120.997 62.8258C118.439 64.8542 115.868 66.9697 113.294 69.1672L115.892 72.2092C118.429 70.0425 120.962 67.9579 123.482 65.9603L120.997 62.8258ZM105.82 75.7744C103.397 77.991 100.978 80.2762 98.5722 82.626L101.367 85.4878C103.742 83.1683 106.129 80.913 108.52 78.726L105.82 75.7744ZM91.5495 89.7071C89.2645 92.0857 86.9976 94.5204 84.7555 97.0075L87.7265 99.6858C89.94 97.2303 92.1781 94.8266 94.4341 92.4782L91.5495 89.7071ZM78.1967 104.52C76.06 107.048 73.9533 109.622 71.8828 112.24L75.02 114.722C77.0632 112.138 79.1424 109.598 81.2516 107.102L78.1967 104.52ZM65.8265 120.165C63.8555 122.836 61.9259 125.546 60.044 128.292L63.3434 130.553C65.1985 127.847 67.101 125.174 69.0451 122.54L65.8265 120.165ZM54.5535 136.623C52.7724 139.437 51.045 142.284 49.3773 145.16L52.8376 147.166C54.4786 144.336 56.1792 141.534 57.9334 138.762L54.5535 136.623ZM44.5437 153.902C42.9886 156.859 41.5005 159.842 40.0858 162.848L43.705 164.552C45.0938 161.601 46.5554 158.67 48.0839 155.764L44.5437 153.902ZM36.0416 171.997C34.7618 175.092 33.5641 178.208 32.4552 181.341L36.226 182.676C37.311 179.61 38.4838 176.559 39.7382 173.525L36.0416 171.997ZM29.3764 190.873C28.9087 192.477 28.4655 194.084 28.0478 195.693L31.9195 196.698C32.3271 195.128 32.7596 193.559 33.2164 191.994L29.3764 190.873ZM28.0478 195.693C27.6128 197.369 27.2102 199.043 26.8388 200.715L30.7436 201.583C31.1049 199.956 31.4965 198.328 31.9195 196.698L28.0478 195.693ZM24.9589 210.817C24.4446 214.227 24.0503 217.627 23.7647 221.017L27.7506 221.353C28.0291 218.046 28.4134 214.734 28.9142 211.414L24.9589 210.817ZM23.2208 231.265C23.1423 234.693 23.1644 238.111 23.2753 241.52L27.2732 241.39C27.1646 238.05 27.143 234.706 27.2197 231.357L23.2208 231.265ZM23.8648 251.746C24.1426 255.146 24.4978 258.537 24.9184 261.92L28.8878 261.427C28.4736 258.095 28.1244 254.76 27.8515 251.42L23.8648 251.746ZM26.3629 272.033C26.9009 275.39 27.4923 278.74 28.1254 282.082L32.0555 281.337C31.4286 278.028 30.8439 274.715 30.3125 271.4L26.3629 272.033ZM30.1343 292.071C30.8369 295.39 31.5695 298.703 32.3203 302.009L36.221 301.123C35.4734 297.832 34.7452 294.538 34.0476 291.243L30.1343 292.071ZM34.6162 311.909C35.3928 315.205 36.1772 318.5 36.9562 321.785L40.8483 320.862C40.0681 317.572 39.2854 314.284 38.5097 310.991L34.6162 311.909ZM39.2744 331.653C40.0377 334.949 40.7847 338.24 41.5041 341.527L45.4116 340.672C44.6878 337.365 43.9371 334.058 43.1713 330.751L39.2744 331.653ZM43.5766 351.419C44.2351 354.73 44.8537 358.037 45.4205 361.34L49.3629 360.664C48.7893 357.321 48.1642 353.979 47.4997 350.639L43.5766 351.419ZM46.9617 371.298C47.4176 374.633 47.8084 377.965 48.1222 381.294L52.1045 380.919C51.7851 377.529 51.3876 374.142 50.9248 370.756L46.9617 371.298ZM48.8216 391.314C48.9692 394.658 49.0265 398 48.9815 401.34L52.9811 401.394C53.0273 397.972 52.9685 394.553 52.8177 391.138L48.8216 391.314ZM48.5281 411.344C48.2684 414.658 47.8958 417.971 47.3983 421.286L51.354 421.879C51.866 418.468 52.2491 415.06 52.5159 411.656L48.5281 411.344ZM45.5497 431.1C44.8185 434.31 43.9592 437.522 42.9607 440.736L46.7807 441.923C47.8103 438.608 48.6962 435.296 49.4498 431.988L45.5497 431.1ZM39.6342 450.145C38.4257 453.185 37.0833 456.229 35.5976 459.277L39.1933 461.03C40.7228 457.892 42.1057 454.756 43.3513 451.622L39.6342 450.145ZM30.8981 468.097C30.0625 469.54 29.193 470.984 28.2884 472.429L31.679 474.551C32.6077 473.068 33.5008 471.584 34.3595 470.102L30.8981 468.097ZM28.2884 472.429C27.382 473.877 26.4994 475.318 25.6403 476.753L29.072 478.808C29.9174 477.396 30.7863 475.978 31.679 474.551L28.2884 472.429ZM20.7662 485.276C19.1523 488.24 17.6402 491.173 16.2274 494.075L19.8239 495.826C21.2093 492.98 22.6934 490.101 24.2791 487.189L20.7662 485.276ZM12.1783 502.936C10.8392 506.073 9.61784 509.172 8.51073 512.233L12.2723 513.594C13.3531 510.605 14.5467 507.576 15.8572 504.506L12.1783 502.936ZM5.44603 521.581C4.4981 524.81 3.67978 527.993 2.98654 531.131L6.89235 531.994C7.5655 528.947 8.36104 525.851 9.28406 522.707L5.44603 521.581ZM1.1996 540.945C0.722878 544.289 0.391679 547.577 0.199896 550.808L4.19287 551.045C4.37802 547.926 4.69802 544.747 5.15957 541.51L1.1996 540.945ZM0.0470798 560.704C0.146402 564.077 0.40203 567.381 0.805963 570.616L4.77514 570.12C4.38701 567.012 4.14098 563.834 4.04535 560.586L0.0470798 560.704ZM2.5312 580.451C3.27696 583.73 4.18009 586.928 5.23068 590.046L9.0212 588.768C8.01358 585.778 7.14719 582.71 6.4316 579.564L2.5312 580.451ZM8.88627 599.31C10.2662 602.347 11.7913 605.297 13.4504 608.157L16.9104 606.15C15.3164 603.402 13.8522 600.57 12.5281 597.655L8.88627 599.31ZM18.8513 616.514C20.7811 619.211 22.8351 621.817 25.0018 624.33L28.0312 621.718C25.941 619.294 23.9619 616.783 22.1043 614.187L18.8513 616.514ZM31.8092 631.572C34.1692 633.88 36.629 636.096 39.1776 638.221L41.7387 635.148C39.2689 633.089 36.8879 630.944 34.606 628.712L31.8092 631.572ZM47.0232 644.277C49.7018 646.192 52.4565 648.017 55.277 649.752L57.3721 646.344C54.6283 644.657 51.9509 642.883 49.3498 641.023L47.0232 644.277ZM63.8763 654.655C66.7885 656.193 69.7553 657.641 72.7668 658.999L74.4111 655.353C71.4736 654.028 68.5813 652.616 65.7441 651.118L63.8763 654.655ZM81.9007 662.793C84.9809 663.966 88.0959 665.05 91.2359 666.042L92.4415 662.228C89.3741 661.259 86.332 660.201 83.3248 659.055L81.9007 662.793ZM100.737 668.751C103.94 669.567 107.158 670.29 110.382 670.919L111.148 666.993C107.998 666.378 104.854 665.672 101.724 664.875L100.737 668.751ZM120.138 672.537C123.424 672.985 126.706 673.336 129.973 673.588L130.281 669.6C127.092 669.354 123.888 669.011 120.679 668.573L120.138 672.537ZM139.857 674.048C143.187 674.101 146.491 674.047 149.756 673.885L149.559 669.89C146.382 670.047 143.166 670.1 139.92 670.049L139.857 674.048ZM159.628 673.054C162.953 672.655 166.223 672.136 169.426 671.497L168.643 667.575C165.545 668.193 162.377 668.695 159.151 669.083L159.628 673.054ZM179.081 669.141C182.317 668.198 185.463 667.117 188.501 665.896L187.009 662.184C184.1 663.354 181.079 664.392 177.962 665.3L179.081 669.141ZM197.552 661.663C200.531 660.053 203.37 658.281 206.048 656.346L203.705 653.104C201.176 654.932 198.485 656.612 195.651 658.144L197.552 661.663ZM213.744 649.881C214.946 648.705 216.099 647.485 217.2 646.22L214.183 643.593C213.154 644.776 212.074 645.919 210.947 647.021L213.744 649.881ZM217.2 646.22C218.308 644.948 219.421 643.695 220.54 642.46L217.576 639.774C216.439 641.028 215.308 642.301 214.183 643.593L217.2 646.22ZM227.321 635.282C229.626 632.94 231.954 630.673 234.304 628.48L231.574 625.556C229.183 627.788 226.815 630.094 224.47 632.476L227.321 635.282ZM241.699 621.875C244.188 619.75 246.698 617.702 249.23 615.729L246.771 612.574C244.193 614.583 241.636 616.669 239.101 618.833L241.699 621.875ZM257.197 609.813C259.874 607.921 262.572 606.108 265.29 604.372L263.136 601.001C260.366 602.771 257.616 604.619 254.888 606.547L257.197 609.813ZM273.745 599.249C276.59 597.617 279.455 596.063 282.338 594.587L280.515 591.027C277.576 592.532 274.655 594.115 271.755 595.779L273.745 599.249ZM291.222 590.299C294.209 588.944 297.213 587.666 300.234 586.463L298.753 582.747C295.676 583.973 292.614 585.276 289.57 586.656L291.222 590.299ZM309.47 583.027C312.569 581.955 315.683 580.956 318.81 580.029L317.673 576.194C314.489 577.138 311.319 578.155 308.162 579.247L309.47 583.027ZM328.315 577.434C331.497 576.639 334.691 575.913 337.894 575.254L337.088 571.336C333.831 572.006 330.582 572.745 327.345 573.554L328.315 577.434ZM347.583 573.463C350.821 572.932 354.069 572.464 357.323 572.057L356.826 568.088C353.523 568.501 350.225 568.976 346.934 569.516L347.583 573.463ZM367.121 571.014C370.393 570.726 373.67 570.496 376.95 570.321L376.737 566.327C373.412 566.504 370.089 566.737 366.77 567.03L367.121 571.014ZM386.803 569.959C390.09 569.892 393.378 569.876 396.665 569.91L396.707 565.911C393.379 565.876 390.05 565.891 386.721 565.96L386.803 569.959ZM406.53 570.157C409.819 570.287 413.105 570.463 416.386 570.682L416.653 566.69C413.336 566.469 410.014 566.291 406.688 566.16L406.53 570.157ZM426.231 571.467C429.512 571.77 432.788 572.114 436.055 572.495L436.519 568.522C433.221 568.137 429.914 567.79 426.599 567.484L426.231 571.467ZM445.857 573.751C449.127 574.206 452.387 574.697 455.635 575.218L456.269 571.269C452.995 570.743 449.707 570.249 446.409 569.789L445.857 573.751ZM465.378 576.881C468.635 577.469 471.877 578.086 475.104 578.728L475.885 574.805C472.636 574.158 469.37 573.537 466.089 572.945L465.378 576.881ZM484.778 580.737C488.022 581.439 491.248 582.164 494.454 582.908L495.359 579.011C492.134 578.263 488.888 577.534 485.623 576.828L484.778 580.737ZM504.049 585.206C507.286 586.005 510.499 586.82 513.687 587.648L514.693 583.777C511.491 582.945 508.261 582.125 505.007 581.322L504.049 585.206ZM523.213 590.182C526.443 591.06 529.642 591.947 532.81 592.841L533.896 588.991C530.717 588.094 527.505 587.203 524.262 586.322L523.213 590.182ZM542.318 595.566C545.527 596.5 548.7 597.435 551.832 598.369L552.974 594.535C549.835 593.6 546.654 592.662 543.435 591.725L542.318 595.566ZM561.358 601.232C564.539 602.195 567.675 603.151 570.761 604.095L571.93 600.269C568.842 599.326 565.704 598.369 562.518 597.404L561.358 601.232ZM580.345 607.027C583.576 608.014 586.746 608.98 589.851 609.919L591.008 606.09C587.909 605.153 584.744 604.188 581.515 603.201L580.345 607.027ZM599.275 612.734C602.58 613.708 605.8 614.638 608.929 615.517L610.01 611.666C606.901 610.793 603.698 609.867 600.405 608.897L599.275 612.734ZM618.593 618.13C621.958 619 625.2 619.788 628.307 620.482L629.178 616.578C626.122 615.896 622.925 615.118 619.594 614.257L618.593 618.13ZM638.151 622.419C641.733 623.012 645.095 623.426 648.216 623.626L648.472 619.634C645.515 619.445 642.289 619.05 638.805 618.472L638.151 622.419ZM658.496 623.35C662.445 622.769 665.868 621.541 668.557 619.43L666.086 616.284C664.11 617.835 661.415 618.878 657.914 619.392L658.496 623.35ZM674.163 609.99C674.518 608.306 674.692 606.476 674.692 604.5H670.692C670.692 606.244 670.538 607.793 670.249 609.166L674.163 609.99Z" fill="#07A0C3"/>
<g clip-path="url(#clip0_155_1082)">
<path d="M672.213 576.629C672.485 574.508 674.756 571.05 676.925 571.329C679.157 571.615 680.42 575.526 680.148 577.646L679.621 581.756L689.701 590.516C690.206 590.952 690.455 591.614 690.37 592.278L689.92 595.792C689.833 596.468 689.108 596.86 688.491 596.567L678.349 591.675L677.713 596.634L680.941 599.77C681.165 599.988 681.275 600.305 681.236 600.615L680.902 603.218C680.84 603.702 680.4 604.036 679.923 603.975C679.842 603.965 679.763 603.942 679.685 603.913L673.11 601.085L666.034 602.163C665.95 602.177 665.869 602.173 665.788 602.163C665.305 602.101 664.971 601.661 665.032 601.183L665.366 598.58C665.405 598.27 665.592 597.991 665.864 597.837L669.778 595.617L670.414 590.657L659.367 592.833C658.695 592.961 658.093 592.398 658.179 591.723L658.63 588.208C658.715 587.544 659.123 586.966 659.722 586.671L671.686 580.739L672.213 576.629Z" fill="#07A0C3"/>
</g>
</g>
<g opacity="0.5">
<path d="M724.525 189C724.525 194.891 729.301 199.667 735.192 199.667C741.083 199.667 745.859 194.891 745.859 189C745.859 183.109 741.083 178.333 735.192 178.333C729.301 178.333 724.525 183.109 724.525 189ZM1423.69 152L1422.01 153.077L1423.69 152ZM1130.12 582.104C1129.35 581.313 1128.09 581.297 1127.3 582.068C1126.5 582.84 1126.49 584.106 1127.26 584.897L1130.12 582.104ZM1215.54 239.5L1217.21 238.405L1215.54 239.5ZM738.349 184.308C738.632 183.241 737.997 182.146 736.929 181.862C735.862 181.579 734.766 182.215 734.483 183.282L738.349 184.308ZM737.728 173.447C737.316 174.472 737.814 175.636 738.839 176.048C739.865 176.459 741.029 175.961 741.44 174.936L737.728 173.447ZM745.512 166.465C746.059 165.505 745.725 164.284 744.765 163.737C743.806 163.19 742.584 163.525 742.037 164.484L745.512 166.465ZM747.914 155.839C747.221 156.699 747.357 157.958 748.217 158.651C749.077 159.344 750.336 159.208 751.029 158.348L747.914 155.839ZM757.597 151.428C758.419 150.691 758.489 149.427 757.753 148.604C757.016 147.781 755.751 147.711 754.928 148.448L757.597 151.428ZM763.077 142.247C762.148 142.846 761.881 144.084 762.48 145.012C763.078 145.94 764.316 146.208 765.244 145.609L763.077 142.247ZM773.897 140.895C774.901 140.436 775.344 139.25 774.885 138.245C774.426 137.24 773.24 136.798 772.235 137.257L773.897 140.895ZM781.531 133.676C780.479 134.013 779.9 135.139 780.237 136.191C780.574 137.243 781.7 137.822 782.752 137.484L781.531 133.676ZM792.417 134.944C793.498 134.716 794.189 133.656 793.962 132.575C793.735 131.494 792.674 130.802 791.593 131.029L792.417 134.944ZM801.421 129.39C800.325 129.529 799.549 130.529 799.687 131.625C799.826 132.721 800.827 133.497 801.922 133.359L801.421 129.39ZM811.751 132.469C812.854 132.406 813.697 131.461 813.634 130.358C813.571 129.256 812.626 128.413 811.524 128.476L811.751 132.469ZM821.848 128.198C820.743 128.196 819.846 129.09 819.845 130.195C819.843 131.299 820.738 132.196 821.842 132.198L821.848 128.198ZM831.471 132.441C832.574 132.494 833.511 131.643 833.564 130.54C833.617 129.436 832.766 128.499 831.663 128.446L831.471 132.441ZM841.854 129.152C840.754 129.053 839.782 129.865 839.684 130.966C839.585 132.066 840.397 133.037 841.497 133.136L841.854 129.152ZM851.478 134.211C852.574 134.348 853.574 133.571 853.711 132.475C853.848 131.379 853.071 130.379 851.975 130.242L851.478 134.211ZM861.719 131.611C860.627 131.441 859.605 132.189 859.436 133.28C859.267 134.372 860.014 135.394 861.106 135.563L861.719 131.611ZM871.01 137.239C872.096 137.437 873.138 136.717 873.337 135.63C873.535 134.544 872.815 133.502 871.728 133.304L871.01 137.239ZM881.801 135.268C880.72 135.044 879.661 135.74 879.437 136.821C879.213 137.903 879.909 138.961 880.99 139.185L881.801 135.268ZM890.48 141.251C891.557 141.497 892.629 140.823 892.875 139.746C893.12 138.669 892.446 137.597 891.369 137.351L890.48 141.251ZM901.129 139.672C900.057 139.407 898.973 140.061 898.708 141.133C898.443 142.206 899.097 143.29 900.169 143.555L901.129 139.672ZM910.047 146.086C911.114 146.369 912.209 145.733 912.492 144.666C912.775 143.598 912.139 142.503 911.072 142.22L910.047 146.086ZM920.657 144.837C919.594 144.538 918.489 145.158 918.191 146.222C917.892 147.285 918.513 148.389 919.576 148.688L920.657 144.837ZM929.05 151.416C930.109 151.728 931.221 151.123 931.534 150.063C931.846 149.004 931.241 147.892 930.181 147.579L929.05 151.416ZM939.84 150.492C938.784 150.167 937.665 150.759 937.339 151.815C937.014 152.87 937.606 153.99 938.662 154.315L939.84 150.492ZM948.404 157.378C949.456 157.715 950.582 157.136 950.919 156.084C951.256 155.032 950.676 153.906 949.625 153.569L948.404 157.378ZM958.979 156.619C957.931 156.271 956.799 156.84 956.452 157.888C956.104 158.937 956.673 160.068 957.721 160.416L958.979 156.619ZM967.119 163.578C968.164 163.935 969.301 163.377 969.658 162.332C970.015 161.287 969.457 160.15 968.412 159.793L967.119 163.578ZM977.937 163.091C976.895 162.726 975.753 163.274 975.387 164.316C975.022 165.358 975.57 166.5 976.612 166.866L977.937 163.091ZM986.195 170.272C987.234 170.646 988.38 170.106 988.754 169.067C989.128 168.027 988.588 166.882 987.549 166.508L986.195 170.272ZM996.829 169.884C995.792 169.503 994.643 170.034 994.262 171.071C993.88 172.107 994.412 173.257 995.448 173.638L996.829 169.884ZM1004.76 177.097C1005.8 177.485 1006.95 176.961 1007.34 175.927C1007.72 174.892 1007.2 173.74 1006.17 173.352L1004.76 177.097ZM1015.57 176.91C1014.53 176.516 1013.38 177.033 1012.98 178.064C1012.59 179.096 1013.11 180.252 1014.14 180.646L1015.57 176.91ZM1023.57 184.281C1024.6 184.681 1025.76 184.17 1026.16 183.14C1026.56 182.111 1026.05 180.952 1025.02 180.552L1023.57 184.281ZM1034.29 184.18C1033.27 183.775 1032.11 184.28 1031.7 185.308C1031.3 186.335 1031.8 187.497 1032.83 187.902L1034.29 184.18ZM1042.07 191.57C1043.1 191.979 1044.26 191.48 1044.67 190.454C1045.08 189.429 1044.58 188.265 1043.55 187.855L1042.07 191.57ZM1052.85 191.593C1051.83 191.179 1050.66 191.673 1050.25 192.697C1049.83 193.721 1050.33 194.887 1051.35 195.301L1052.85 191.593ZM1060.67 199.091C1061.69 199.509 1062.86 199.019 1063.28 197.997C1063.69 196.975 1063.2 195.807 1062.18 195.389L1060.67 199.091ZM1071.45 199.201C1070.43 198.78 1069.26 199.265 1068.84 200.286C1068.42 201.307 1068.91 202.476 1069.93 202.898L1071.45 199.201ZM1079.13 206.717C1080.14 207.142 1081.32 206.66 1081.74 205.641C1082.17 204.621 1081.68 203.45 1080.67 203.025L1079.13 206.717ZM1089.89 206.889C1088.87 206.461 1087.7 206.94 1087.27 207.958C1086.85 208.976 1087.32 210.149 1088.34 210.577L1089.89 206.889ZM1097.57 214.472C1098.59 214.903 1099.76 214.428 1100.19 213.411C1100.62 212.394 1100.15 211.22 1099.13 210.789L1097.57 214.472ZM1108.37 214.716C1107.36 214.283 1106.18 214.756 1105.75 215.772C1105.32 216.788 1105.79 217.963 1106.8 218.396L1108.37 214.716ZM1115.99 222.325C1117.01 222.76 1118.18 222.29 1118.62 221.275C1119.05 220.26 1118.58 219.084 1117.57 218.648L1115.99 222.325ZM1126.76 222.6C1125.75 222.163 1124.57 222.631 1124.13 223.646C1123.7 224.66 1124.16 225.837 1125.18 226.274L1126.76 222.6ZM1134.36 230.239C1135.37 230.677 1136.55 230.211 1136.99 229.198C1137.43 228.184 1136.96 227.006 1135.95 226.568L1134.36 230.239ZM1145.12 230.545C1144.11 230.105 1142.93 230.57 1142.49 231.583C1142.05 232.596 1142.51 233.774 1143.53 234.214L1145.12 230.545ZM1152.72 238.214C1153.73 238.655 1154.91 238.191 1155.35 237.178C1155.8 236.166 1155.33 234.987 1154.32 234.546L1152.72 238.214ZM1163.51 238.555C1162.5 238.113 1161.32 238.575 1160.88 239.588C1160.44 240.6 1160.9 241.779 1161.91 242.221L1163.51 238.555ZM1171.08 246.224C1172.09 246.666 1173.27 246.204 1173.71 245.192C1174.15 244.18 1173.69 243.001 1172.68 242.558L1171.08 246.224ZM1181.82 246.553C1180.8 246.11 1179.63 246.572 1179.18 247.584C1178.74 248.596 1179.2 249.775 1180.21 250.218L1181.82 246.553ZM1189.37 254.223C1190.39 254.665 1191.56 254.203 1192.01 253.191C1192.45 252.179 1191.99 251 1190.98 250.558L1189.37 254.223ZM1200.21 254.592C1199.19 254.15 1198.02 254.612 1197.57 255.624C1197.13 256.637 1197.59 257.816 1198.61 258.258L1200.21 254.592ZM1207.79 262.268C1208.8 262.709 1209.98 262.246 1210.42 261.234C1210.87 260.221 1210.4 259.043 1209.39 258.601L1207.79 262.268ZM1218.52 262.579C1217.51 262.138 1216.33 262.602 1215.89 263.615C1215.45 264.628 1215.91 265.806 1216.93 266.247L1218.52 262.579ZM1226.01 270.195C1227.03 270.634 1228.21 270.169 1228.64 269.156C1229.08 268.142 1228.62 266.965 1227.61 266.525L1226.01 270.195ZM1236.91 270.551C1235.89 270.113 1234.72 270.58 1234.28 271.594C1233.84 272.608 1234.31 273.785 1235.32 274.223L1236.91 270.551ZM1244.56 278.202C1245.57 278.638 1246.75 278.168 1247.19 277.153C1247.62 276.139 1247.15 274.962 1246.14 274.526L1244.56 278.202ZM1255.29 278.446C1254.27 278.012 1253.1 278.484 1252.67 279.5C1252.23 280.516 1252.7 281.691 1253.72 282.124L1255.29 278.446ZM1262.8 285.986C1263.81 286.417 1264.99 285.941 1265.42 284.924C1265.85 283.907 1265.37 282.734 1264.36 282.303L1262.8 285.986ZM1273.71 286.249C1272.69 285.821 1271.52 286.299 1271.09 287.318C1270.66 288.336 1271.14 289.509 1272.16 289.936L1273.71 286.249ZM1281.47 293.829C1282.49 294.253 1283.66 293.77 1284.09 292.75C1284.51 291.73 1284.03 290.56 1283.01 290.135L1281.47 293.829ZM1292.19 293.934C1291.17 293.514 1290 294.002 1289.58 295.024C1289.16 296.045 1289.65 297.214 1290.67 297.634L1292.19 293.934ZM1299.76 301.345C1300.78 301.76 1301.95 301.267 1302.36 300.243C1302.78 299.22 1302.29 298.053 1301.26 297.638L1299.76 301.345ZM1310.73 301.449C1309.7 301.039 1308.54 301.539 1308.13 302.565C1307.72 303.59 1308.22 304.754 1309.25 305.164L1310.73 301.449ZM1318.64 308.883C1319.67 309.286 1320.83 308.779 1321.23 307.751C1321.64 306.723 1321.13 305.562 1320.1 305.159L1318.64 308.883ZM1329.31 308.737C1328.28 308.341 1327.13 308.856 1326.73 309.887C1326.33 310.918 1326.85 312.075 1327.88 312.471L1329.31 308.737ZM1337.09 315.971C1338.13 316.359 1339.28 315.836 1339.67 314.801C1340.06 313.767 1339.53 312.614 1338.5 312.226L1337.09 315.971ZM1348.12 315.788C1347.08 315.41 1345.93 315.944 1345.56 316.982C1345.18 318.019 1345.71 319.167 1346.75 319.546L1348.12 315.788ZM1356.2 322.938C1357.24 323.305 1358.38 322.759 1358.75 321.717C1359.11 320.676 1358.57 319.533 1357.53 319.166L1356.2 322.938ZM1366.71 322.348C1365.66 321.993 1364.53 322.552 1364.17 323.598C1363.82 324.644 1364.38 325.78 1365.42 326.135L1366.71 322.348ZM1375.14 329.363C1376.19 329.703 1377.32 329.127 1377.66 328.076C1378 327.026 1377.42 325.898 1376.37 325.557L1375.14 329.363ZM1386 328.589C1384.94 328.266 1383.82 328.861 1383.5 329.917C1383.18 330.973 1383.77 332.091 1384.83 332.414L1386 328.589ZM1394.2 335.186C1395.27 335.488 1396.37 334.873 1396.67 333.81C1396.98 332.748 1396.36 331.642 1395.3 331.339L1394.2 335.186ZM1405.07 334.001C1404 333.723 1402.91 334.365 1402.63 335.435C1402.35 336.504 1402.99 337.595 1404.06 337.873L1405.07 334.001ZM1413.95 340.289C1415.03 340.535 1416.1 339.862 1416.35 338.785C1416.59 337.708 1415.92 336.636 1414.84 336.39L1413.95 340.289ZM1424.14 338.353C1423.06 338.144 1422.01 338.854 1421.8 339.939C1421.59 341.023 1422.3 342.072 1423.39 342.281L1424.14 338.353ZM1433.79 344.038C1434.89 344.195 1435.9 343.435 1436.06 342.342C1436.21 341.248 1435.45 340.235 1434.36 340.079L1433.79 344.038ZM1443.96 341.173C1442.86 341.083 1441.89 341.902 1441.8 343.003C1441.71 344.104 1442.53 345.069 1443.63 345.16L1443.96 341.173ZM1453.97 345.586C1455.08 345.581 1455.97 344.681 1455.96 343.576C1455.96 342.472 1455.06 341.581 1453.95 341.586L1453.97 345.586ZM1463.48 340.997C1462.39 341.137 1461.61 342.139 1461.75 343.234C1461.89 344.33 1462.89 345.105 1463.99 344.965L1463.48 340.997ZM1474.3 342.683C1475.35 342.332 1475.91 341.199 1475.56 340.151C1475.21 339.104 1474.08 338.539 1473.03 338.89L1474.3 342.683ZM1481.22 334.856C1480.32 335.49 1480.1 336.737 1480.73 337.642C1481.37 338.546 1482.61 338.766 1483.52 338.132L1481.22 334.856ZM1491.02 330.438C1491.63 329.515 1491.37 328.275 1490.45 327.668C1489.52 327.062 1488.28 327.318 1487.68 328.241L1491.02 330.438ZM1491.28 320.001C1490.99 321.069 1491.63 322.164 1492.7 322.448C1493.76 322.731 1494.86 322.095 1495.14 321.027L1491.28 320.001ZM1496.58 310.644C1496.61 309.54 1495.75 308.616 1494.64 308.581C1493.54 308.546 1492.62 309.412 1492.58 310.516L1496.58 310.644ZM1492.15 301.01C1492.28 302.108 1493.27 302.898 1494.36 302.775C1495.46 302.652 1496.25 301.663 1496.13 300.565L1492.15 301.01ZM1494.42 290.282C1494.19 289.202 1493.12 288.515 1492.04 288.747C1490.96 288.98 1490.28 290.043 1490.51 291.123L1494.42 290.282ZM1488.21 282.024C1488.52 283.086 1489.63 283.701 1490.69 283.397C1491.75 283.093 1492.36 281.986 1492.06 280.924L1488.21 282.024ZM1488.83 270.743C1488.46 269.699 1487.32 269.147 1486.28 269.509C1485.24 269.871 1484.68 271.01 1485.05 272.054L1488.83 270.743ZM1481.71 263.038C1482.11 264.066 1483.27 264.573 1484.3 264.171C1485.33 263.768 1485.84 262.607 1485.43 261.579L1481.71 263.038ZM1481.76 252.622C1481.32 251.607 1480.15 251.136 1479.13 251.571C1478.12 252.006 1477.65 253.182 1478.08 254.197L1481.76 252.622ZM1473.9 244.815C1474.36 245.818 1475.55 246.255 1476.56 245.792C1477.56 245.329 1478 244.141 1477.53 243.138L1473.9 244.815ZM1472.99 233.602C1472.5 232.61 1471.3 232.201 1470.31 232.687C1469.32 233.173 1468.91 234.372 1469.4 235.363L1472.99 233.602ZM1465.25 227.094C1465.75 228.077 1466.96 228.465 1467.94 227.961C1468.92 227.457 1469.31 226.252 1468.81 225.269L1465.25 227.094ZM1464.26 216.584C1463.74 215.609 1462.53 215.241 1461.56 215.76C1460.58 216.28 1460.21 217.492 1460.73 218.466L1464.26 216.584ZM1455.85 209.477C1456.38 210.443 1457.6 210.794 1458.57 210.26C1459.53 209.725 1459.88 208.509 1459.35 207.542L1455.85 209.477ZM1454.07 198.137C1453.52 197.178 1452.3 196.844 1451.34 197.392C1450.38 197.939 1450.04 199.161 1450.59 200.12L1454.07 198.137ZM1445.86 191.93C1446.42 192.883 1447.64 193.204 1448.59 192.646C1449.55 192.088 1449.87 190.863 1449.31 189.91L1445.86 191.93ZM1444.45 181.691C1443.88 180.743 1442.65 180.434 1441.7 181.001C1440.76 181.568 1440.45 182.797 1441.01 183.744L1444.45 181.691ZM1435.91 175.305C1436.49 176.248 1437.72 176.545 1438.66 175.969C1439.6 175.394 1439.9 174.163 1439.33 173.22L1435.91 175.305ZM1433.94 164.495C1433.36 163.557 1432.13 163.27 1431.19 163.854C1430.25 164.438 1429.96 165.671 1430.55 166.609L1433.94 164.495ZM1424.92 157.654C1425.51 158.587 1426.75 158.863 1427.68 158.272C1428.61 157.681 1428.89 156.445 1428.3 155.512L1424.92 157.654ZM1422.58 146.59C1421.98 145.664 1420.74 145.402 1419.82 146.005C1418.89 146.607 1418.63 147.846 1419.23 148.772L1422.58 146.59ZM1413.67 140.368C1414.28 141.284 1415.53 141.527 1416.44 140.909C1417.36 140.292 1417.6 139.049 1416.98 138.133L1413.67 140.368ZM1411.37 129.952C1410.74 129.046 1409.49 128.824 1408.59 129.457C1407.68 130.089 1407.46 131.336 1408.09 132.241L1411.37 129.952ZM1402.27 124.054C1402.92 124.948 1404.17 125.148 1405.06 124.5C1405.96 123.852 1406.16 122.601 1405.51 121.707L1402.27 124.054ZM1399.51 113.585C1398.84 112.703 1397.59 112.526 1396.71 113.191C1395.83 113.855 1395.65 115.109 1396.31 115.992L1399.51 113.585ZM1390.36 108.235C1391.04 109.105 1392.3 109.258 1393.17 108.577C1394.03 107.896 1394.19 106.639 1393.51 105.769L1390.36 108.235ZM1387.1 97.7623C1386.4 96.907 1385.14 96.7803 1384.29 97.4793C1383.43 98.1783 1383.31 99.4382 1384 100.294L1387.1 97.7623ZM1377.65 92.6864C1378.37 93.5266 1379.63 93.6264 1380.47 92.9093C1381.31 92.1923 1381.41 90.9299 1380.69 90.0897L1377.65 92.6864ZM1374.08 82.5125C1373.34 81.6888 1372.08 81.6177 1371.25 82.3537C1370.43 83.0897 1370.36 84.354 1371.1 85.1777L1374.08 82.5125ZM1364.33 77.7857C1365.09 78.5913 1366.35 78.6317 1367.16 77.876C1367.96 77.1202 1368 75.8545 1367.25 75.049L1364.33 77.7857ZM1360.36 67.8912C1359.59 67.1051 1358.32 67.0968 1357.53 67.8727C1356.75 68.6486 1356.74 69.9149 1357.51 70.701L1360.36 67.8912ZM1350.32 63.6085C1351.12 64.3727 1352.38 64.3458 1353.15 63.5484C1353.91 62.7509 1353.88 61.4849 1353.09 60.7206L1350.32 63.6085ZM1345.85 53.9775C1345.03 53.2365 1343.76 53.2999 1343.02 54.1191C1342.28 54.9383 1342.34 56.203 1343.16 56.944L1345.85 53.9775ZM1335.55 50.2712C1336.39 50.9855 1337.65 50.8815 1338.37 50.0389C1339.08 49.1964 1338.98 47.9343 1338.13 47.2201L1335.55 50.2712ZM1330.46 40.9304C1329.59 40.2448 1328.34 40.3911 1327.65 41.2572C1326.97 42.1232 1327.11 43.3811 1327.98 44.0667L1330.46 40.9304ZM1319.95 37.9477C1320.84 38.6003 1322.09 38.4069 1322.74 37.5157C1323.4 36.6245 1323.2 35.373 1322.31 34.7204L1319.95 37.9477ZM1314.17 29.0036C1313.26 28.3869 1312.02 28.6299 1311.4 29.5463C1310.78 30.4626 1311.02 31.7054 1311.94 32.3221L1314.17 29.0036ZM1303.47 26.8886C1304.41 27.4636 1305.64 27.1653 1306.22 26.2222C1306.79 25.2791 1306.5 24.0485 1305.55 23.4734L1303.47 26.8886ZM1296.85 18.446C1295.88 17.9173 1294.66 18.2748 1294.13 19.2446C1293.61 20.2144 1293.96 21.4293 1294.93 21.958L1296.85 18.446ZM1286.11 17.4458C1287.1 17.9214 1288.3 17.4987 1288.77 16.5018C1289.25 15.5049 1288.83 14.3111 1287.83 13.8355L1286.11 17.4458ZM1278.51 9.72591C1277.49 9.31151 1276.32 9.8056 1275.91 10.8295C1275.49 11.8534 1275.99 13.0193 1277.01 13.4337L1278.51 9.72591ZM1267.81 10.0579C1268.86 10.4026 1269.99 9.83146 1270.34 8.78208C1270.68 7.73271 1270.11 6.60251 1269.06 6.25772L1267.81 10.0579ZM1259.27 3.44366C1258.2 3.18014 1257.12 3.83609 1256.85 4.90876C1256.59 5.98144 1257.25 7.06464 1258.32 7.32816L1259.27 3.44366ZM1248.63 5.38136C1249.72 5.55048 1250.74 4.8027 1250.91 3.71115C1251.08 2.61961 1250.33 1.59764 1249.24 1.42852L1248.63 5.38136ZM1239.1 0.355554C1238 0.294826 1237.05 1.13967 1236.99 2.24257C1236.93 3.34547 1237.78 4.28878 1238.88 4.3495L1239.1 0.355554ZM1229.12 4.34711C1230.23 4.28429 1231.07 3.33939 1231.01 2.23661C1230.94 1.13383 1230 0.290767 1228.89 0.353579L1229.12 4.34711ZM1218.73 1.56688C1217.65 1.76794 1216.93 2.8114 1217.13 3.89752C1217.33 4.98363 1218.37 5.70111 1219.46 5.50006L1218.73 1.56688ZM1210.05 7.92283C1211.09 7.57222 1211.66 6.43886 1211.31 5.39142C1210.96 4.34397 1209.82 3.77908 1208.78 4.12969L1210.05 7.92283ZM1199.26 8.13025C1198.28 8.6346 1197.89 9.8401 1198.39 10.8228C1198.9 11.8055 1200.1 12.1933 1201.09 11.6889L1199.26 8.13025ZM1192.83 16.7776C1193.72 16.1262 1193.92 14.8749 1193.26 13.9829C1192.61 13.0909 1191.36 12.8959 1190.47 13.5474L1192.83 16.7776ZM1182.64 20.2626C1181.86 21.0443 1181.86 22.3106 1182.64 23.091C1183.42 23.8715 1184.69 23.8705 1185.47 23.0888L1182.64 20.2626ZM1179.15 30.4481C1179.8 29.56 1179.62 28.3076 1178.73 27.6508C1177.84 26.9939 1176.59 27.1814 1175.93 28.0694L1179.15 30.4481ZM1170.41 36.7214C1169.88 37.6902 1170.23 38.9057 1171.2 39.4363C1172.17 39.9669 1173.39 39.6117 1173.92 38.643L1170.41 36.7214ZM1169.78 47.4664C1170.18 46.4403 1169.68 45.277 1168.66 44.8681C1167.63 44.4591 1166.47 44.9594 1166.06 45.9855L1169.78 47.4664ZM1162.8 55.6757C1162.51 56.7399 1163.13 57.8425 1164.2 58.1384C1165.26 58.4343 1166.36 57.8114 1166.66 56.7472L1162.8 55.6757ZM1164.48 66.3615C1164.68 65.2739 1163.95 64.2357 1162.86 64.0427C1161.78 63.8496 1160.74 64.5748 1160.55 65.6624L1164.48 66.3615ZM1159.19 75.7892C1159.09 76.8892 1159.9 77.8627 1161 77.9637C1162.1 78.0647 1163.08 77.2549 1163.18 76.1549L1159.19 75.7892ZM1162.65 85.9254C1162.67 84.821 1161.79 83.9095 1160.68 83.8896C1159.58 83.8697 1158.67 84.7488 1158.65 85.8532L1162.65 85.9254ZM1158.81 96.0063C1158.86 97.1096 1159.8 97.9611 1160.9 97.9082C1162 97.8552 1162.85 96.9179 1162.8 95.8146L1158.81 96.0063ZM1163.58 105.772C1163.46 104.674 1162.48 103.88 1161.38 103.998C1160.28 104.117 1159.49 105.103 1159.6 106.201L1163.58 105.772ZM1160.94 116.113C1161.12 117.204 1162.14 117.945 1163.23 117.77C1164.33 117.594 1165.07 116.567 1164.89 115.477L1160.94 116.113ZM1166.72 125.296C1166.49 124.215 1165.43 123.524 1164.35 123.753C1163.27 123.981 1162.58 125.042 1162.81 126.123L1166.72 125.296ZM1165.1 135.912C1165.38 136.981 1166.47 137.625 1167.54 137.35C1168.61 137.075 1169.25 135.985 1168.98 134.915L1165.1 135.912ZM1171.65 144.49C1171.33 143.432 1170.22 142.833 1169.16 143.151C1168.1 143.468 1167.5 144.584 1167.82 145.642L1171.65 144.49ZM1170.91 155.26C1171.27 156.305 1172.4 156.863 1173.45 156.507C1174.49 156.15 1175.05 155.013 1174.69 153.968L1170.91 155.26ZM1178.06 163.302C1177.67 162.269 1176.52 161.75 1175.48 162.143C1174.45 162.535 1173.93 163.69 1174.32 164.723L1178.06 163.302ZM1178.06 174.103C1178.49 175.123 1179.66 175.605 1180.68 175.179C1181.7 174.754 1182.18 173.583 1181.75 172.564L1178.06 174.103ZM1185.72 181.688C1185.27 180.681 1184.08 180.234 1183.07 180.689C1182.07 181.144 1181.62 182.329 1182.08 183.336L1185.72 181.688ZM1186.34 192.436C1186.83 193.429 1188.02 193.843 1189.02 193.36C1190.01 192.878 1190.43 191.681 1189.94 190.687L1186.34 192.436ZM1194.44 199.646C1193.93 198.665 1192.73 198.283 1191.75 198.791C1190.77 199.3 1190.38 200.507 1190.89 201.488L1194.44 199.646ZM1195.59 210.282C1196.13 211.25 1197.34 211.603 1198.31 211.071C1199.28 210.538 1199.63 209.322 1199.1 208.354L1195.59 210.282ZM1204.1 217.195C1203.55 216.24 1202.32 215.916 1201.37 216.471C1200.41 217.026 1200.09 218.25 1200.64 219.205L1204.1 217.195ZM1205.7 227.683C1206.27 228.626 1207.5 228.923 1208.44 228.347C1209.39 227.772 1209.68 226.541 1209.11 225.598L1205.7 227.683ZM1214.43 234.11C1213.84 233.179 1212.6 232.907 1211.67 233.503C1210.74 234.098 1210.47 235.335 1211.06 236.265L1214.43 234.11ZM1216.52 244.731C1217.1 245.666 1218.34 245.948 1219.27 245.36C1220.21 244.773 1220.49 243.538 1219.9 242.603L1216.52 244.731ZM1225.03 251.1C1224.47 250.144 1223.25 249.817 1222.29 250.37C1221.34 250.923 1221.01 252.146 1221.56 253.102L1225.03 251.1ZM1226.3 261.655C1226.82 262.631 1228.03 263.002 1229.01 262.484C1229.98 261.967 1230.35 260.756 1229.84 259.78L1226.3 261.655ZM1234.33 268.621C1233.84 267.627 1232.65 267.213 1231.65 267.696C1230.66 268.179 1230.25 269.375 1230.73 270.369L1234.33 268.621ZM1234.85 279.245C1235.3 280.255 1236.48 280.711 1237.49 280.263C1238.5 279.816 1238.95 278.635 1238.51 277.625L1234.85 279.245ZM1242.36 286.754C1241.95 285.729 1240.79 285.233 1239.76 285.645C1238.74 286.057 1238.24 287.222 1238.65 288.247L1242.36 286.754ZM1242.15 297.392C1242.53 298.431 1243.67 298.967 1244.71 298.59C1245.75 298.213 1246.29 297.065 1245.91 296.027L1242.15 297.392ZM1249.13 305.392C1248.79 304.341 1247.66 303.767 1246.61 304.109C1245.56 304.452 1244.99 305.58 1245.33 306.631L1249.13 305.392ZM1248.21 315.996C1248.52 317.057 1249.63 317.668 1250.69 317.36C1251.75 317.053 1252.36 315.943 1252.05 314.882L1248.21 315.996ZM1254.66 324.431C1254.38 323.361 1253.29 322.715 1252.22 322.988C1251.15 323.262 1250.51 324.351 1250.78 325.421L1254.66 324.431ZM1253.06 334.959C1253.3 336.038 1254.36 336.718 1255.44 336.478C1256.52 336.239 1257.2 335.171 1256.96 334.092L1253.06 334.959ZM1258.96 343.79C1258.75 342.704 1257.7 341.992 1256.62 342.198C1255.53 342.404 1254.82 343.45 1255.03 344.535L1258.96 343.79ZM1256.71 354.193C1256.88 355.284 1257.9 356.028 1258.99 355.855C1260.09 355.683 1260.83 354.658 1260.66 353.567L1256.71 354.193ZM1262.06 363.372C1261.92 362.277 1260.92 361.502 1259.82 361.642C1258.73 361.782 1257.95 362.784 1258.09 363.879L1262.06 363.372ZM1259.19 373.614C1259.3 374.714 1260.28 375.517 1261.38 375.41C1262.48 375.302 1263.28 374.324 1263.17 373.224L1259.19 373.614ZM1263.99 383.102C1263.92 382 1262.96 381.168 1261.86 381.244C1260.76 381.319 1259.93 382.274 1260 383.376L1263.99 383.102ZM1260.53 393.148C1260.58 394.252 1261.51 395.111 1262.61 395.067C1263.71 395.023 1264.57 394.092 1264.53 392.989L1260.53 393.148ZM1264.78 402.908C1264.77 401.803 1263.87 400.918 1262.76 400.931C1261.66 400.943 1260.77 401.849 1260.78 402.953L1264.78 402.908ZM1260.76 412.722C1260.74 413.826 1261.62 414.737 1262.72 414.756C1263.83 414.774 1264.74 413.894 1264.76 412.79L1260.76 412.722ZM1264.45 422.723C1264.5 421.62 1263.64 420.685 1262.54 420.635C1261.43 420.585 1260.5 421.439 1260.45 422.542L1264.45 422.723ZM1259.87 432.3C1259.79 433.402 1260.62 434.36 1261.72 434.441C1262.82 434.522 1263.78 433.695 1263.86 432.593L1259.87 432.3ZM1262.99 442.482C1263.1 441.383 1262.3 440.401 1261.2 440.289C1260.11 440.176 1259.12 440.976 1259.01 442.075L1262.99 442.482ZM1257.88 451.805C1257.73 452.9 1258.5 453.904 1259.6 454.048C1260.69 454.192 1261.7 453.42 1261.84 452.325L1257.88 451.805ZM1260.41 462.112C1260.59 461.022 1259.85 459.996 1258.76 459.82C1257.67 459.645 1256.64 460.387 1256.47 461.478L1260.41 462.112ZM1254.76 471.153C1254.56 472.238 1255.27 473.285 1256.35 473.493C1257.44 473.7 1258.48 472.989 1258.69 471.904L1254.76 471.153ZM1256.69 481.578C1256.93 480.5 1256.25 479.431 1255.17 479.191C1254.1 478.951 1253.03 479.63 1252.79 480.709L1256.69 481.578ZM1250.5 490.254C1250.23 491.324 1250.88 492.413 1251.95 492.687C1253.02 492.961 1254.1 492.316 1254.38 491.245L1250.5 490.254ZM1251.76 500.823C1252.07 499.762 1251.46 498.652 1250.4 498.344C1249.34 498.035 1248.23 498.645 1247.92 499.706L1251.76 500.823ZM1245.05 508.997C1244.7 510.047 1245.28 511.177 1246.32 511.521C1247.37 511.866 1248.5 511.294 1248.85 510.244L1245.05 508.997ZM1245.57 519.671C1245.95 518.635 1245.42 517.485 1244.38 517.103C1243.35 516.721 1242.2 517.251 1241.81 518.287L1245.57 519.671ZM1238.25 527.399C1237.83 528.42 1238.32 529.589 1239.34 530.012C1240.36 530.434 1241.53 529.948 1241.95 528.928L1238.25 527.399ZM1237.99 537.982C1238.45 536.98 1238.01 535.791 1237.01 535.327C1236.01 534.863 1234.82 535.299 1234.36 536.301L1237.99 537.982ZM1230.04 545.086C1229.53 546.066 1229.91 547.274 1230.89 547.784C1231.87 548.294 1233.08 547.913 1233.59 546.934L1230.04 545.086ZM1228.75 555.672C1229.31 554.72 1229 553.495 1228.04 552.934C1227.09 552.374 1225.87 552.692 1225.31 553.644L1228.75 555.672ZM1220.13 561.886C1219.52 562.804 1219.76 564.046 1220.68 564.661C1221.6 565.276 1222.84 565.031 1223.46 564.113L1220.13 561.886ZM1217.64 572.198C1218.32 571.325 1218.16 570.069 1217.28 569.393C1216.41 568.717 1215.15 568.878 1214.48 569.751L1217.64 572.198ZM1208.28 577.152C1207.53 577.969 1207.59 579.234 1208.41 579.977C1209.23 580.721 1210.49 580.662 1211.23 579.846L1208.28 577.152ZM1204.14 586.932C1204.96 586.193 1205.02 584.928 1204.28 584.108C1203.54 583.287 1202.28 583.222 1201.46 583.962L1204.14 586.932ZM1193.96 589.966C1193.05 590.6 1192.83 591.847 1193.47 592.752C1194.1 593.656 1195.35 593.875 1196.25 593.241L1193.96 589.966ZM1187.52 598.44C1188.52 597.953 1188.92 596.754 1188.44 595.763C1187.95 594.772 1186.75 594.364 1185.76 594.852L1187.52 598.44ZM1176.91 598.228C1175.84 598.517 1175.21 599.616 1175.5 600.682C1175.79 601.748 1176.89 602.378 1177.96 602.089L1176.91 598.228ZM1167.81 603.667C1168.91 603.624 1169.77 602.694 1169.73 601.59C1169.68 600.486 1168.75 599.627 1167.65 599.67L1167.81 603.667ZM1158.35 598.929C1157.27 598.713 1156.21 599.415 1156 600.498C1155.78 601.581 1156.48 602.635 1157.56 602.852L1158.35 598.929ZM1147.81 599.736C1148.82 600.182 1150 599.724 1150.44 598.713C1150.89 597.703 1150.43 596.522 1149.42 596.076L1147.81 599.736ZM1141.16 591.468C1140.25 590.848 1139.01 591.087 1138.39 592.002C1137.77 592.916 1138 594.159 1138.92 594.779L1141.16 591.468ZM1131 588.514C1131.82 589.257 1133.09 589.196 1133.83 588.379C1134.57 587.561 1134.51 586.296 1133.69 585.554L1131 588.514ZM737.151 189.404C737.511 187.659 737.911 185.961 738.349 184.308L734.483 183.282C734.025 185.009 733.608 186.78 733.233 188.596L737.151 189.404ZM741.44 174.936C742.645 171.932 744.004 169.111 745.512 166.465L742.037 164.484C740.435 167.295 738.997 170.281 737.728 173.447L741.44 174.936ZM751.029 158.348C753.045 155.845 755.236 153.541 757.597 151.428L754.928 148.448C752.408 150.705 750.066 153.166 747.914 155.839L751.029 158.348ZM765.244 145.609C767.961 143.857 770.847 142.288 773.897 140.895L772.235 137.257C769.02 138.725 765.964 140.386 763.077 142.247L765.244 145.609ZM782.752 137.484C785.841 136.494 789.064 135.649 792.417 134.944L791.593 131.029C788.116 131.761 784.759 132.64 781.531 133.676L782.752 137.484ZM801.922 133.359C805.103 132.956 808.38 132.661 811.751 132.469L811.524 128.476C808.068 128.673 804.698 128.976 801.421 129.39L801.922 133.359ZM821.842 132.198C824.983 132.202 828.194 132.284 831.471 132.441L831.663 128.446C828.327 128.286 825.055 128.202 821.848 128.198L821.842 132.198ZM841.497 133.136C844.767 133.429 848.095 133.788 851.478 134.211L851.975 130.242C848.548 129.813 845.173 129.449 841.854 129.152L841.497 133.136ZM861.106 135.563C864.362 136.069 867.664 136.628 871.01 137.239L871.728 133.304C868.349 132.687 865.012 132.122 861.719 131.611L861.106 135.563ZM880.99 139.185C884.119 139.833 887.283 140.522 890.48 141.251L891.369 137.351C888.148 136.617 884.958 135.922 881.801 135.268L880.99 139.185ZM900.169 143.555C903.431 144.361 906.724 145.206 910.047 146.086L911.072 142.22C907.728 141.334 904.413 140.484 901.129 139.672L900.169 143.555ZM919.576 148.688C922.71 149.568 925.868 150.477 929.05 151.416L930.181 147.579C926.984 146.636 923.809 145.721 920.657 144.837L919.576 148.688ZM938.662 154.315C941.888 155.309 945.136 156.331 948.404 157.378L949.625 153.569C946.343 152.517 943.081 151.491 939.84 150.492L938.662 154.315ZM957.721 160.416C960.837 161.448 963.97 162.503 967.119 163.578L968.412 159.793C965.252 158.714 962.107 157.655 958.979 156.619L957.721 160.416ZM976.612 166.866C979.792 167.982 982.986 169.117 986.195 170.272L987.549 166.508C984.331 165.35 981.127 164.211 977.937 163.091L976.612 166.866ZM995.448 173.638C998.541 174.775 1001.65 175.929 1004.76 177.097L1006.17 173.352C1003.04 172.18 999.93 171.024 996.829 169.884L995.448 173.638ZM1014.14 180.646C1017.27 181.844 1020.42 183.056 1023.57 184.281L1025.02 180.552C1021.86 179.324 1018.71 178.11 1015.57 176.91L1014.14 180.646ZM1032.83 187.902C1035.9 189.113 1038.98 190.336 1042.07 191.57L1043.55 187.855C1040.46 186.619 1037.37 185.394 1034.29 184.18L1032.83 187.902ZM1051.35 195.301C1054.45 196.555 1057.56 197.819 1060.67 199.091L1062.18 195.389C1059.07 194.114 1055.96 192.849 1052.85 191.593L1051.35 195.301ZM1069.93 202.898C1072.99 204.164 1076.06 205.437 1079.13 206.717L1080.67 203.025C1077.59 201.744 1074.52 200.469 1071.45 199.201L1069.93 202.898ZM1088.34 210.577C1091.42 211.87 1094.49 213.168 1097.57 214.472L1099.13 210.789C1096.05 209.484 1092.97 208.184 1089.89 206.889L1088.34 210.577ZM1106.8 218.396C1109.87 219.702 1112.93 221.011 1115.99 222.325L1117.57 218.648C1114.5 217.334 1111.44 216.023 1108.37 214.716L1106.8 218.396ZM1125.18 226.274C1128.24 227.593 1131.3 228.915 1134.36 230.239L1135.95 226.568C1132.89 225.243 1129.82 223.921 1126.76 222.6L1125.18 226.274ZM1143.53 234.214C1146.59 235.547 1149.66 236.88 1152.72 238.214L1154.32 234.546C1151.26 233.212 1148.19 231.878 1145.12 230.545L1143.53 234.214ZM1161.91 242.221C1164.97 243.556 1168.03 244.891 1171.08 246.224L1172.68 242.558C1169.63 241.225 1166.57 239.89 1163.51 238.555L1161.91 242.221ZM1180.21 250.218C1183.27 251.555 1186.33 252.891 1189.37 254.223L1190.98 250.558C1187.93 249.226 1184.88 247.89 1181.82 246.553L1180.21 250.218ZM1198.61 258.258C1201.68 259.599 1204.74 260.936 1207.79 262.268L1209.39 258.601C1206.34 257.27 1203.28 255.933 1200.21 254.592L1198.61 258.258ZM1216.93 266.247C1219.96 267.569 1222.99 268.885 1226.01 270.195L1227.61 266.525C1224.59 265.216 1221.56 263.901 1218.52 262.579L1216.93 266.247ZM1235.32 274.223C1238.41 275.558 1241.49 276.885 1244.56 278.202L1246.14 274.526C1243.07 273.21 1240 271.885 1236.91 270.551L1235.32 274.223ZM1253.72 282.124C1256.76 283.422 1259.79 284.709 1262.8 285.986L1264.36 282.303C1261.35 281.028 1258.33 279.742 1255.29 278.446L1253.72 282.124ZM1272.16 289.936C1275.28 291.248 1278.39 292.546 1281.47 293.829L1283.01 290.135C1279.93 288.854 1276.83 287.558 1273.71 286.249L1272.16 289.936ZM1290.67 297.634C1293.72 298.887 1296.75 300.124 1299.76 301.345L1301.26 297.638C1298.26 296.42 1295.24 295.185 1292.19 293.934L1290.67 297.634ZM1309.25 305.164C1312.4 306.424 1315.53 307.664 1318.64 308.883L1320.1 305.159C1317 303.944 1313.88 302.707 1310.73 301.449L1309.25 305.164ZM1327.88 312.471C1330.98 313.662 1334.05 314.829 1337.09 315.971L1338.5 312.226C1335.47 311.088 1332.4 309.925 1329.31 308.737L1327.88 312.471ZM1346.75 319.546C1349.93 320.708 1353.08 321.839 1356.2 322.938L1357.53 319.166C1354.43 318.072 1351.29 316.945 1348.12 315.788L1346.75 319.546ZM1365.42 326.135C1368.71 327.252 1371.95 328.328 1375.14 329.363L1376.37 325.557C1373.2 324.529 1369.98 323.459 1366.71 322.348L1365.42 326.135ZM1384.83 332.414C1388 333.385 1391.13 334.31 1394.2 335.186L1395.3 331.339C1392.25 330.471 1389.15 329.553 1386 328.589L1384.83 332.414ZM1404.06 337.873C1407.43 338.747 1410.73 339.553 1413.95 340.289L1414.84 336.39C1411.66 335.663 1408.4 334.866 1405.07 334.001L1404.06 337.873ZM1423.39 342.281C1426.96 342.97 1430.43 343.558 1433.79 344.038L1434.36 340.079C1431.07 339.608 1427.66 339.031 1424.14 338.353L1423.39 342.281ZM1443.63 345.16C1447.24 345.456 1450.69 345.602 1453.97 345.586L1453.95 341.586C1450.8 341.601 1447.46 341.461 1443.96 341.173L1443.63 345.16ZM1463.99 344.965C1467.7 344.492 1471.14 343.74 1474.3 342.683L1473.03 338.89C1470.16 339.851 1466.97 340.551 1463.48 340.997L1463.99 344.965ZM1483.52 338.132C1486.5 336.043 1489.02 333.487 1491.02 330.438L1487.68 328.241C1485.96 330.852 1483.81 333.046 1481.22 334.856L1483.52 338.132ZM1495.14 321.027C1495.98 317.872 1496.46 314.412 1496.58 310.644L1492.58 310.516C1492.47 314.026 1492.03 317.18 1491.28 320.001L1495.14 321.027ZM1496.13 300.565C1495.77 297.327 1495.2 293.901 1494.42 290.282L1490.51 291.123C1491.26 294.628 1491.81 297.921 1492.15 301.01L1496.13 300.565ZM1492.06 280.924C1491.13 277.669 1490.05 274.277 1488.83 270.743L1485.05 272.054C1486.25 275.525 1487.31 278.847 1488.21 282.024L1492.06 280.924ZM1485.43 261.579C1484.3 258.68 1483.07 255.695 1481.76 252.622L1478.08 254.197C1479.38 257.234 1480.59 260.18 1481.71 263.038L1485.43 261.579ZM1477.53 243.138C1476.1 240.041 1474.59 236.863 1472.99 233.602L1469.4 235.363C1470.98 238.598 1472.49 241.748 1473.9 244.815L1477.53 243.138ZM1468.81 225.269C1467.35 222.433 1465.84 219.538 1464.26 216.584L1460.73 218.466C1462.3 221.402 1463.8 224.278 1465.25 227.094L1468.81 225.269ZM1459.35 207.542C1457.65 204.468 1455.89 201.333 1454.07 198.137L1450.59 200.12C1452.41 203.301 1454.16 206.419 1455.85 209.477L1459.35 207.542ZM1449.31 189.91C1447.73 187.212 1446.11 184.472 1444.45 181.691L1441.01 183.744C1442.67 186.515 1444.29 189.243 1445.86 191.93L1449.31 189.91ZM1439.33 173.22C1437.57 170.354 1435.78 167.446 1433.94 164.495L1430.55 166.609C1432.38 169.551 1434.17 172.449 1435.91 175.305L1439.33 173.22ZM1428.3 155.512C1427.34 153.993 1426.36 152.463 1425.38 150.923L1422.01 153.077C1422.99 154.614 1423.96 156.139 1424.92 157.654L1428.3 155.512ZM1425.38 150.923C1424.45 149.467 1423.51 148.023 1422.58 146.59L1419.23 148.772C1420.16 150.195 1421.08 151.631 1422.01 153.077L1425.38 150.923ZM1416.98 138.133C1415.11 135.36 1413.24 132.633 1411.37 129.952L1408.09 132.241C1409.95 134.905 1411.81 137.614 1413.67 140.368L1416.98 138.133ZM1405.51 121.707C1403.51 118.948 1401.51 116.241 1399.51 113.585L1396.31 115.992C1398.3 118.628 1400.28 121.315 1402.27 124.054L1405.51 121.707ZM1393.51 105.769C1391.37 103.043 1389.24 100.374 1387.1 97.7623L1384 100.294C1386.12 102.884 1388.24 105.531 1390.36 108.235L1393.51 105.769ZM1380.69 90.0897C1378.49 87.5038 1376.28 84.9782 1374.08 82.5125L1371.1 85.1777C1373.28 87.6205 1375.46 90.1232 1377.65 92.6864L1380.69 90.0897ZM1367.25 75.049C1364.95 72.5985 1362.65 70.2128 1360.36 67.8912L1357.51 70.701C1359.78 72.9982 1362.05 75.3595 1364.33 77.7857L1367.25 75.049ZM1353.09 60.7206C1350.67 58.4019 1348.25 56.1545 1345.85 53.9775L1343.16 56.944C1345.54 59.0947 1347.93 61.3159 1350.32 63.6085L1353.09 60.7206ZM1338.13 47.2201C1335.57 45.0436 1333.01 42.9474 1330.46 40.9304L1327.98 44.0667C1330.49 46.0552 1333.01 48.1231 1335.55 50.2712L1338.13 47.2201ZM1322.31 34.7204C1319.58 32.724 1316.87 30.8188 1314.17 29.0036L1311.94 32.3221C1314.59 34.107 1317.26 35.9818 1319.95 37.9477L1322.31 34.7204ZM1305.55 23.4734C1302.63 21.6912 1299.73 20.0159 1296.85 18.446L1294.93 21.958C1297.75 23.4961 1300.6 25.1391 1303.47 26.8886L1305.55 23.4734ZM1287.83 13.8355C1284.69 12.3389 1281.59 10.9697 1278.51 9.72591L1277.01 13.4337C1280.01 14.6463 1283.04 15.9828 1286.11 17.4458L1287.83 13.8355ZM1269.06 6.25772C1265.75 5.17078 1262.49 4.23363 1259.27 3.44366L1258.32 7.32816C1261.43 8.09289 1264.6 9.00161 1267.81 10.0579L1269.06 6.25772ZM1249.24 1.42852C1245.79 0.894457 1242.41 0.537938 1239.1 0.355554L1238.88 4.3495C1242.05 4.52438 1245.31 4.86667 1248.63 5.38136L1249.24 1.42852ZM1228.89 0.353579C1225.41 0.552011 1222.02 0.95799 1218.73 1.56688L1219.46 5.50006C1222.58 4.92282 1225.8 4.5363 1229.12 4.34711L1228.89 0.353579ZM1208.78 4.12969C1205.47 5.23621 1202.3 6.57196 1199.26 8.13025L1201.09 11.6889C1203.94 10.2243 1206.93 8.96645 1210.05 7.92283L1208.78 4.12969ZM1190.47 13.5474C1187.7 15.5704 1185.09 17.8116 1182.64 20.2626L1185.47 23.0888C1187.77 20.7831 1190.23 18.6772 1192.83 16.7776L1190.47 13.5474ZM1175.93 28.0694C1173.93 30.7762 1172.09 33.6627 1170.41 36.7214L1173.92 38.643C1175.51 35.7382 1177.25 33.0049 1179.15 30.4481L1175.93 28.0694ZM1166.06 45.9855C1164.83 49.0795 1163.74 52.3114 1162.8 55.6757L1166.66 56.7472C1167.56 53.5165 1168.6 50.4215 1169.78 47.4664L1166.06 45.9855ZM1160.55 65.6624C1159.96 68.9345 1159.51 72.3114 1159.19 75.7892L1163.18 76.1549C1163.49 72.7847 1163.92 69.5191 1164.48 66.3615L1160.55 65.6624ZM1158.65 85.8532C1158.59 89.1589 1158.64 92.5442 1158.81 96.0063L1162.8 95.8146C1162.64 92.4375 1162.59 89.1403 1162.65 85.9254L1158.65 85.8532ZM1159.6 106.201C1159.95 109.446 1160.4 112.75 1160.94 116.113L1164.89 115.477C1164.36 112.181 1163.92 108.945 1163.58 105.772L1159.6 106.201ZM1162.81 126.123C1163.49 129.338 1164.25 132.601 1165.1 135.912L1168.98 134.915C1168.14 131.659 1167.39 128.453 1166.72 125.296L1162.81 126.123ZM1167.82 145.642C1168.77 148.809 1169.8 152.015 1170.91 155.26L1174.69 153.968C1173.6 150.768 1172.59 147.609 1171.65 144.49L1167.82 145.642ZM1174.32 164.723C1175.5 167.817 1176.75 170.944 1178.06 174.103L1181.75 172.564C1180.45 169.444 1179.22 166.356 1178.06 163.302L1174.32 164.723ZM1182.08 183.336C1183.44 186.343 1184.86 189.376 1186.34 192.436L1189.94 190.687C1188.47 187.661 1187.06 184.66 1185.72 181.688L1182.08 183.336ZM1190.89 201.488C1192.4 204.398 1193.97 207.329 1195.59 210.282L1199.1 208.354C1197.49 205.429 1195.94 202.526 1194.44 199.646L1190.89 201.488ZM1200.64 219.205C1202.27 222.013 1203.96 224.839 1205.7 227.683L1209.11 225.598C1207.39 222.779 1205.72 219.977 1204.1 217.195L1200.64 219.205ZM1211.06 236.265C1211.98 237.704 1212.92 239.148 1213.86 240.595L1217.21 238.405C1216.27 236.969 1215.34 235.537 1214.43 234.11L1211.06 236.265ZM1213.86 240.595C1214.76 241.968 1215.65 243.346 1216.52 244.731L1219.9 242.603C1219.02 241.198 1218.12 239.798 1217.21 238.405L1213.86 240.595ZM1221.56 253.102C1223.2 255.933 1224.78 258.785 1226.3 261.655L1229.84 259.78C1228.29 256.867 1226.69 253.973 1225.03 251.1L1221.56 253.102ZM1230.73 270.369C1232.16 273.31 1233.53 276.27 1234.85 279.245L1238.51 277.625C1237.17 274.607 1235.78 271.605 1234.33 268.621L1230.73 270.369ZM1238.65 288.247C1239.87 291.282 1241.04 294.331 1242.15 297.392L1245.91 296.027C1244.78 292.923 1243.6 289.832 1242.36 286.754L1238.65 288.247ZM1245.33 306.631C1246.34 309.743 1247.3 312.865 1248.21 315.996L1252.05 314.882C1251.13 311.71 1250.16 308.546 1249.13 305.392L1245.33 306.631ZM1250.78 325.421C1251.59 328.595 1252.35 331.775 1253.06 334.959L1256.96 334.092C1256.25 330.867 1255.48 327.646 1254.66 324.431L1250.78 325.421ZM1255.03 344.535C1255.64 347.753 1256.2 350.973 1256.71 354.193L1260.66 353.567C1260.14 350.308 1259.57 347.048 1258.96 343.79L1255.03 344.535ZM1258.09 363.879C1258.51 367.127 1258.87 370.373 1259.19 373.614L1263.17 373.224C1262.85 369.944 1262.48 366.66 1262.06 363.372L1258.09 363.879ZM1260 383.376C1260.23 386.641 1260.4 389.899 1260.53 393.148L1264.53 392.989C1264.4 389.702 1264.22 386.406 1263.99 383.102L1260 383.376ZM1260.78 402.953C1260.82 406.222 1260.81 409.479 1260.76 412.722L1264.76 412.79C1264.81 409.51 1264.82 406.215 1264.78 402.908L1260.78 402.953ZM1260.45 422.542C1260.3 425.813 1260.11 429.067 1259.87 432.3L1263.86 432.593C1264.1 429.323 1264.3 426.032 1264.45 422.723L1260.45 422.542ZM1259.01 442.075C1258.68 445.343 1258.3 448.587 1257.88 451.805L1261.84 452.325C1262.27 449.07 1262.65 445.788 1262.99 442.482L1259.01 442.075ZM1256.47 461.478C1255.94 464.735 1255.37 467.961 1254.76 471.153L1258.69 471.904C1259.31 468.674 1259.88 465.409 1260.41 462.112L1256.47 461.478ZM1252.79 480.709C1252.07 483.932 1251.31 487.114 1250.5 490.254L1254.38 491.245C1255.19 488.065 1255.96 484.842 1256.69 481.578L1252.79 480.709ZM1247.92 499.706C1247.01 502.854 1246.05 505.953 1245.05 508.997L1248.85 510.244C1249.86 507.156 1250.83 504.014 1251.76 500.823L1247.92 499.706ZM1241.81 518.287C1240.67 521.391 1239.48 524.43 1238.25 527.399L1241.95 528.928C1243.2 525.909 1244.41 522.822 1245.57 519.671L1241.81 518.287ZM1234.36 536.301C1232.96 539.315 1231.52 542.246 1230.04 545.086L1233.59 546.934C1235.1 544.036 1236.57 541.051 1237.99 537.982L1234.36 536.301ZM1225.31 553.644C1223.62 556.505 1221.9 559.254 1220.13 561.886L1223.46 564.113C1225.27 561.413 1227.03 558.597 1228.75 555.672L1225.31 553.644ZM1214.48 569.751C1212.45 572.373 1210.38 574.843 1208.28 577.152L1211.23 579.846C1213.42 577.452 1215.55 574.9 1217.64 572.198L1214.48 569.751ZM1201.46 583.962C1198.99 586.186 1196.49 588.191 1193.96 589.966L1196.25 593.241C1198.93 591.365 1201.56 589.257 1204.14 586.932L1201.46 583.962ZM1185.76 594.852C1182.83 596.293 1179.88 597.423 1176.91 598.228L1177.96 602.089C1181.19 601.211 1184.38 599.987 1187.52 598.44L1185.76 594.852ZM1167.65 599.67C1164.56 599.792 1161.46 599.552 1158.35 598.929L1157.56 602.852C1160.98 603.536 1164.4 603.801 1167.81 603.667L1167.65 599.67ZM1149.42 596.076C1146.67 594.864 1143.92 593.334 1141.16 591.468L1138.92 594.779C1141.86 596.771 1144.82 598.421 1147.81 599.736L1149.42 596.076ZM1133.69 585.554C1132.5 584.471 1131.31 583.322 1130.12 582.104L1127.26 584.897C1128.5 586.17 1129.75 587.375 1131 588.514L1133.69 585.554Z" fill="#07A0C3"/>
<g clip-path="url(#clip1_155_1082)">
<path d="M1115.45 574.956C1113.99 573.398 1112.76 569.446 1114.36 567.949C1116 566.409 1119.82 567.923 1121.28 569.482L1124.12 572.504L1137.29 570.3C1137.95 570.188 1138.62 570.417 1139.08 570.905L1141.5 573.489C1141.97 573.986 1141.81 574.794 1141.19 575.084L1130.96 579.796L1134.38 583.442L1138.86 582.947C1139.17 582.913 1139.48 583.029 1139.7 583.257L1141.49 585.171C1141.83 585.526 1141.8 586.078 1141.45 586.408C1141.39 586.463 1141.33 586.51 1141.25 586.552L1134.89 589.825L1131.22 595.969C1131.18 596.043 1131.12 596.103 1131.06 596.159C1130.71 596.492 1130.15 596.47 1129.82 596.12L1128.03 594.205C1127.81 593.978 1127.72 593.656 1127.77 593.348L1128.55 588.916L1125.13 585.27L1119.78 595.177C1119.45 595.777 1118.63 595.883 1118.17 595.387L1115.74 592.802C1115.28 592.315 1115.1 591.632 1115.25 590.983L1118.29 577.978L1115.45 574.956Z" fill="#07A0C3"/>
</g>
</g>
<defs>
<clipPath id="clip0_155_1082">
<rect width="32" height="32" fill="white" transform="translate(661.055 569.294) rotate(7.30694)"/>
</clipPath>
<clipPath id="clip1_155_1082">
<rect width="32" height="32" fill="white" transform="translate(1102.69 578.897) rotate(-43.1803)"/>
</clipPath>
</defs>
</svg>
