<svg width="211" height="151" viewBox="0 0 211 151" fill="none" xmlns="http://www.w3.org/2000/svg">
<g clip-path="url(#clip0_131_608)">
<path d="M209.711 139.892C209.688 139.954 209.641 140.004 209.582 140.031C209.522 140.059 209.454 140.061 209.392 140.038L12.3439 66.7156C12.2824 66.6925 12.2326 66.6461 12.2054 66.5863C12.1781 66.5266 12.1757 66.4585 12.1985 66.3969C12.2214 66.3354 12.2678 66.2855 12.3275 66.2581C12.3872 66.2307 12.4553 66.2281 12.5169 66.2508L209.565 139.574C209.626 139.597 209.676 139.643 209.704 139.703C209.731 139.763 209.734 139.831 209.711 139.892Z" fill="#F2F2F2"/>
<path d="M104.745 0.5H57.7913C54.108 0.504168 50.5768 1.96918 47.9724 4.57364C45.3679 7.1781 43.9029 10.7093 43.8987 14.3926V18.6366C43.8024 18.6101 43.7012 18.6063 43.6031 18.6256C43.505 18.6449 43.4128 18.6868 43.3336 18.7478C43.2545 18.8089 43.1907 18.8875 43.1471 18.9775C43.1036 19.0675 43.0816 19.1663 43.0828 19.2663V22.53C43.0816 22.6299 43.1036 22.7288 43.1471 22.8188C43.1907 22.9087 43.2545 22.9874 43.3336 23.0484C43.4128 23.1095 43.505 23.1513 43.6031 23.1706C43.7012 23.1899 43.8024 23.1862 43.8987 23.1597V28.1014C43.8024 28.0748 43.7012 28.0711 43.6031 28.0904C43.505 28.1097 43.4128 28.1515 43.3336 28.2126C43.2545 28.2736 43.1906 28.3522 43.1471 28.4422C43.1036 28.5322 43.0816 28.6311 43.0828 28.731V36.8903C43.0816 36.9902 43.1036 37.0891 43.1471 37.1791C43.1906 37.269 43.2545 37.3477 43.3336 37.4087C43.4128 37.4698 43.505 37.5116 43.6031 37.5309C43.7012 37.5502 43.8024 37.5465 43.8987 37.5199V40.5034C43.8024 40.4769 43.7012 40.4731 43.6031 40.4924C43.505 40.5117 43.4128 40.5535 43.3336 40.6146C43.2545 40.6757 43.1906 40.7543 43.1471 40.8443C43.1036 40.9343 43.0816 41.0331 43.0828 41.1331V49.2923C43.0816 49.3923 43.1036 49.4911 43.1471 49.5811C43.1906 49.6711 43.2545 49.7497 43.3336 49.8108C43.4128 49.8719 43.505 49.9137 43.6031 49.933C43.7012 49.9523 43.8024 49.9485 43.8987 49.922V136.085C43.9029 139.768 45.3679 143.299 47.9724 145.904C50.5768 148.508 54.108 149.973 57.7913 149.977H104.745C108.428 149.973 111.959 148.508 114.564 145.904C117.168 143.299 118.633 139.768 118.637 136.085V14.3926C118.633 10.7093 117.168 7.1781 114.564 4.57364C111.959 1.96918 108.428 0.504168 104.745 0.5ZM115.7 136.085C115.697 138.989 114.542 141.774 112.488 143.828C110.434 145.882 107.649 147.037 104.745 147.04H57.7913C54.8868 147.037 52.1022 145.882 50.0484 143.828C47.9946 141.774 46.8394 138.989 46.8361 136.085V14.3926C46.8394 11.4881 47.9946 8.70347 50.0484 6.64968C52.1022 4.59589 54.8868 3.44062 57.7913 3.43733H104.745C107.649 3.44062 110.434 4.59589 112.488 6.64968C114.542 8.70347 115.697 11.4881 115.7 14.3926V136.085Z" fill="#1E1E1E"/>
<path d="M104.745 148.672H57.7913C54.4542 148.668 51.2548 147.341 48.8951 144.981C46.5354 142.621 45.208 139.422 45.2042 136.085V14.3925C45.208 11.0554 46.5354 7.85599 48.8951 5.49627C51.2548 3.13656 54.4542 1.80921 57.7913 1.80542H104.745C108.082 1.80921 111.281 3.13656 113.641 5.49627C116.001 7.85598 117.328 11.0554 117.332 14.3925V136.085C117.328 139.422 116.001 142.621 113.641 144.981C111.281 147.341 108.082 148.668 104.745 148.672Z" fill="#E6E6E6"/>
<path d="M105.905 146.714H56.631C54.3802 146.711 52.2224 145.816 50.6308 144.224C49.0393 142.633 48.144 140.475 48.1415 138.224V12.2531C48.144 10.0024 49.0393 7.84452 50.6308 6.253C52.2223 4.66147 54.3802 3.76623 56.6309 3.76368H63.0568C63.4288 3.76411 63.7855 3.91208 64.0485 4.17513C64.3116 4.43818 64.4596 4.79484 64.46 5.16685C64.4612 6.26583 64.8983 7.31944 65.6754 8.09654C66.4525 8.87363 67.5061 9.31074 68.6051 9.31197H93.2782C94.3772 9.31074 95.4308 8.87363 96.2079 8.09654C96.985 7.31944 97.4221 6.26582 97.4233 5.16684C97.4238 4.79483 97.5717 4.43818 97.8348 4.17513C98.0978 3.91207 98.4544 3.7641 98.8265 3.76367H105.905C108.156 3.76622 110.314 4.66146 111.905 6.25299C113.497 7.84451 114.392 10.0024 114.395 12.2531V138.224C114.392 140.475 113.497 142.633 111.905 144.224C110.314 145.816 108.156 146.711 105.905 146.714Z" fill="white"/>
<path d="M83.3895 6.61945H77.5148C77.3417 6.61945 77.1757 6.55068 77.0532 6.42826C76.9308 6.30585 76.8621 6.13982 76.8621 5.96671C76.8621 5.79359 76.9308 5.62756 77.0532 5.50515C77.1757 5.38273 77.3417 5.31396 77.5148 5.31396H83.3895C83.5626 5.31396 83.7286 5.38273 83.851 5.50515C83.9734 5.62756 84.0422 5.79359 84.0422 5.96671C84.0422 6.13982 83.9734 6.30585 83.851 6.42826C83.7286 6.55068 83.5626 6.61945 83.3895 6.61945Z" fill="white"/>
<path d="M87.4691 6.45621C87.6493 6.45621 87.7954 6.31009 87.7954 6.12984C87.7954 5.94959 87.6493 5.80347 87.4691 5.80347C87.2888 5.80347 87.1427 5.94959 87.1427 6.12984C87.1427 6.31009 87.2888 6.45621 87.4691 6.45621Z" fill="white"/>
<path d="M115.982 29.2604H46.4893V30.0042H115.982V29.2604Z" fill="#E6E6E6"/>
<path d="M115.982 44.1364H46.4893V44.8802H115.982V44.1364Z" fill="#E6E6E6"/>
<path d="M115.982 74.8801H46.4893V75.6239H115.982V74.8801Z" fill="#E6E6E6"/>
<path d="M115.982 105.624H46.4893V106.368H115.982V105.624Z" fill="#E6E6E6"/>
<path d="M115.982 129.674H46.4893V130.417H115.982V129.674Z" fill="#E6E6E6"/>
<path d="M96.9566 29.6322H96.2128V75.252H96.9566V29.6322Z" fill="#E6E6E6"/>
<path d="M62.1678 75.2388H61.424V130.045H62.1678V75.2388Z" fill="#E6E6E6"/>
<path d="M114.395 90.2726H61.7958V91.0164H114.395V90.2726Z" fill="#E6E6E6"/>
<path d="M97.0365 130.045H96.2927V146.714H97.0365V130.045Z" fill="#E6E6E6"/>
<path d="M96.4607 59.8129H48.0176V60.5567H96.4607V59.8129Z" fill="#E6E6E6"/>
<path d="M58.1343 3.29378L57.4481 3.58093L68.4104 29.7758L69.0966 29.4887L58.1343 3.29378Z" fill="#E6E6E6"/>
<path d="M91.8964 9.31189H91.1526V29.6322H91.8964V9.31189Z" fill="#E6E6E6"/>
<path d="M111.076 40.9132C111.076 47.5778 100.772 63.1073 97.7608 67.5033C97.6699 67.6362 97.548 67.7449 97.4057 67.8201C97.2633 67.8952 97.1047 67.9345 96.9438 67.9345C96.7828 67.9345 96.6242 67.8952 96.4818 67.8201C96.3395 67.7449 96.2176 67.6362 96.1267 67.5033C93.1155 63.1073 82.8115 47.5778 82.8115 40.9132C82.8115 37.1651 84.3004 33.5705 86.9508 30.9202C89.6011 28.2699 93.1957 26.781 96.9438 26.781C100.692 26.781 104.286 28.2699 106.937 30.9202C109.587 33.5705 111.076 37.1651 111.076 40.9132Z" fill="#07A0C3"/>
<path d="M96.9439 47.1116C100.915 47.1116 104.134 43.8925 104.134 39.9215C104.134 35.9506 100.915 32.7314 96.9439 32.7314C92.9729 32.7314 89.7538 35.9506 89.7538 39.9215C89.7538 43.8925 92.9729 47.1116 96.9439 47.1116Z" fill="white"/>
<path d="M96.4728 75.4659L69.2432 129.871L69.9083 130.203L97.1379 75.7988L96.4728 75.4659Z" fill="#E6E6E6"/>
<path d="M135.688 87.4331C136.009 87.6057 136.364 87.7058 136.728 87.7263C137.092 87.7469 137.456 87.6874 137.794 87.5521C138.133 87.4167 138.437 87.2088 138.687 86.943C138.936 86.6772 139.124 86.36 139.238 86.0136L148.096 85.8605L145.496 82.0613L137.482 82.7892C136.888 82.637 136.258 82.7083 135.712 82.9893C135.167 83.2704 134.744 83.7419 134.522 84.3143C134.301 84.8867 134.298 85.5204 134.513 86.0952C134.727 86.67 135.146 87.146 135.688 87.4331Z" fill="#FFB8B8"/>
<path d="M141.006 87.3225C140.869 87.3225 140.733 87.2947 140.607 87.2408C140.48 87.1868 140.366 87.1079 140.271 87.0087C140.176 86.9095 140.103 86.7922 140.054 86.6637C140.006 86.5352 139.984 86.3982 139.99 86.261L140.169 82.1989C140.179 81.9571 140.275 81.7267 140.44 81.5496C140.605 81.3725 140.828 81.2605 141.069 81.2338L151.331 80.0569L150.987 86.8259L141.056 87.3211C141.039 87.322 141.023 87.3225 141.006 87.3225Z" fill="#07A0C3"/>
<path d="M153.504 143.001L150.615 143.945L145.6 133.249L149.865 131.856L153.504 143.001Z" fill="#FFB8B8"/>
<path d="M155.156 145.561L145.839 148.604L145.801 148.486C145.645 148.01 145.585 147.508 145.624 147.008C145.662 146.509 145.799 146.022 146.026 145.575C146.252 145.129 146.565 144.731 146.945 144.405C147.326 144.079 147.767 143.831 148.243 143.676L153.933 141.817L155.156 145.561Z" fill="#101010"/>
<path d="M162.015 147.474L158.975 147.474L157.529 135.75L162.016 135.75L162.015 147.474Z" fill="#FFB8B8"/>
<path d="M162.79 150.421L152.989 150.42V150.296C152.989 149.795 153.088 149.299 153.28 148.836C153.471 148.374 153.752 147.953 154.107 147.599C154.461 147.245 154.881 146.964 155.344 146.772C155.807 146.58 156.303 146.482 156.804 146.482H156.804L162.79 146.482L162.79 150.421Z" fill="#101010"/>
<path d="M157.398 144.621C157.15 144.62 156.91 144.529 156.724 144.364C156.538 144.199 156.419 143.972 156.39 143.725L152.471 110.962L146.734 120.171L153.465 137.371C153.557 137.609 153.556 137.873 153.464 138.11C153.371 138.347 153.193 138.542 152.965 138.655L147.255 141.449C147.125 141.513 146.983 141.548 146.838 141.552C146.692 141.556 146.548 141.529 146.415 141.473C146.281 141.417 146.161 141.333 146.062 141.226C145.964 141.12 145.889 140.993 145.844 140.856L139.516 121.738C139.039 120.299 138.977 118.755 139.336 117.283L143.428 100.492L143.475 100.466L152.698 95.4142L152.751 95.4336L163.613 99.3978L162.476 120.923L163.302 143.264C163.313 143.529 163.219 143.788 163.041 143.985C162.863 144.182 162.614 144.301 162.349 144.316L157.462 144.619C157.441 144.62 157.419 144.621 157.398 144.621Z" fill="#101010"/>
<path d="M151.415 106.872C149.792 106.872 148.425 106.41 147.57 105.235L147.542 105.197L148.096 99.3894L143.173 102.122C143.071 102.179 142.954 102.203 142.838 102.191C142.722 102.179 142.612 102.131 142.524 102.055C142.435 101.979 142.373 101.877 142.344 101.764C142.315 101.651 142.322 101.532 142.363 101.423L148.502 85.1187L152.556 71.8375C152.757 70.7745 153.276 69.7977 154.044 69.0363C154.813 68.2749 155.795 67.765 156.859 67.5739C160.47 66.9106 162.621 68.1291 165.105 70.833C165.705 71.4909 166.148 72.2774 166.398 73.1323C166.648 73.9873 166.7 74.8881 166.549 75.766L164.2 89.1943L164.89 101.234C164.943 101.442 164.929 101.661 164.85 101.86C164.77 102.059 164.63 102.227 164.449 102.342C162.529 103.564 156.641 106.872 151.415 106.872Z" fill="#07A0C3"/>
<path d="M159.631 65.5631C162.994 65.5631 165.72 62.8367 165.72 59.4735C165.72 56.1104 162.994 53.384 159.631 53.384C156.268 53.384 153.541 56.1104 153.541 59.4735C153.541 62.8367 156.268 65.5631 159.631 65.5631Z" fill="#FFB8B8"/>
<path d="M161.217 102.881C161.548 102.729 161.842 102.507 162.078 102.229C162.314 101.951 162.486 101.625 162.583 101.273C162.679 100.922 162.697 100.553 162.635 100.194C162.574 99.8349 162.434 99.4935 162.227 99.194L167.449 92.037L162.85 91.8188L158.596 98.6487C158.116 99.031 157.793 99.5761 157.688 100.181C157.583 100.785 157.703 101.407 158.026 101.929C158.35 102.451 158.853 102.836 159.441 103.011C160.029 103.187 160.661 103.141 161.217 102.881Z" fill="#FFB8B8"/>
<path d="M164.045 98.8425C163.791 98.8787 163.531 98.8171 163.32 98.6699L159.863 96.2589C159.655 96.1151 159.508 95.8987 159.452 95.6523C159.396 95.4059 159.433 95.1473 159.558 94.9274L165.713 83.9759L159.523 76.524C159.197 76.1327 158.957 75.6779 158.818 75.1888C158.678 74.6996 158.641 74.1867 158.711 73.6827C158.78 73.1787 158.954 72.6946 159.22 72.2613C159.487 71.828 159.841 71.4549 160.259 71.1658C160.678 70.8767 161.152 70.678 161.652 70.5822C162.151 70.4864 162.665 70.4956 163.161 70.6094C163.657 70.7231 164.124 70.9388 164.532 71.2428C164.94 71.5468 165.28 71.9324 165.531 72.375L172.366 84.4397C172.415 84.5256 172.44 84.6226 172.44 84.7212C172.44 84.8198 172.415 84.9167 172.366 85.0025L164.785 98.3384C164.715 98.4613 164.621 98.5682 164.507 98.6524C164.393 98.7366 164.264 98.7963 164.126 98.8276C164.099 98.8339 164.072 98.8387 164.045 98.8425Z" fill="#07A0C3"/>
<path d="M157.197 58.6961C156.594 58.2462 155.76 58.3164 155.046 58.0806C154.621 57.9402 154.24 57.6905 153.942 57.3565C153.644 57.0225 153.438 56.616 153.347 56.1777C153.255 55.7393 153.281 55.2847 153.42 54.8592C153.56 54.4338 153.809 54.0526 154.142 53.7537C154.914 53.0626 156.011 52.9058 157.039 52.7793C158.447 52.6061 159.869 52.4326 161.281 52.5703C162.693 52.7081 164.114 53.185 165.147 54.1585C166.285 55.2318 166.845 56.8296 166.849 58.3939C166.809 59.9655 166.378 61.5024 165.594 62.865C165.351 63.3828 164.986 63.8334 164.529 64.1776C164.054 64.4911 163.385 64.5732 162.928 64.2346C162.532 63.942 162.388 63.4293 162.209 62.971C162.03 62.5126 161.726 62.0245 161.239 61.9538C160.612 61.8627 160.134 62.5001 159.535 62.7087C158.699 63.0004 157.769 62.3552 157.428 61.5375C157.087 60.7199 157.177 59.7947 157.272 58.9139" fill="#101010"/>
<path d="M210.872 150.252C210.872 150.318 210.846 150.381 210.799 150.427C210.753 150.474 210.69 150.5 210.624 150.5H0.375986C0.310229 150.5 0.247166 150.474 0.20067 150.427C0.154173 150.381 0.128052 150.318 0.128052 150.252C0.128052 150.186 0.154173 150.123 0.20067 150.077C0.247166 150.03 0.310229 150.004 0.375986 150.004H210.624C210.69 150.004 210.753 150.031 210.799 150.077C210.846 150.123 210.872 150.186 210.872 150.252Z" fill="#CCCCCC"/>
<path d="M96.9438 78.3512C98.7239 78.3512 100.167 76.9081 100.167 75.128C100.167 73.348 98.7239 71.9049 96.9438 71.9049C95.1638 71.9049 93.7207 73.348 93.7207 75.128C93.7207 76.9081 95.1638 78.3512 96.9438 78.3512Z" fill="#07A0C3"/>
<path d="M142.321 39.8871C140.974 41.6811 135.064 43.7803 133.366 44.3554C133.314 44.3728 133.26 44.3775 133.206 44.3689C133.153 44.3604 133.102 44.339 133.059 44.3064C133.015 44.2739 132.981 44.2313 132.957 44.1823C132.934 44.1334 132.923 44.0795 132.926 44.0254C133.003 42.2338 133.366 35.9722 134.712 34.1782C135.469 33.1693 136.596 32.5024 137.845 32.3243C139.094 32.1462 140.362 32.4714 141.371 33.2285C142.38 33.9855 143.047 35.1123 143.225 36.3611C143.403 37.6098 143.078 38.8782 142.321 39.8871Z" fill="#F2F2F2"/>
<path d="M138.717 39.1854C140.053 39.1854 141.136 38.1021 141.136 36.7657C141.136 35.4293 140.053 34.3459 138.717 34.3459C137.38 34.3459 136.297 35.4293 136.297 36.7657C136.297 38.1021 137.38 39.1854 138.717 39.1854Z" fill="white"/>
<path d="M131.606 47.3275C132.205 47.3275 132.69 46.8419 132.69 46.2428C132.69 45.6437 132.205 45.1581 131.606 45.1581C131.007 45.1581 130.521 45.6437 130.521 46.2428C130.521 46.8419 131.007 47.3275 131.606 47.3275Z" fill="#F2F2F2"/>
<path d="M24.3455 89.0968C26.3263 92.1231 26.263 102.237 26.2022 105.128C26.2005 105.216 26.1774 105.301 26.1351 105.378C26.0928 105.454 26.0324 105.519 25.9593 105.567C25.8862 105.615 25.8026 105.644 25.7156 105.652C25.6286 105.661 25.541 105.648 25.4602 105.614C22.7863 104.513 13.4918 100.524 11.511 97.4974C10.9586 96.6547 10.5777 95.7114 10.3901 94.7214C10.2024 93.7314 10.2116 92.7142 10.4173 91.7277C10.6229 90.7413 11.0209 89.8051 11.5885 88.9726C12.1561 88.14 12.8822 87.4275 13.7252 86.8757C14.5683 86.3239 15.5119 85.9436 16.502 85.7566C17.4921 85.5695 18.5093 85.5794 19.4956 85.7857C20.4819 85.992 21.4178 86.3906 22.25 86.9587C23.0822 87.5268 23.7942 88.2534 24.3455 89.0968Z" fill="#F2F2F2"/>
<path d="M17.6334 96.7489C19.7885 96.7489 21.5356 95.0019 21.5356 92.8468C21.5356 90.6917 19.7885 88.9447 17.6334 88.9447C15.4784 88.9447 13.7313 90.6917 13.7313 92.8468C13.7313 95.0019 15.4784 96.7489 17.6334 96.7489Z" fill="white"/>
<path d="M28.0974 110.583C29.0634 110.583 29.8466 109.8 29.8466 108.834C29.8466 107.868 29.0634 107.084 28.0974 107.084C27.1313 107.084 26.3481 107.868 26.3481 108.834C26.3481 109.8 27.1313 110.583 28.0974 110.583Z" fill="#F2F2F2"/>
</g>
<defs>
<clipPath id="clip0_131_608">
<rect width="210.744" height="150" fill="white" transform="translate(0.128052 0.5)"/>
</clipPath>
</defs>
</svg>
