<svg width="270" height="151" viewBox="0 0 270 151" fill="none" xmlns="http://www.w3.org/2000/svg">
<g clip-path="url(#clip0_131_695)">
<path d="M70.7923 47.4893C79.3325 47.4893 86.2557 40.555 86.2557 32.0012C86.2557 23.4474 79.3325 16.5132 70.7923 16.5132C62.2522 16.5132 55.329 23.4474 55.329 32.0012C55.329 40.555 62.2522 47.4893 70.7923 47.4893Z" fill="#DD6E42"/>
<path d="M119.284 79.7296H43.4252C43.3302 79.7308 43.2353 79.7233 43.1417 79.7071L79.0192 17.4627C79.2382 17.075 79.556 16.7525 79.9401 16.5282C80.3242 16.3038 80.7609 16.1855 81.2056 16.1855C81.6503 16.1855 82.087 16.3038 82.4711 16.5282C82.8553 16.7525 83.173 17.075 83.392 17.4627L107.47 59.2335L108.624 61.2322L119.284 79.7296Z" fill="#1E1E1E"/>
<path opacity="0.2" d="M119.284 79.7295H93.3836L106.098 61.2321L107.013 59.8997L107.47 59.2336L108.624 61.2321L119.284 79.7295Z" fill="#1E1E1E"/>
<path d="M161.521 79.7296H95.9097L108.624 61.2322L109.539 59.8997L126.107 35.7942C127.193 34.2143 129.806 34.1159 131.083 35.4962C131.168 35.5903 131.248 35.6899 131.321 35.7942L161.521 79.7296Z" fill="#1E1E1E"/>
<path d="M180.781 69.4896C183.354 69.4896 185.44 67.4001 185.44 64.8226C185.44 62.245 183.354 60.1555 180.781 60.1555C178.207 60.1555 176.121 62.245 176.121 64.8226C176.121 67.4001 178.207 69.4896 180.781 69.4896Z" fill="#07A0C3"/>
<path d="M181.23 78.8801H180.275L180.71 64.1196L181.23 78.8801Z" fill="#1E1E1E"/>
<path d="M180.795 66.9172L181.819 65.4972L180.781 67.2686L180.668 67.0718L180.795 66.9172Z" fill="#1E1E1E"/>
<path d="M180.682 68.3508L179.658 66.9312L180.696 68.7023L180.809 68.5055L180.682 68.3508Z" fill="#1E1E1E"/>
<path d="M223.524 69.4896C226.097 69.4896 228.183 67.4001 228.183 64.8226C228.183 62.245 226.097 60.1555 223.524 60.1555C220.95 60.1555 218.864 62.245 218.864 64.8226C218.864 67.4001 220.95 69.4896 223.524 69.4896Z" fill="#07A0C3"/>
<path d="M223.973 78.8801H223.018L223.454 64.1196L223.973 78.8801Z" fill="#1E1E1E"/>
<path d="M223.538 66.9172L224.563 65.4972L223.524 67.2686L223.411 67.0718L223.538 66.9172Z" fill="#1E1E1E"/>
<path d="M223.426 68.3508L222.401 66.9312L223.44 68.7023L223.552 68.5055L223.426 68.3508Z" fill="#1E1E1E"/>
<path d="M194.279 65.0112C198.079 65.0112 201.161 61.9252 201.161 58.1183C201.161 54.3115 198.079 51.2255 194.279 51.2255C190.478 51.2255 187.397 54.3115 187.397 58.1183C187.397 61.9252 190.478 65.0112 194.279 65.0112Z" fill="#07A0C3"/>
<path d="M194.942 78.8801H193.532L194.175 57.0802L194.942 78.8801Z" fill="#1E1E1E"/>
<path d="M194.3 61.2117L195.813 59.115L194.279 61.731L194.113 61.4402L194.3 61.2117Z" fill="#1E1E1E"/>
<path d="M194.134 63.3294L192.62 61.2327L194.154 63.8483L194.32 63.5579L194.134 63.3294Z" fill="#1E1E1E"/>
<path d="M211.061 65.0112C214.862 65.0112 217.943 61.9252 217.943 58.1183C217.943 54.3115 214.862 51.2255 211.061 51.2255C207.261 51.2255 204.179 54.3115 204.179 58.1183C204.179 61.9252 207.261 65.0112 211.061 65.0112Z" fill="#07A0C3"/>
<path d="M211.725 78.8801H210.315L210.958 57.0802L211.725 78.8801Z" fill="#1E1E1E"/>
<path d="M211.082 61.2117L212.595 59.115L211.061 61.731L210.896 61.4402L211.082 61.2117Z" fill="#1E1E1E"/>
<path d="M210.916 63.3294L209.403 61.2327L210.937 63.8483L211.103 63.5579L210.916 63.3294Z" fill="#1E1E1E"/>
<path d="M167.531 65.0112C171.332 65.0112 174.413 61.9252 174.413 58.1183C174.413 54.3115 171.332 51.2255 167.531 51.2255C163.731 51.2255 160.65 54.3115 160.65 58.1183C160.65 61.9252 163.731 65.0112 167.531 65.0112Z" fill="#07A0C3"/>
<path d="M168.195 78.8801H166.785L167.428 57.0802L168.195 78.8801Z" fill="#1E1E1E"/>
<path d="M167.552 61.2117L169.065 59.115L167.531 61.731L167.366 61.4402L167.552 61.2117Z" fill="#1E1E1E"/>
<path d="M167.386 63.3294L165.873 61.2327L167.407 63.8483L167.573 63.5579L167.386 63.3294Z" fill="#1E1E1E"/>
<path d="M248.95 150.5H24.3647C21.5351 150.5 18.7332 149.942 16.119 148.857C13.5048 147.773 11.1295 146.183 9.12865 144.179C7.12783 142.175 5.54069 139.796 4.45785 137.177C3.37502 134.559 2.81769 131.753 2.81769 128.919C2.81769 126.084 3.37502 123.278 4.45785 120.66C5.54069 118.041 7.12783 115.662 9.12865 113.658C11.1295 111.654 13.5048 110.065 16.119 108.98C18.7332 107.895 21.5351 107.337 24.3647 107.337H248.453C250.651 107.337 252.759 106.463 254.313 104.906C255.867 103.349 256.74 101.238 256.74 99.0366C256.74 96.8352 255.867 94.7239 254.313 93.1672C252.759 91.6106 250.651 90.7361 248.453 90.7361H16.9061V77.4552H248.453C254.168 77.4552 259.648 79.729 263.689 83.7763C267.73 87.8236 270 93.3129 270 99.0366C270 104.76 267.73 110.25 263.689 114.297C259.648 118.344 254.168 120.618 248.453 120.618H24.3647C22.1667 120.618 20.0588 121.493 18.5047 123.049C16.9505 124.606 16.0774 126.717 16.0774 128.919C16.0774 131.12 16.9505 133.231 18.5047 134.788C20.0588 136.345 22.1667 137.219 24.3647 137.219H248.95V150.5Z" fill="#E6E6E6"/>
<path d="M35.4696 83.7637H25.1934V84.4277H35.4696V83.7637Z" fill="white"/>
<path d="M64.6409 83.7637H54.3646V84.4277H64.6409V83.7637Z" fill="white"/>
<path d="M93.8121 83.7637H83.5359V84.4277H93.8121V83.7637Z" fill="white"/>
<path d="M122.983 83.7637H112.707V84.4277H122.983V83.7637Z" fill="white"/>
<path d="M152.155 83.7637H141.878V84.4277H152.155V83.7637Z" fill="white"/>
<path d="M181.326 83.7637H171.05V84.4277H181.326V83.7637Z" fill="white"/>
<path d="M210.497 83.7637H200.221V84.4277H210.497V83.7637Z" fill="white"/>
<path d="M239.669 83.7637H229.392V84.4277H239.669V83.7637Z" fill="white"/>
<path d="M35.4696 113.646H25.1934V114.31H35.4696V113.646Z" fill="white"/>
<path d="M64.6409 113.646H54.3646V114.31H64.6409V113.646Z" fill="white"/>
<path d="M93.8121 113.646H83.5359V114.31H93.8121V113.646Z" fill="white"/>
<path d="M122.983 113.646H112.707V114.31H122.983V113.646Z" fill="white"/>
<path d="M152.155 113.646H141.878V114.31H152.155V113.646Z" fill="white"/>
<path d="M181.326 113.646H171.05V114.31H181.326V113.646Z" fill="white"/>
<path d="M210.497 113.646H200.221V114.31H210.497V113.646Z" fill="white"/>
<path d="M239.669 113.646H229.392V114.31H239.669V113.646Z" fill="white"/>
<path d="M35.4696 143.528H25.1934V144.192H35.4696V143.528Z" fill="white"/>
<path d="M64.6409 143.528H54.3646V144.192H64.6409V143.528Z" fill="white"/>
<path d="M93.8121 143.528H83.5359V144.192H93.8121V143.528Z" fill="white"/>
<path d="M122.983 143.528H112.707V144.192H122.983V143.528Z" fill="white"/>
<path d="M152.155 143.528H141.878V144.192H152.155V143.528Z" fill="white"/>
<path d="M181.326 143.528H171.05V144.192H181.326V143.528Z" fill="white"/>
<path d="M210.497 143.528H200.221V144.192H210.497V143.528Z" fill="white"/>
<path d="M239.669 143.528H229.392V144.192H239.669V143.528Z" fill="white"/>
<path d="M180.295 26.8534C181.374 26.8524 182.436 27.1272 183.38 27.652H177.217C178.158 27.1274 179.217 26.8525 180.295 26.8534Z" fill="#E6E6E6"/>
<path d="M168.335 26.0547C170.138 26.0526 171.898 26.6106 173.371 27.6519H163.305C164.777 26.6118 166.534 26.0539 168.335 26.0547Z" fill="#E6E6E6"/>
<path d="M100.589 15.9454C100.808 12.0718 102.393 8.40196 105.062 5.5901C107.731 2.77824 111.31 1.00717 115.161 0.592641C119.013 0.178116 122.886 1.14708 126.09 3.32679C129.295 5.5065 131.622 8.75526 132.658 12.4938C132.856 12.4867 133.053 12.4788 133.253 12.4788C136.784 12.4794 140.221 13.6252 143.047 15.7448C145.874 17.8643 147.94 20.8437 148.936 24.2371C151.276 23.2073 153.89 22.9839 156.371 23.6018C158.851 24.2197 161.057 25.6441 162.642 27.6519H111.657C110.17 27.6561 108.697 27.3597 107.327 26.7803C105.956 26.2009 104.717 25.3506 103.682 24.2801C102.648 23.2097 101.84 21.9412 101.306 20.5505C100.773 19.1599 100.525 17.6757 100.577 16.1868C100.581 16.1065 100.585 16.026 100.589 15.9454Z" fill="#E6E6E6"/>
<path d="M184.015 38.8062C182.935 38.8051 181.873 39.08 180.929 39.6047H187.093C186.151 39.0802 185.092 38.8053 184.015 38.8062Z" fill="#E6E6E6"/>
<path d="M195.975 38.0076C194.171 38.0055 192.412 38.5635 190.938 39.6047H201.004C199.533 38.5647 197.776 38.0067 195.975 38.0076Z" fill="#E6E6E6"/>
<path d="M263.72 27.8983C263.502 24.0247 261.917 20.3548 259.248 17.543C256.579 14.7311 253 12.96 249.148 12.5455C245.297 12.131 241.424 13.1 238.219 15.2797C235.015 17.4594 232.687 20.7081 231.652 24.4467C231.454 24.4396 231.256 24.4316 231.056 24.4316C227.525 24.4323 224.089 25.5781 221.262 27.6976C218.435 29.8172 216.369 32.7965 215.374 36.1899C213.034 35.1602 210.419 34.9367 207.939 35.5547C205.458 36.1726 203.253 37.597 201.667 39.6048H252.652C254.139 39.609 255.612 39.3125 256.983 38.7332C258.353 38.1538 259.593 37.3035 260.627 36.233C261.662 35.1626 262.47 33.894 263.003 32.5034C263.537 31.1127 263.785 29.6286 263.732 28.1397C263.729 28.0593 263.725 27.9789 263.72 27.8983Z" fill="#E6E6E6"/>
<path d="M229.729 141.219L235.655 141.222L235.656 140.28L229.73 140.277L229.729 141.219Z" fill="#1E1E1E"/>
<path d="M186.886 140.49L188.109 140.773L234.574 140.798L234.991 139.823C235.72 138.15 235.97 136.308 235.714 134.501C235.514 133.154 235.012 131.816 233.873 131.235L231.811 117.48L206.105 117.434L196.159 125.468C196.159 125.468 191.468 125.384 188.919 128.562C187.999 129.744 187.456 131.175 187.361 132.671L187.26 134.324L186.886 140.49Z" fill="#07A0C3"/>
<path d="M197.092 146.006C200.26 146.006 202.829 143.433 202.829 140.26C202.829 137.086 200.26 134.513 197.092 134.513C193.923 134.513 191.354 137.086 191.354 140.26C191.354 143.433 193.923 146.006 197.092 146.006Z" fill="#1E1E1E"/>
<path d="M197.092 143.284C198.76 143.284 200.112 141.93 200.112 140.259C200.112 138.589 198.76 137.235 197.092 137.235C195.424 137.235 194.072 138.589 194.072 140.259C194.072 141.93 195.424 143.284 197.092 143.284Z" fill="#CCCCCC"/>
<path d="M225.403 146.021C228.572 146.021 231.141 143.448 231.141 140.275C231.141 137.101 228.572 134.528 225.403 134.528C222.234 134.528 219.666 137.101 219.666 140.275C219.666 143.448 222.234 146.021 225.403 146.021Z" fill="#1E1E1E"/>
<path d="M225.403 143.299C227.071 143.299 228.423 141.945 228.423 140.275C228.423 138.604 227.071 137.25 225.403 137.25C223.735 137.25 222.383 138.604 222.383 140.275C222.383 141.945 223.735 143.299 225.403 143.299Z" fill="#CCCCCC"/>
<path d="M200.111 124.529L213.99 124.535H215.684L218.545 124.537V124.328L218.547 121.809L218.549 118.98H216.646L214.951 118.978L211.95 118.976H210.256L206.791 118.974L200.111 124.529Z" fill="white"/>
<path d="M220.803 124.539L228.138 124.543L228.14 123.102V120.582L228.142 118.986H227.068L225.374 118.984L220.805 118.982L220.803 124.539Z" fill="white"/>
<path d="M217.602 130.473L218.542 130.473L218.543 128.683L217.603 128.683L217.602 130.473Z" fill="#1E1E1E"/>
<path d="M203.871 127.074L203.871 126.132L202.084 126.131L202.084 127.073L203.871 127.074Z" fill="#1E1E1E"/>
<path d="M203.213 126.546L203.109 126.546C202.851 126.546 202.596 126.495 202.357 126.396C202.119 126.297 201.902 126.151 201.72 125.969C201.537 125.786 201.393 125.568 201.294 125.33C201.195 125.091 201.144 124.835 201.145 124.576C201.145 124.317 201.196 124.061 201.295 123.823C201.394 123.584 201.538 123.367 201.721 123.184C201.904 123.001 202.121 122.856 202.359 122.758C202.598 122.659 202.853 122.608 203.111 122.608L203.215 122.608L203.213 126.546Z" fill="#1E1E1E"/>
<path d="M187.26 134.324C187.971 134.401 188.687 134.225 189.281 133.826C189.876 133.426 190.31 132.83 190.508 132.141C190.706 131.453 190.656 130.716 190.365 130.061C190.074 129.407 189.562 128.876 188.919 128.562C187.999 129.744 187.456 131.175 187.361 132.671L187.26 134.324Z" fill="#1E1E1E"/>
<path d="M214.951 118.978L218.545 124.328L218.547 121.809L216.646 118.98L214.951 118.978Z" fill="#F2F2F2"/>
<path d="M225.374 118.984L228.14 123.102V120.582L227.068 118.986L225.374 118.984Z" fill="#F2F2F2"/>
<path d="M210.256 118.976L213.99 124.535H215.684L211.95 118.976H210.256Z" fill="#F2F2F2"/>
<path d="M15.2486 95.3844C23.6702 95.3844 30.4972 88.5464 30.4972 80.1114C30.4972 71.6763 23.6702 64.8384 15.2486 64.8384C6.82704 64.8384 0 71.6763 0 80.1114C0 88.5464 6.82704 95.3844 15.2486 95.3844Z" fill="#1E1E1E"/>
<path d="M15.3121 84.7095L7.68111 77.0663C7.43289 76.8171 7.29357 76.4794 7.29376 76.1274C7.29396 75.7754 7.43365 75.4379 7.68215 75.189C7.93065 74.9401 8.26765 74.8002 8.61908 74.8C8.97052 74.7998 9.30766 74.9394 9.55644 75.188L15.1852 80.8257L33.1467 60.3106C33.3787 60.0463 33.706 59.8851 34.0566 59.8623C34.4072 59.8395 34.7525 59.957 35.0166 60.189C35.2808 60.4211 35.4422 60.7486 35.4654 61.0997C35.4887 61.4509 35.3718 61.7969 35.1405 62.0618L15.3121 84.7095Z" fill="#07A0C3"/>
</g>
<defs>
<clipPath id="clip0_131_695">
<rect width="270" height="150" fill="white" transform="translate(0 0.5)"/>
</clipPath>
</defs>
</svg>
