<svg width="207" height="153" viewBox="0 0 207 153" fill="none" xmlns="http://www.w3.org/2000/svg">
<g clip-path="url(#clip0_131_656)">
<path d="M190.272 37.1921C166.893 4.66043 117.508 -8.53584 68.9394 5.67685C43.2625 13.1907 18.5053 28.2457 6.23621 57.3972C-15.6961 109.509 30.3535 126.152 60.465 131.456C75.0253 134.021 88.7386 138.329 101.27 144.195C123.815 154.749 163.721 164.1 193.813 120.14C215.624 88.2781 205.844 58.8615 190.272 37.1921Z" fill="#F2F2F2"/>
<path d="M54.7329 43.6284C54.6675 43.1114 54.5352 42.605 54.3394 42.1221C54.3145 42.0307 54.2707 41.9456 54.2111 41.8721C54.1514 41.7986 54.077 41.7383 53.9928 41.6951C53.8802 41.6659 53.7621 41.6645 53.6488 41.6913L51.8829 41.9615C51.7351 41.9682 51.5936 42.0232 51.48 42.118C51.25 42.3599 51.4765 42.7494 51.4695 43.0831C51.4616 43.4584 51.1282 43.7629 50.7666 43.8637C50.3976 43.9383 50.0169 43.9336 49.6498 43.8499L47.1805 43.4661C47.9078 43.234 48.555 42.802 49.0485 42.2196C49.3735 41.8346 49.5464 41.116 49.0767 40.9337C48.9372 40.8954 48.7917 40.8837 48.6479 40.8992C47.5291 40.9079 46.6488 39.9739 45.6014 39.5805C44.9311 39.3449 44.2035 39.3274 43.5226 39.5304C42.8417 39.7334 42.2425 40.1464 41.8105 40.7105L43.1259 40.774C43.2497 40.7671 43.3724 40.7999 43.4763 40.8674C43.7646 41.1043 43.4062 41.5592 43.4468 41.9301C43.4996 42.4119 44.1394 42.5148 44.6216 42.5635C45.1039 42.6123 45.7158 43.0041 45.4838 43.4297C43.0598 44.2647 40.5931 41.7976 38.0473 42.1013C37.403 42.1782 36.7946 42.4313 36.1656 42.5904C32.3228 43.5627 28.3501 40.9686 24.4246 41.518C23.5519 41.6667 22.6942 41.893 21.8616 42.1939C21.3273 42.3693 20.77 42.5589 20.3818 42.9658C19.9936 43.3726 19.8459 44.0684 20.2136 44.4938C19.2 44.5773 18.1796 44.4803 17.1998 44.2073C17.4648 44.3546 17.6852 44.5705 17.8379 44.8323C17.9907 45.0941 18.0701 45.3923 18.0679 45.6954C16.4852 45.9535 14.9444 46.4233 13.487 47.0922C13.759 47.5445 14.0767 47.9677 14.4352 48.3552L12.4315 49.6424C13.1084 49.813 13.4584 50.736 13.0648 51.3125C13.7667 51.0003 14.2017 50.1925 14.9522 50.0287C15.4439 49.9214 15.9443 50.1226 16.4107 50.3115C16.8772 50.5005 17.3899 50.6837 17.8728 50.5419C18.3557 50.4001 18.7119 49.7739 18.405 49.375C20.469 48.7728 22.6021 48.4395 24.7515 48.3835C24.9173 48.3627 25.0855 48.3946 25.2321 48.4747C25.5119 48.6688 25.4383 49.0881 25.4232 49.4283C25.4082 49.7685 25.6733 50.2156 25.9774 50.0622C25.6196 50.3724 25.9254 50.9564 26.2686 51.2826C26.6118 51.6088 27.0255 52.0589 26.8154 52.4832C26.7605 52.5939 26.6675 52.6825 26.6148 52.7943C26.459 53.1241 26.7063 53.5087 26.998 53.7277C27.2896 53.9467 27.6469 54.0998 27.8495 54.4031C28.0521 54.7065 27.9601 55.2374 27.5978 55.2798L26.568 53.9723C26.2162 54.3371 25.975 54.7942 25.8724 55.2905C26.9644 56.1832 27.1287 58.0002 26.2145 59.0742C25.7473 59.6231 25.0829 59.9566 24.5031 60.3847C23.9232 60.8128 23.3867 61.4224 23.3881 62.1432C23.3906 63.3884 23.2889 64.5453 23.7555 65.6998C24.616 67.8285 25.6094 69.9011 26.7299 71.9053C27.0241 72.4315 27.4044 73.0083 28.0005 73.0989C27.2472 71.265 26.569 69.4025 25.966 67.5114C26.3588 67.513 26.8126 67.5442 27.0428 67.8623C27.2335 68.1258 27.1925 68.484 27.2518 68.8038C27.3271 69.1136 27.4527 69.4089 27.6237 69.6781L31.2211 76.0862C31.5193 76.6174 31.8614 77.1876 32.4314 77.4028C32.7958 77.5403 33.2174 77.5144 33.5528 77.7124C33.8157 77.8676 33.9927 78.1431 34.2608 78.2893C35.0186 78.7028 36.0724 77.9099 36.7806 78.4035C36.9831 78.5446 37.1119 78.7688 37.2985 78.9304C37.9526 79.4968 39.0255 79.1179 39.7806 79.5405C40.2672 79.8128 40.5194 80.3574 40.779 80.851C41.4292 82.0873 42.4812 83.2985 43.8745 83.3969C44.3122 83.4278 44.7593 83.3448 45.1871 83.4422C45.615 83.5395 46.0361 83.9129 45.9674 84.3463C45.8497 85.0893 46.2168 85.9028 46.1182 86.6485C45.9386 88.0069 44.0118 88.6039 43.8463 89.964C43.8101 90.2618 43.8668 90.5692 43.7959 90.8607C43.709 91.218 43.4407 91.5089 43.3453 91.864C43.1647 92.537 43.6468 93.2068 44.1765 93.6595C44.7061 94.1123 45.3379 94.5027 45.6275 95.1365C45.9336 95.8064 45.7833 96.5875 45.8828 97.3172C46.1001 98.9103 47.4761 100.091 48.8922 100.853C49.3237 101.085 49.787 101.31 50.0662 101.712C50.4307 102.237 50.3944 102.93 50.5161 103.558C50.8142 105.095 52.1084 106.362 52.1451 107.927C52.1712 109.04 51.5527 110.049 51.1832 111.099C50.8368 112.105 50.7115 113.174 50.8157 114.233C50.92 115.291 51.2514 116.315 51.7873 117.234C52.0637 117.701 52.3943 118.141 52.5898 118.647C52.9387 119.55 52.8255 120.576 53.1472 121.489C53.5725 122.696 54.7412 123.693 54.6294 124.968C55.16 126.07 56.3316 126.611 57.5098 126.939L59.6213 127.527C60.0256 127.639 60.4481 127.753 60.8598 127.671C61.2715 127.59 61.6644 127.248 61.6537 126.829C60.6183 126.595 59.5496 126.347 58.696 125.716C57.8425 125.085 57.2578 123.961 57.5816 122.95C57.7318 122.482 58.0513 121.94 57.7475 121.553C57.5736 121.331 57.2556 121.273 57.0595 121.071C56.7535 120.755 56.8586 120.225 57.0786 119.845C57.2985 119.464 57.6165 119.124 57.7052 118.694C57.75 118.453 57.72 118.204 57.6194 117.981C57.5188 117.757 57.3523 117.57 57.1422 117.444C57.5337 117.296 57.8898 117.068 58.1873 116.773C58.4622 116.46 58.5891 115.976 58.3729 115.619C59.015 115.7 59.773 115.74 60.1944 115.249C60.531 114.857 60.5079 114.27 60.3749 113.771C60.2419 113.272 60.0171 112.787 60.0101 112.27C61.4912 112.34 62.9755 112.29 64.4485 112.119C64.2355 111.402 63.7515 110.796 63.0991 110.429C63.7661 110.316 64.3739 109.518 64.5846 108.875C64.7954 108.232 64.7416 107.532 64.6114 106.868C64.5613 106.697 64.5545 106.516 64.5914 106.342C64.6665 106.103 64.9017 105.957 65.1193 105.832L68.4305 103.93C68.6281 103.831 68.8072 103.699 68.96 103.539C69.3069 103.132 69.2555 102.516 69.0779 102.012C68.9002 101.507 68.6157 101.032 68.5473 100.501C68.3426 98.9139 70.0419 97.775 70.6153 96.2807C70.8404 95.6943 70.8863 95.0569 70.9298 94.4303C70.9766 93.7573 70.9801 92.9756 70.4633 92.542C69.968 92.1262 69.194 92.219 68.6757 91.8323C68.2005 91.4778 68.0366 90.7892 67.5175 90.5028C67.046 90.2428 66.4549 90.4082 65.9306 90.2859C65.0074 90.0705 64.4264 89.0065 63.4835 88.908C62.9515 88.8524 62.3494 89.1125 61.9134 88.8026C61.5292 88.5296 61.5139 87.981 61.4407 87.5154C61.3126 86.7918 60.9657 86.1248 60.4469 85.6043C59.9281 85.0839 59.2623 84.7349 58.5391 84.6044C57.9906 84.5165 57.3936 84.5499 56.927 84.2484C56.4545 83.9432 56.2378 83.3718 55.8667 82.9491C55.2685 82.2678 54.3264 82.0258 53.4439 81.8183L49.8542 80.9744C49.2169 80.8246 48.3955 80.7452 48.0536 81.3034C47.9523 81.5159 47.8807 81.7413 47.8406 81.9733C47.7124 82.3929 47.4546 82.7611 47.104 83.025C46.7535 83.2888 46.3283 83.4347 45.8896 83.4418C45.5888 82.9286 45.1014 82.5515 44.5291 82.3891C44.1651 82.2876 43.7755 82.2763 43.4283 82.1271C43.2393 82.0348 43.071 81.9049 42.9339 81.7453C42.7968 81.5858 42.6936 81.3999 42.6308 81.1991C42.568 80.9983 42.5469 80.7868 42.5686 80.5776C42.5904 80.3683 42.6546 80.1657 42.7574 79.9821C42.9644 79.6136 43.0443 79.1873 42.9849 78.7689C42.9254 78.3504 42.7299 77.9632 42.4285 77.6669C41.818 77.1189 40.935 76.9864 40.1164 77.0413C39.902 76.5735 40.2605 76.0457 40.6468 75.7058C41.033 75.3658 41.5021 75.0316 41.5862 74.5239C41.7185 73.7254 40.6997 73.1189 39.926 73.357C39.1524 73.5951 38.6587 74.3465 38.3323 75.0872C38.145 75.5122 37.9858 75.9597 37.6904 76.3181C37.395 76.6764 36.9193 76.933 36.4693 76.818C35.8323 76.6552 35.5863 75.8984 35.4453 75.2562C35.2562 74.3946 35.0659 73.521 35.1055 72.6398C35.1452 71.7585 35.4423 70.8537 36.0921 70.2571C37.151 69.285 38.7754 69.3803 40.2045 69.5354C39.8669 69.155 39.9503 68.5139 40.3116 68.1558C40.5023 67.9864 40.7314 67.866 40.9791 67.8051C41.2269 67.7443 41.4857 67.7448 41.7332 67.8065C42.1638 67.8962 42.5518 68.1281 42.8346 68.465C43.2407 68.9602 43.3561 69.6287 43.6631 70.1907C43.9701 70.7527 44.6603 71.232 45.2252 70.9305C45.7132 70.6701 45.7906 69.9935 45.6692 69.4538C45.5477 68.9142 45.2898 68.3895 45.3338 67.8381C45.4177 66.7861 46.5083 66.1528 47.4707 65.7196C48.433 65.2863 49.535 64.7036 49.6875 63.6592C49.6927 63.4548 49.7312 63.2525 49.8017 63.0605C49.9084 62.8909 50.0567 62.7514 50.2325 62.6553C53.0412 60.7991 55.8966 58.9203 59.1068 57.9061C59.2738 57.8533 59.2934 57.912 59.4636 57.8706C59.7018 57.7329 59.544 57.3521 59.3156 57.1986C59.0872 57.0452 58.7819 56.9276 58.724 56.6586C58.6814 56.4609 58.7979 56.2667 58.8282 56.0668C58.9025 55.5754 58.3147 55.1217 57.8581 55.3181C57.6003 54.9766 58.1105 54.5798 58.5231 54.4662C59.762 54.1252 61.0337 53.9175 62.3167 53.8465C62.4648 53.8229 62.6165 53.8487 62.7484 53.9199C62.9639 54.0692 62.9364 54.4115 62.7837 54.6246C62.6309 54.8377 62.3934 54.9714 62.2031 55.1517C61.9951 55.3543 61.8468 55.61 61.7744 55.8911C61.7019 56.1722 61.708 56.4678 61.792 56.7457C62.4618 57.0864 63.19 57.4371 63.9318 57.3171C64.6736 57.197 65.332 56.3635 64.9833 55.6979C64.6586 55.078 63.6833 54.9382 63.5156 54.2588C63.3192 53.4633 64.4452 52.7559 64.1916 51.9768C64.0805 51.6355 63.7404 51.4347 63.4794 51.1883C63.1712 50.8862 62.9615 50.498 62.878 50.0746C62.7944 49.6512 62.8409 49.2125 63.0112 48.816C62.5861 48.8907 62.1493 48.8625 61.7374 48.7336C61.3255 48.6047 60.9505 48.3789 60.6439 48.0752C60.0777 47.5037 59.6259 46.6023 58.8219 46.6278C58.084 46.6513 57.4485 47.5121 56.7585 47.2495C56.5888 47.1849 56.4099 47.0534 56.2454 47.1304C56.1915 47.1654 56.1463 47.2122 56.1131 47.2673C56.0799 47.3223 56.0597 47.3842 56.054 47.4482C55.8786 48.2864 56.1803 49.2415 55.7234 49.9659C55.2262 50.7541 54.0763 50.8634 53.4736 51.5742C53.1464 51.9601 53.0196 52.48 52.7189 52.8868C52.4182 53.2936 51.7799 53.5522 51.419 53.1977C51.5963 52.8331 51.6448 52.4191 51.5564 52.0233C51.468 51.6276 51.2479 51.2735 50.9322 51.0191C50.5972 50.8005 50.236 50.6248 49.8571 50.4961C49.4338 50.3169 49.0311 50.0925 48.6561 49.8267C48.4682 49.7134 48.3156 49.5501 48.2152 49.355C48.1358 49.1107 48.1465 48.846 48.2453 48.6089C48.4283 48.0842 48.7512 47.6195 49.179 47.2649C49.6068 46.9103 50.1234 46.6793 50.6729 46.5968C51.1535 46.5314 51.7127 46.5545 52.0307 46.1883C52.199 45.9946 52.2873 45.7017 52.5315 45.623C52.6877 45.5917 52.8499 45.6116 52.9939 45.68L54.7874 46.3113C54.9875 46.4016 55.2078 46.4381 55.4263 46.417C55.5347 46.4024 55.6335 46.3473 55.703 46.2629C55.7725 46.1784 55.8075 46.0709 55.8009 45.9617C55.7436 45.6639 55.2853 45.5209 55.327 45.2205C55.3504 45.1232 55.4027 45.0352 55.4771 44.9682C56.1244 44.2792 56.916 43.7419 57.7952 43.3947C58.6744 43.0475 59.6195 42.899 60.5629 42.9598C60.7893 43.3316 60.4312 43.7719 60.1333 44.0893C59.8354 44.4067 59.596 44.9738 59.9563 45.2181C60.1039 45.2934 60.2682 45.3304 60.4339 45.3256C60.8754 45.3854 61.3046 45.5156 61.7049 45.7112C62.3247 45.9809 62.9326 46.276 63.5286 46.5965C63.4759 46.2036 63.4257 45.7896 63.5746 45.4221C63.7236 45.0547 64.1469 44.7665 64.5167 44.9096C64.873 45.0475 65.0558 45.5193 65.4354 45.5626C65.9418 45.6202 66.1416 44.8721 65.9301 44.4084C65.7185 43.9446 65.2998 43.5564 65.2648 43.0479C65.2412 42.7048 65.3718 42.2794 65.0978 42.0716C65.0002 42.0093 64.8896 41.9705 64.7744 41.9583L57.9324 40.6992C57.5261 40.6244 56.939 40.6817 56.921 41.0945C56.911 41.3248 57.1168 41.5528 57.0256 41.7646C56.9283 41.9907 56.6088 41.97 56.376 42.0499C56.0148 42.174 55.8336 42.6029 55.8683 42.9832C55.9318 43.361 56.0781 43.7202 56.2968 44.0348C55.8518 43.8487 55.1779 43.8145 54.7329 43.6284Z" fill="#1E1E1E"/>
<path d="M49.2735 37.8203C48.8421 37.6775 48.3772 37.6709 47.9418 37.8013C47.5064 37.9317 47.1217 38.1928 46.8398 38.5492C46.7271 38.6975 46.6325 38.902 46.7268 39.0626C46.862 39.2929 47.2066 39.202 47.4606 39.1196C47.8339 38.9862 48.2403 38.9765 48.6196 39.0919C48.8581 39.1738 49.0715 39.3186 49.3111 39.3974C49.4277 39.4461 49.5554 39.4622 49.6805 39.444C49.8056 39.4257 49.9233 39.3737 50.0211 39.2936C50.1855 39.1259 50.1958 38.8652 50.1961 38.6304C50.2075 38.5518 50.2012 38.4717 50.1777 38.3958C50.1542 38.32 50.114 38.2503 50.0602 38.192C49.9643 38.1365 49.8565 38.1046 49.7459 38.099C49.498 38.0531 49.2739 37.9222 49.1122 37.7288" fill="#1E1E1E"/>
<path d="M51.7408 37.1334C51.6442 37.1281 51.5479 37.1478 51.4612 37.1905C51.3744 37.2332 51.3001 37.2975 51.2454 37.3773C51.1907 37.457 51.1574 37.5495 51.1487 37.6458C51.1401 37.7421 51.1564 37.839 51.196 37.9272C51.4925 38.0081 51.8023 38.0283 52.1068 37.9866C52.2587 37.963 52.4002 37.895 52.5135 37.7911C52.6268 37.6872 52.7068 37.5522 52.7435 37.4029C52.385 37.4681 52.015 37.3975 51.7057 37.2047" fill="#1E1E1E"/>
<path d="M60.0182 35.9862C59.2111 36.1578 58.4271 36.4241 57.6825 36.7796C58.0335 36.9145 58.3319 37.1586 58.5337 37.476C58.7355 37.7933 58.83 38.1671 58.8033 38.5422C58.7718 38.6862 58.7755 38.8357 58.814 38.978C58.8997 39.1859 59.1483 39.264 59.3668 39.3174C59.7595 39.4368 60.1694 39.4892 60.5795 39.4721C60.7846 39.4614 60.9838 39.3997 61.1591 39.2926C61.3343 39.1855 61.4801 39.0364 61.5833 38.8588C61.6427 38.6902 61.7124 38.5254 61.792 38.3653C62.3158 37.5676 63.8719 38.5322 64.4343 37.7611C64.6324 37.4895 64.6143 37.0807 64.8726 36.8654C65.0062 36.7717 65.161 36.7126 65.3231 36.6935C66.4541 36.4688 67.5965 36.3061 68.7453 36.2061C69.2896 36.1587 69.9991 35.9633 70.0036 35.417C67.9534 35.0143 65.8276 35.3003 63.9567 36.2304C63.2827 36.568 62.3912 37.2782 61.7419 36.8306C61.4988 36.663 61.5108 36.2118 61.1762 36.0233C60.8341 35.8307 60.3813 35.909 60.0182 35.9862Z" fill="#1E1E1E"/>
<path d="M66.7228 37.24L67.6852 37.4249C67.5081 37.417 67.3313 37.4471 67.1666 37.5129C67.002 37.5788 66.8533 37.6791 66.7305 37.807C66.6077 37.9349 66.5136 38.0875 66.4544 38.2547C66.3952 38.4218 66.3724 38.5997 66.3874 38.7764C67.2887 39.0774 68.2712 38.7845 69.2206 38.8245C70.1699 38.8645 71.2745 39.5426 71.1124 40.4789C71.0634 40.762 70.8999 41.0449 70.9849 41.3193C71.0445 41.5117 71.2142 41.6482 71.3099 41.8253C71.5094 42.1945 71.35 42.6614 71.098 42.997C70.8461 43.3325 70.5074 43.6003 70.2863 43.9569C69.7363 44.8439 70.0488 45.9905 70.3764 46.9814C70.4712 47.3558 70.6461 47.7052 70.8891 48.0053C71.3746 48.5215 72.1656 48.5663 72.8741 48.5767C73.3897 48.5842 73.9804 48.5587 74.3065 48.1592C74.7322 47.6376 74.4345 46.8239 74.7148 46.2117C74.9693 45.6558 75.6179 45.4173 76.2055 45.2481C77.2819 44.9382 78.379 44.6747 79.3967 44.2066C80.6604 43.6254 81.8414 42.7195 83.2304 42.6447C83.6201 42.6237 84.0194 42.6697 84.3947 42.563C84.7701 42.4562 85.1266 42.1317 85.0982 41.7425C85.0739 41.4099 84.7926 41.1657 84.5728 40.915C84.3529 40.6644 84.1803 40.2789 84.3823 40.0136L88.023 39.3336C87.7649 38.6303 87.5639 37.7041 88.1569 37.2463C88.3709 37.0811 88.6573 37.0151 88.8395 36.8154C89.15 36.4751 88.9939 35.8888 88.6355 35.5994C88.277 35.3099 87.7924 35.2427 87.3333 35.2046C85.7369 35.072 84.1314 35.1596 82.532 35.2473C79.4054 35.4187 76.2788 35.5901 73.1523 35.7614C72.5228 35.7959 71.7962 35.7432 71.2189 35.958C70.7302 36.1398 70.3827 36.4734 69.8238 36.5907C68.792 36.8071 67.6565 36.6607 66.7228 37.24Z" fill="#1E1E1E"/>
<path d="M83.9637 44.847C83.8656 44.8315 83.7653 44.8543 83.6836 44.9106C83.6295 44.9701 83.5973 45.0463 83.5924 45.1266C83.5302 45.4809 83.6042 45.8455 83.7996 46.1476C83.8991 46.2958 84.0364 46.4146 84.1974 46.4918C84.3583 46.5689 84.537 46.6016 84.7148 46.5864C85.1481 46.5311 85.4675 46.1614 85.8659 45.981C86.4799 45.7032 89.0875 45.2702 87.2837 44.2957C86.6621 43.9598 86.2604 44.2563 85.7704 44.4775C85.213 44.7626 84.5883 44.8904 83.9637 44.847Z" fill="#1E1E1E"/>
<path d="M99.763 36.6898C99.5524 36.7758 99.3762 36.9292 99.2619 37.126C99.2093 37.2259 99.1971 37.3422 99.2278 37.4509C99.2585 37.5596 99.3298 37.6523 99.427 37.7098C99.5057 37.7383 99.5891 37.7516 99.6727 37.7488L100.529 37.7744C100.893 37.7852 101.347 37.8627 101.445 38.2133C101.518 38.4737 101.355 38.8082 101.551 38.9943C101.635 39.0594 101.737 39.0989 101.843 39.1079C102.125 39.1804 102.419 39.1899 102.706 39.1357C103.329 38.9686 103.001 38.5883 103.198 38.2496C103.498 37.7315 103.446 38.0451 103.975 37.7482C104.366 37.5289 104.871 37.131 104.545 36.5721C103.977 35.6 100.6 36.2722 99.763 36.6898Z" fill="#1E1E1E"/>
<path d="M116.667 36.2012L116.169 36.2675C115.048 36.4172 113.92 36.5682 112.84 36.905C113.308 37.0898 113.798 37.2102 114.298 37.2627C114.573 37.2762 114.847 37.3151 115.115 37.3788C115.592 37.5208 116.073 37.8876 116.534 37.6997C116.819 37.5832 116.913 37.2857 117.149 37.128C117.313 37.0191 117.933 36.8429 118.002 36.733C118.562 35.8445 117.097 36.1437 116.667 36.2012Z" fill="#1E1E1E"/>
<path d="M118.85 38.4614C118.186 38.8328 117.57 39.2841 117.015 39.8053C116.782 40.025 116.543 40.2982 116.564 40.6182C116.592 41.0434 117.045 41.2901 117.438 41.4563L119.028 42.1294C119.22 41.8576 119.044 41.4823 118.845 41.2152C118.645 40.9481 118.408 40.639 118.496 40.3176C118.597 39.9507 119.044 39.8257 119.419 39.7625C120.03 39.6596 121.679 39.6678 121.481 38.683C121.247 37.5225 119.464 38.1185 118.85 38.4614Z" fill="#1E1E1E"/>
<path d="M118.531 104.132C118.379 104.57 118.365 105.086 118.627 105.469C118.921 105.898 119.509 106.058 120.017 105.949C120.524 105.814 120.975 105.524 121.308 105.119C121.612 104.78 121.863 104.396 122.05 103.98C122.312 103.333 122.497 102.657 122.601 101.967L123.094 99.3753C123.205 98.7961 123.2 97.0203 122.136 97.5989C121.845 97.7569 121.172 99.0048 120.867 99.3587C120.318 99.9965 120.245 100.615 119.956 101.388C119.594 102.356 118.866 103.162 118.531 104.132Z" fill="#1E1E1E"/>
<path d="M174.757 117.394C174.409 117.258 174.071 117.097 173.746 116.912C173.42 117.809 173.246 118.753 173.233 119.707L175.617 118.358C175.975 118.155 176.382 117.874 176.374 117.462C176.377 117.411 176.367 117.36 176.343 117.315C176.32 117.269 176.285 117.231 176.242 117.204C176.189 117.182 176.131 117.176 176.075 117.184C175.722 117.214 175.399 117.387 175.066 117.508C174.732 117.629 174.343 117.693 174.037 117.514" fill="#1E1E1E"/>
<path d="M187.331 118.195C187.07 118.266 186.814 118.358 186.567 118.469C186.02 118.747 185.648 119.276 185.156 119.642C184.685 119.993 184.118 120.186 183.561 120.373C183.397 120.518 183.472 120.809 183.65 120.937C183.841 121.045 184.061 121.095 184.28 121.078C184.858 121.091 185.467 121.096 185.974 120.817C186.259 120.632 186.526 120.42 186.771 120.184C187.364 119.69 188.075 119.364 188.779 119.049C189.035 118.952 189.272 118.81 189.479 118.63C189.921 118.195 189.952 117.522 189.314 117.374C188.799 117.254 187.822 118.036 187.331 118.195Z" fill="#1E1E1E"/>
<path d="M192.887 114.566C192.916 114.266 192.876 113.963 192.771 113.681C192.665 113.399 192.497 113.144 192.279 112.936C192.272 113.536 192.254 114.176 191.917 114.672C191.676 115.025 191.299 115.264 191.036 115.601C190.772 115.938 190.655 116.471 190.964 116.767C191.162 116.917 191.402 117 191.651 117.003C192.266 117.076 192.978 117.116 193.409 116.672C193.645 116.429 193.759 116.07 194.046 115.892C194.153 115.847 194.249 115.778 194.326 115.692C194.445 115.503 194.256 115.255 194.044 115.187C193.832 115.119 193.598 115.151 193.385 115.086C193.172 115.022 192.976 114.782 193.086 114.588" fill="#1E1E1E"/>
<path d="M183.013 92.5655C182.69 92.6439 182.356 92.6636 182.026 92.6236C181.479 92.5229 181.052 92.1102 180.61 91.7718C179.559 90.9716 178.282 90.5252 176.961 90.4967C175.76 90.4741 174.547 90.7996 173.367 90.5725C173.444 91.0012 173.811 91.3228 174.203 91.514C174.594 91.7051 175.026 91.8013 175.419 91.9886C176.049 92.2914 176.549 92.8113 176.827 93.4527C176.954 93.7484 177.033 94.0702 177.225 94.3284C177.617 94.8562 178.361 94.9721 179.017 94.929C179.873 94.8727 180.766 94.6266 181.562 94.9454C182.171 95.1892 182.606 95.7221 183.115 96.1364C183.623 96.5508 184.339 96.8583 184.923 96.5594C184.317 96.363 183.789 95.9781 183.417 95.4606C183.045 94.9432 182.848 94.3204 182.855 93.6831C183.427 93.7358 185.076 93.7154 184.987 92.7426C184.912 91.9181 183.504 92.4765 183.013 92.5655Z" fill="#1E1E1E"/>
<path d="M175.523 99.2732C175.625 98.7156 176.181 98.2233 176.008 97.6837C175.888 97.3105 175.455 97.1262 175.063 97.117C174.672 97.1078 174.287 97.2246 173.895 97.2355C173.64 97.222 173.384 97.2256 173.13 97.2464C172.352 97.3742 171.873 98.1894 171.14 98.4792C170.694 98.6555 170.193 98.6218 169.73 98.7436C168.678 99.0202 168.012 100.014 167.277 100.816C166.088 102.105 164.54 103.008 162.833 103.407C162.235 103.546 161.592 103.635 161.116 104.023C160.486 104.538 160.331 105.42 160.191 106.221C159.804 108.433 159.213 110.604 158.424 112.707L160.923 113.026C161.398 113.086 161.89 113.146 162.348 113.005C162.68 112.88 162.995 112.712 163.285 112.506C164.397 111.815 165.643 111.366 166.94 111.186C167.594 111.097 168.28 111.08 168.894 111.323C169.508 111.566 170.034 112.118 170.086 112.776C170.351 112.694 170.634 112.685 170.905 112.75C171.175 112.816 171.422 112.954 171.62 113.149C172.011 113.548 172.267 114.059 172.352 114.611C172.418 114.953 172.484 115.363 172.801 115.506C173.06 115.623 173.357 115.497 173.64 115.474C174.6 115.397 175.397 116.517 176.341 116.325C177.354 116.118 177.602 114.601 178.59 114.298C179.157 114.123 179.953 114.335 180.225 113.808C180.464 113.342 179.986 112.806 180.036 112.285C180.096 111.644 180.853 111.371 181.436 111.098C183.446 110.155 184.4 107.449 183.426 105.453C182.849 104.271 181.713 103.34 181.503 102.041C181.342 101.042 181.736 99.8762 181.099 99.0896C180.775 98.6894 180.226 98.4685 180.033 97.991C179.911 97.6905 179.96 97.3494 179.895 97.0319C179.83 96.7144 179.553 96.3823 179.239 96.4646C178.329 96.7035 178.039 99.515 177.551 100.198C176.811 101.237 175.29 100.553 175.523 99.2732Z" fill="#1E1E1E"/>
<path d="M158.701 93.6277C158.39 93.5405 158.05 93.4546 157.752 93.5792C157.454 93.7039 157.28 94.1414 157.519 94.3585C159.39 94.2856 161.273 94.2132 163.128 94.4673C165.266 94.7601 167.381 95.4853 169.528 95.272C168.302 94.9101 167.055 94.6209 165.795 94.4056L163.693 94.0041C163.129 93.886 162.559 93.798 161.986 93.7404C160.787 93.6414 159.88 93.9583 158.701 93.6277Z" fill="#1E1E1E"/>
<path d="M160.574 87.1108C160.419 87.0978 160.226 87.0867 160.146 87.2202C160.069 87.3478 160.157 87.5164 160.116 87.6595C160.059 87.855 159.803 87.9049 159.602 87.8783C159.4 87.8517 159.182 87.788 159.003 87.8852C158.912 87.9471 158.844 88.0368 158.809 88.1407C158.774 88.2446 158.773 88.3572 158.807 88.4615C158.88 88.6687 158.998 88.8571 159.153 89.013C159.417 89.3461 159.718 89.6481 160.051 89.9134C160.694 90.3881 161.565 90.6169 161.97 91.306C162.027 91.4395 162.115 91.5577 162.226 91.651C162.421 91.7742 162.674 91.6805 162.884 91.5848L163.618 91.2495C163.75 91.2019 163.868 91.1216 163.961 91.0162C164.128 90.7887 164.025 90.4652 163.885 90.2202C163.744 89.9751 163.564 89.7215 163.594 89.4405C163.648 88.9395 164.292 88.7479 164.557 88.3193C164.824 87.8872 164.65 87.3305 164.681 86.8235C164.717 86.2306 165.089 85.4594 164.49 85.0165C163.98 84.64 163.494 84.9878 163.128 85.4035C162.357 86.28 161.992 87.2292 160.574 87.1108Z" fill="#1E1E1E"/>
<path d="M165.029 78.2522C165.279 78.7319 165.801 79.0182 166.075 79.4854C166.371 79.9918 166.337 80.646 166.658 81.1368C166.988 81.6404 167.651 81.9078 167.836 82.4805C168.038 83.1058 167.58 83.8658 167.945 84.4122C168.013 84.5015 168.099 84.5757 168.197 84.6301C168.295 84.6845 168.404 84.7179 168.516 84.7281C168.627 84.7384 168.74 84.7253 168.847 84.6898C168.953 84.6542 169.051 84.5969 169.134 84.5215C169.288 84.3539 169.371 84.1329 169.364 83.9055C169.357 83.6781 169.262 83.4623 169.098 83.3042C168.882 83.1071 168.572 83.022 168.392 82.7918C168.298 82.659 168.235 82.5066 168.208 82.3461C168.11 81.8831 168.126 81.4031 168.254 80.9475C168.303 80.8319 168.315 80.7044 168.29 80.5817C168.208 80.3456 167.889 80.3288 167.664 80.2193C167.155 79.9705 167.167 79.2513 167.256 78.6912C167.197 79.0641 165.868 78.4299 165.729 78.2187C165.453 77.7991 165.603 76.9897 165.549 76.526C164.952 76.8134 164.722 77.6657 165.029 78.2522Z" fill="#1E1E1E"/>
<path d="M151.647 85.6331C151.402 85.3587 151.033 85.0716 150.704 85.2371C150.454 85.3634 150.385 85.7103 150.483 85.9733C150.603 86.2288 150.787 86.4485 151.018 86.6109C151.703 87.1758 152.44 87.6856 153.038 88.3423C154.107 89.5174 154.674 91.103 155.836 92.1856C156.07 92.4366 156.38 92.6041 156.718 92.6625C157.057 92.6941 157.437 92.4772 157.476 92.1391C157.508 91.8607 157.314 91.6115 157.124 91.4051C156.672 90.9137 156.178 90.4614 155.751 89.948C155.554 89.7508 155.431 89.4922 155.401 89.2151C155.398 88.9387 155.65 88.6493 155.918 88.7178C155.593 88.6345 155.351 88.0918 154.873 87.9898C154.473 87.9045 154.377 88.1519 153.901 87.9479C152.994 87.559 152.283 86.3441 151.647 85.6331Z" fill="#1E1E1E"/>
<path d="M172.958 58.9106C172.698 58.8333 172.442 58.7419 172.192 58.6369C171.518 58.4348 170.627 58.9297 170.717 59.6271C170.777 60.0904 171.208 60.4027 171.446 60.8046C171.799 61.4006 171.705 62.1565 171.52 62.8239C171.474 63.0306 171.387 63.226 171.265 63.3985C171.093 63.5806 170.889 63.728 170.661 63.8325C169.752 64.3425 168.95 65.0238 168.3 65.8388C168.229 65.9141 168.18 66.0069 168.157 66.1077C168.125 66.3431 168.362 66.5146 168.496 66.711C168.793 67.1472 168.578 67.7341 168.607 68.2611C168.603 68.3357 168.617 68.4101 168.65 68.4774C168.682 68.5447 168.731 68.6026 168.792 68.6457C168.971 68.7367 169.183 68.5821 169.28 68.4062C169.603 67.8224 169.36 66.8854 169.964 66.6039C170.079 66.5507 170.217 66.5282 170.294 66.4278C170.415 66.2684 170.298 66.0325 170.359 65.842C170.451 65.5561 170.842 65.5432 171.143 65.5559C171.66 65.5775 172.177 65.5087 172.67 65.3526C172.863 65.3066 173.039 65.2048 173.175 65.0598C173.356 64.8343 173.34 64.5137 173.304 64.2269C173.123 62.7976 172.67 61.416 171.97 60.1568C172.501 60.2247 173.079 60.2834 173.537 60.0067C173.794 59.8517 174.101 59.3883 173.974 59.0729C173.773 58.5742 173.409 58.994 172.958 58.9106Z" fill="#1E1E1E"/>
<path d="M104.885 66.7721C104.949 67.1129 105.011 67.4717 104.9 67.7999C104.788 68.1281 104.437 68.4024 104.105 68.3018C103.847 68.2238 103.699 67.9649 103.516 67.7675C102.499 66.6698 100.205 67.3053 99.577 65.9473C99.3206 65.3931 99.4948 64.729 99.32 64.144C99.2097 63.8058 98.9902 63.5139 98.696 63.314C98.4017 63.1141 98.0495 63.0177 97.6945 63.0397C97.3707 63.0865 97.0555 63.1806 96.7591 63.3189C94.7731 64.1143 92.6882 64.6358 90.5617 64.869C90.1576 64.8936 89.7578 64.9663 89.3709 65.0857C88.4977 65.4022 87.9011 66.2117 87.4765 67.0378C87.0519 67.8638 86.7385 68.7581 86.1693 69.492C85.571 70.2633 84.7327 70.8034 83.9507 71.3876C83.6494 71.5818 83.3986 71.8447 83.2188 72.1547C83.0493 72.5028 83.0588 72.9076 83.072 73.2945L83.2318 77.9938C83.2524 78.5982 83.2782 79.2243 83.5487 79.7652C83.8865 80.4407 84.5539 80.8831 85.0169 81.4798C85.4893 82.093 85.7354 82.8506 85.7136 83.6244C85.7037 83.9355 85.6728 84.3034 85.9151 84.4988C86.0625 84.5944 86.2349 84.644 86.4106 84.6413L92.7673 85.1616C93.8855 85.2531 95.1248 85.4036 95.8548 86.2555C96.1994 86.6576 96.4761 87.2358 97.0039 87.2789C97.2303 87.2974 97.4505 87.2045 97.6769 87.1865C98.2482 87.1413 98.75 87.5749 99.0667 88.0524C99.546 88.7803 99.7636 89.6495 99.6837 90.5174C99.6318 91.0621 99.4629 91.5917 99.4265 92.1377C99.2879 94.2153 101.049 96.0203 101.083 98.1023C101.103 99.3269 100.522 100.471 99.9552 101.557C100.87 102.943 100.121 104.788 100.485 106.408C100.831 107.945 102.112 109.148 102.431 110.691C102.578 111.397 102.586 112.266 103.209 112.63C103.482 112.763 103.785 112.824 104.089 112.806C105.919 112.828 107.729 112.416 109.369 111.604C110.139 111.222 110.937 110.651 111.072 109.802C111.18 109.117 110.833 108.352 111.186 107.755C111.603 107.052 112.67 107.108 113.283 106.567C114.277 105.691 113.501 104.019 113.904 102.756C114.266 101.621 115.513 101.018 116.13 99.9989C116.373 99.5607 116.548 99.0879 116.648 98.5968C116.931 97.4232 117.107 96.2264 117.174 95.021C117.19 94.2886 117.244 93.5576 117.336 92.8307C118.002 88.6926 122.093 85.9217 123.421 81.9464C123.548 81.5668 123.607 81.0611 123.27 80.8463C123.069 80.7507 122.842 80.7269 122.626 80.779L119.696 81.1484C119.332 81.1943 118.946 81.2372 118.612 81.086C118.278 80.9348 118.038 80.512 118.216 80.1908C118.713 79.2893 117.689 78.1501 117.235 77.2262C116.01 74.7385 114.551 72.3729 112.878 70.1613C112.771 70.0475 112.704 69.9019 112.687 69.7466L113.519 69.7743C113.238 68.7669 112.775 67.6646 111.796 67.2961C111.245 67.0884 110.634 67.1602 110.046 67.1924C108.36 67.2844 106.553 67.03 104.885 66.7721Z" fill="#1E1E1E"/>
<path d="M110.047 44.0708C110.488 44.5391 110.982 45.0357 111.62 45.1173C112.747 45.2615 113.558 44.096 114.074 43.0837C114.093 43.3418 114.212 43.5822 114.405 43.7539C114.599 43.9256 114.852 44.0149 115.111 44.003C115.389 43.9562 115.654 43.8524 115.891 43.6981C118.124 42.4777 120.625 41.8312 123.169 41.8164C123.145 41.6237 123.193 41.4287 123.304 41.2691C123.414 41.1095 123.581 40.9966 123.77 40.9522C124.287 40.8497 124.753 41.297 125.003 41.7616C125.252 42.2263 125.408 42.7649 125.804 43.1127C126.201 43.4605 126.969 43.4454 127.125 42.9417C127.276 42.4582 126.772 42.0458 126.353 41.7607C125.935 41.4757 125.494 40.948 125.776 40.5273C127.914 40.054 130.065 39.579 132.253 39.4849C132.625 39.4979 132.996 39.4339 133.343 39.2971C133.677 39.1333 133.942 38.7617 133.852 38.401C133.375 38.5133 132.875 38.4808 132.416 38.3077C131.957 38.1346 131.56 37.8287 131.276 37.4292C134.311 37.1786 137.54 36.9651 140.231 38.3936C140.553 39.0866 138.908 39.6633 139.348 40.2884C139.489 40.4877 139.77 40.5111 140.014 40.5156C141.883 40.5504 143.764 40.5844 145.612 40.3021C146.288 40.199 146.97 40.0534 147.648 40.137C148.778 40.2763 149.744 41.03 150.855 41.2758C151.308 41.3758 151.815 41.3792 152.196 41.1161C152.577 40.853 152.741 40.254 152.429 39.912C153.475 38.8864 155.212 39.1406 156.592 39.6316C157.973 40.1226 159.281 40.9143 160.742 41.0238C161.789 41.1022 162.851 40.8204 163.887 40.9996C164.537 41.1121 165.143 41.4015 165.779 41.5793C166.981 41.9156 168.253 41.8446 169.502 41.8608C172.688 41.9037 175.838 42.5299 178.799 43.7082C179.184 43.8335 179.537 44.042 179.832 44.3188C180.108 44.6137 180.248 45.0721 180.063 45.4307L177.004 44.9837C177.292 45.5511 178.038 45.6478 178.643 45.8435C179.249 46.0392 179.877 46.7079 179.513 47.2299C178.857 47.021 178.262 47.6769 177.931 48.2804C177.599 48.8839 177.196 49.6067 176.508 49.6435C175.892 49.6764 175.148 49.1522 174.746 49.6202C175.301 50.3196 175.776 51.0786 176.162 51.8832C176.558 52.7091 176.841 53.7499 176.305 54.493C176.221 54.6257 176.093 54.7248 175.943 54.7735C175.506 54.8842 175.221 54.3489 174.907 54.0244C174.512 53.6155 173.914 53.4996 173.378 53.3079C172.843 53.1161 172.279 52.7388 172.237 52.1715C172.211 51.8185 172.397 51.4904 172.534 51.1642C172.765 50.6143 172.866 50.0186 172.829 49.4234C172.799 48.9446 172.665 48.4465 172.321 48.1119C171.977 47.7774 171.383 47.6712 171.014 47.9777C170.842 48.1206 170.704 48.3493 170.48 48.3579C170.085 48.373 169.781 47.6839 169.463 47.9191C169.501 48.1698 169.449 48.4256 169.317 48.6418C168.368 49.4671 166.91 49.1179 165.686 49.4095C165.105 49.576 164.548 49.8192 164.03 50.1328C163.837 50.2155 163.672 50.3538 163.557 50.5301C163.404 50.8269 163.572 51.2069 163.842 51.4042C164.127 51.5793 164.448 51.6888 164.781 51.7248C166.272 52.0073 167.785 52.4445 168.963 53.4025C170.14 54.3605 170.913 55.944 170.54 57.4155L167.599 54.6052C167.71 55.7852 167.774 56.9684 167.789 58.1549C167.808 58.3866 167.776 58.6196 167.696 58.8377C167.486 59.3009 166.918 59.4567 166.42 59.5589C166.281 59.5852 166.15 59.6406 166.034 59.7213C165.919 59.802 165.821 59.9062 165.749 60.0271C165.676 60.1481 165.63 60.283 165.614 60.423C165.597 60.563 165.61 60.7049 165.653 60.8395C165.829 61.4162 166.271 61.8658 166.675 62.3138C167.078 62.7618 167.476 63.271 167.529 63.872C167.582 64.4729 167.128 65.1502 166.527 65.1084C166.07 65.0767 165.732 64.6683 165.537 64.2545C165.343 63.8407 165.227 63.3797 164.935 63.028C164.05 61.9638 162.062 62.4197 161.269 61.2851C161.067 61.5143 160.927 61.7914 160.862 62.09C160.797 62.3886 160.81 62.6989 160.899 62.9913C161.267 62.7604 161.772 62.9749 162.049 63.3104C162.326 63.6458 162.457 64.0759 162.675 64.4527C162.968 64.9612 163.436 65.4119 163.477 65.9976C163.466 66.2191 163.47 66.441 163.488 66.662C163.561 67.0169 163.861 67.2717 164.069 67.5683C164.553 68.2586 164.529 69.2068 164.217 69.9899C163.905 70.773 163.344 71.4274 162.789 72.0619C161.82 73.17 160.831 74.2716 159.681 75.1919C159.353 75.4545 159.003 75.7127 158.799 76.0798C158.595 76.4469 158.584 76.9622 158.898 77.2415C158.674 77.2527 158.271 77.3632 158.046 77.3744C157.967 76.4735 157.95 75.5682 157.995 74.665C157.109 74.2394 156.155 75.3791 156.269 76.3555C156.383 77.332 157.09 78.1156 157.592 78.9604C157.96 79.5782 158.233 80.2986 158.111 81.007C157.988 81.7154 157.355 82.3689 156.639 82.3064C155.5 82.207 155.023 80.5715 153.895 80.3843C153.796 80.361 153.691 80.3713 153.598 80.4138C153.431 80.5057 153.402 80.7298 153.392 80.9206C153.346 81.857 153.306 82.8307 153.672 83.694C154.207 84.9571 155.588 86.0179 155.298 87.3586C153.737 86.6329 152.926 84.8821 152.557 83.2004C152.188 81.5187 152.127 79.7533 151.466 78.1635C150.965 78.8065 149.91 78.2749 149.452 77.6004C149.018 76.961 148.75 76.2212 148.328 75.5731C147.907 74.925 147.261 74.3447 146.489 74.3091C145.679 74.2717 144.977 74.8274 144.359 75.3524C143.851 75.7842 143.33 76.2329 143.033 76.8297C142.601 77.6982 142.714 78.722 142.693 79.6917C142.671 80.7401 142.449 81.8462 141.734 82.6137C141.019 83.3812 139.701 83.6485 138.912 82.9568C138.501 82.5957 138.302 82.0562 138.124 81.5383C137.269 79.0418 136.557 76.4987 135.991 73.9212C135.858 74.5095 135.342 75.2677 134.848 74.9212C134.737 74.828 134.648 74.7124 134.585 74.582C133.664 73.0219 131.96 72.086 130.237 71.5249C128.515 70.9638 126.703 70.7021 124.999 70.0854C124.045 69.7397 123.133 69.2856 122.282 68.732C122.065 69.0507 121.939 69.4221 121.916 69.8069C121.893 70.1918 121.974 70.5756 122.152 70.9179C122.529 71.5869 123.384 71.974 124.116 71.7402C124.495 71.6193 124.814 71.3568 125.189 71.2271C125.565 71.0974 126.068 71.1611 126.232 71.5226C126.389 71.8687 126.152 72.2874 126.27 72.6487C126.449 73.199 127.279 73.2414 127.569 73.7422C127.785 74.1149 127.608 74.6097 127.299 74.9103C126.991 75.211 126.58 75.3759 126.203 75.5852C124.982 76.2643 124.113 77.4236 123.046 78.3256C121.979 79.2275 120.473 79.8861 119.201 79.3075C119.504 77.7722 117.675 76.645 117.339 75.1166C117.228 74.6136 117.286 74.0792 117.127 73.589C116.899 72.8792 116.269 72.3912 115.752 71.8533C115.126 71.1938 114.638 70.4155 114.317 69.5643C113.996 68.7131 113.849 67.8063 113.884 66.8973C113.912 66.2656 114.028 65.6237 113.884 65.008C113.74 64.3923 113.23 63.7964 112.599 63.8243C111.156 63.888 109.338 63.9953 108.581 62.7655C108.311 62.3266 108.194 61.6837 108.584 61.3474C108.86 61.1102 109.267 61.1325 109.628 61.1681L112.879 61.4879C113.639 61.5627 114.461 61.6244 115.114 61.2269C115.766 60.8295 116.049 59.7745 115.445 59.3068C115.003 58.9652 114.212 58.9837 114.084 58.4405C113.977 57.988 114.478 57.4747 114.207 57.0966C114.014 56.8255 113.578 56.9007 113.313 57.1039C113.049 57.3072 112.857 57.6044 112.562 57.7583C112.043 58.0282 111.423 57.7713 110.865 57.5967C110.307 57.4221 109.559 57.4073 109.288 57.9256C108.986 58.5052 109.557 59.2648 109.256 59.8456C108.859 60.6136 107.514 60.1764 106.956 60.837C106.316 61.595 107.392 62.7252 107.176 63.6936C106.9 63.8301 106.594 63.8927 106.287 63.8755C105.98 63.8582 105.683 63.7616 105.424 63.5951C105.17 63.4222 104.967 63.1835 104.838 62.9045C104.708 62.6255 104.657 62.3166 104.689 62.0107C104.742 61.5751 104.969 61.1305 104.817 60.7188C104.694 60.386 104.36 60.1879 104.049 60.0162L100.891 58.2707C100.597 58.8147 100.968 59.4892 101.432 59.8978C101.895 60.3065 102.476 60.6142 102.781 61.152C102.974 61.5246 103.017 61.9567 102.902 62.3601C102.786 62.7634 102.522 63.1076 102.161 63.3224C102.116 63.3536 102.065 63.3746 102.011 63.384C101.957 63.3934 101.901 63.391 101.848 63.377C101.798 63.3474 101.754 63.308 101.719 63.2611C101.684 63.2141 101.659 63.1607 101.645 63.1039C101.088 61.6776 100.251 60.2714 98.9132 59.5263C97.5754 58.7812 95.653 58.9344 94.7757 60.1895C94.5673 60.4876 94.4275 60.8274 94.246 61.1426C93.2815 62.8172 91.214 63.6101 89.2823 63.5583C89.0934 63.5688 88.9054 63.5246 88.7408 63.4311C88.4286 63.2155 88.4427 62.7579 88.4905 62.3815L88.6933 60.7842C88.734 60.4635 88.793 60.1089 89.0468 59.9087C89.4047 59.6265 89.9209 59.8046 90.3767 59.798C90.7219 59.7819 91.0539 59.6599 91.3275 59.4487C91.6011 59.2376 91.8032 58.9474 91.9063 58.6175C91.9984 58.2843 91.9978 57.9324 91.9046 57.5995C91.8115 57.2667 91.6292 56.9656 91.3776 56.7287C91.1687 56.5325 90.8883 56.2861 90.9987 56.0216C91.0427 55.9484 91.1022 55.8858 91.173 55.8381C91.2438 55.7904 91.3243 55.7588 91.4086 55.7456C92.2272 55.5078 93.0922 55.4455 93.8971 55.165C94.7021 54.8846 95.4827 54.3107 95.6733 53.4799C95.7317 53.2252 95.7583 52.9168 95.987 52.7906C96.1018 52.7421 96.225 52.7169 96.3496 52.7165C96.786 52.6544 97.1834 52.4312 97.4634 52.0908C97.7435 51.7504 97.886 51.3175 97.8629 50.8773C98.2487 50.6078 98.7891 50.8061 99.1623 51.0928C99.5355 51.3795 99.865 51.7583 100.319 51.8819C101.165 52.1122 101.983 51.3629 102.86 51.3594C103.229 51.358 103.611 51.4884 103.958 51.3633C104.31 51.2366 104.52 50.8864 104.79 50.6277C105.06 50.369 105.533 50.2113 105.783 50.4899L105.57 48.9175C105.998 49.0255 106.444 49.0408 106.877 48.9624C107.311 48.8839 107.723 48.7136 108.086 48.4627L105.343 47.5357C105.247 47.5118 105.159 47.4647 105.086 47.3985C104.887 47.1837 105.085 46.849 105.247 46.6049C105.635 46.0208 105.7 45.0587 105.062 44.7679C104.626 44.5694 104.126 44.8077 103.708 45.0408L101.706 46.1573C101.642 46.5379 102.108 46.7536 102.396 47.01C102.571 47.1651 102.694 47.3694 102.751 47.596C102.807 47.8226 102.793 48.061 102.712 48.2797C102.63 48.4985 102.484 48.6874 102.293 48.8217C102.102 48.956 101.875 49.0294 101.642 49.0323C101.773 49.2037 101.865 49.4026 101.91 49.6143C101.954 49.8259 101.951 50.0449 101.899 50.2549L100.552 50.3518C100.401 50.3822 100.243 50.3516 100.115 50.2665C99.9707 50.1386 99.9902 49.9143 99.9568 49.7245C99.8762 49.2664 99.4276 48.9453 98.9698 48.8629C98.512 48.7806 98.0436 48.8861 97.5903 48.9903C97.3978 49.0596 97.1864 49.0547 96.9973 48.9767C96.8889 48.9062 96.8065 48.8022 96.7627 48.6805C96.564 48.1986 96.7497 47.6322 97.0689 47.2201C97.3881 46.808 97.8251 46.5067 98.2176 46.1636C99.1561 45.3402 99.8456 44.2707 100.208 43.076C100.95 42.7652 101.718 42.343 102.46 42.0322C103.603 41.4533 104.885 41.2048 106.162 41.3148L108.674 41.3628C109.418 41.377 110.182 41.3952 110.869 41.6787C111.557 41.9622 112.161 42.5754 112.209 43.3177C112.223 43.4017 112.216 43.488 112.187 43.5685C112.159 43.6489 112.111 43.7209 112.047 43.7777C111.95 43.8307 111.84 43.8555 111.73 43.8492C111.036 43.8736 110.741 44.0464 110.047 44.0708Z" fill="#1E1E1E"/>
<path d="M90.0265 51.9429C90.1246 51.85 90.1953 51.7318 90.2306 51.6014C90.266 51.471 90.2647 51.3334 90.2269 51.2036C89.9881 51.1115 89.7284 51.0878 89.4768 51.1353C89.2253 51.1828 88.9921 51.2996 88.8033 51.4725C88.6545 51.623 88.5263 51.7925 88.422 51.9766C88.0919 52.5151 87.8 53.1584 87.9912 53.7603C88.0068 53.8259 88.0354 53.8878 88.0752 53.9423C88.115 53.9967 88.1653 54.0427 88.2231 54.0775C88.3089 54.1119 88.4013 54.1263 88.4934 54.1198C88.857 54.1193 89.2203 54.097 89.5812 54.0528C89.8028 54.0257 90.0603 53.9632 90.1459 53.7569C90.2585 53.4859 89.986 53.1791 90.0654 52.8965C90.1177 52.7702 90.1969 52.6568 90.2975 52.5642C90.3475 52.5175 90.3858 52.4599 90.4096 52.3959C90.4333 52.3318 90.4419 52.2632 90.4344 52.1953C90.4024 52.0627 90.1994 51.9875 90.1263 52.1026" fill="#1E1E1E"/>
<path d="M91.9119 49.4984C91.5889 49.4243 91.2559 49.4034 90.9262 49.4366C90.8532 49.4344 90.781 49.4508 90.7161 49.4843C90.6533 49.5306 90.6078 49.5966 90.5867 49.6717C90.5171 49.8953 90.5342 50.1368 90.6346 50.3483C90.7351 50.5598 90.9116 50.7257 91.1288 50.8129C91.2473 50.8401 91.3607 50.8857 91.465 50.948C91.7438 51.1643 91.5661 51.6064 91.6189 51.9553C91.6782 52.3471 92.0574 52.6759 91.9878 53.066C91.9331 53.3733 91.6048 53.6167 91.6577 53.9243C91.713 54.2466 92.1219 54.3434 92.4479 54.3692C92.6367 54.4023 92.8312 54.38 93.0077 54.305C93.1846 54.1841 93.3104 54.0018 93.3609 53.7935C93.4943 53.3963 93.5504 52.9773 93.5261 52.559C93.5246 52.3687 93.4768 52.1817 93.3869 52.0141C93.2887 51.8813 93.1799 51.7567 93.0615 51.6416C92.4371 50.9152 93.0946 49.8318 91.9119 49.4984Z" fill="#1E1E1E"/>
<path opacity="0.8" d="M174.027 106.4C174.027 106.4 126.2 78.9461 105.609 84.1478C105.609 84.1478 61.9726 88.8438 56.9153 99.175C56.9153 99.175 43.0441 55.8273 37.9868 54.3823" stroke="#6C9098" stroke-width="2" stroke-miterlimit="10"/>
<path opacity="0.8" d="M56.9153 99.175C64.9347 77.7901 137.181 54.0933 137.181 54.0933C126.922 56.6941 105.609 84.1477 105.609 84.1477C105.609 84.1477 60.5277 51.3479 37.9868 54.3822C37.9868 54.3822 137.253 57.6333 174.027 106.4" stroke="#6C9098" stroke-width="2" stroke-miterlimit="10"/>
<path d="M37.9867 56.4774C39.1439 56.4774 40.0819 55.5394 40.0819 54.3823C40.0819 53.2251 39.1439 52.2871 37.9867 52.2871C36.8296 52.2871 35.8916 53.2251 35.8916 54.3823C35.8916 55.5394 36.8296 56.4774 37.9867 56.4774Z" fill="#07A0C3"/>
<path d="M56.9153 101.27C58.0724 101.27 59.0105 100.332 59.0105 99.175C59.0105 98.0179 58.0724 97.0798 56.9153 97.0798C55.7582 97.0798 54.8202 98.0179 54.8202 99.175C54.8202 100.332 55.7582 101.27 56.9153 101.27Z" fill="#07A0C3"/>
<path d="M137.181 56.1885C138.338 56.1885 139.276 55.2504 139.276 54.0933C139.276 52.9362 138.338 51.9982 137.181 51.9982C136.024 51.9982 135.086 52.9362 135.086 54.0933C135.086 55.2504 136.024 56.1885 137.181 56.1885Z" fill="#07A0C3"/>
<path d="M174.027 108.495C175.184 108.495 176.122 107.557 176.122 106.4C176.122 105.242 175.184 104.304 174.027 104.304C172.869 104.304 171.931 105.242 171.931 106.4C171.931 107.557 172.869 108.495 174.027 108.495Z" fill="#07A0C3"/>
<path d="M105.609 86.2429C106.766 86.2429 107.704 85.3049 107.704 84.1478C107.704 82.9906 106.766 82.0526 105.609 82.0526C104.452 82.0526 103.514 82.9906 103.514 84.1478C103.514 85.3049 104.452 86.2429 105.609 86.2429Z" fill="#07A0C3"/>
</g>
<defs>
<clipPath id="clip0_131_656">
<rect width="205.978" height="153" fill="white" transform="translate(0.510742)"/>
</clipPath>
</defs>
</svg>
