<svg width="548" height="200" viewBox="0 0 548 200" fill="none" xmlns="http://www.w3.org/2000/svg">
<g clip-path="url(#clip0_155_989)">
<path d="M329.974 199.599H206.435V42.3101C206.435 21.8402 223.108 5.18665 243.603 5.18665H292.806C313.3 5.18665 329.974 21.8402 329.974 42.3101V199.599Z" fill="#E6E6E6"/>
<path d="M287.757 40.5779H249.189C246.093 40.5779 243.574 38.0619 243.574 34.9691V24.665C243.574 21.5722 246.093 19.0562 249.189 19.0562H287.757C290.854 19.0562 293.373 21.5722 293.373 24.665V34.9691C293.373 38.0619 290.854 40.5779 287.757 40.5779Z" fill="white"/>
<path d="M269.401 85.2951V8.29535H268.923V85.2951H269.401Z" fill="#E6E6E6"/>
<path d="M315.494 170.425H305.669C302.833 170.425 300.526 168.121 300.526 165.289V135.388C300.526 132.556 302.833 130.251 305.669 130.251H315.494C318.33 130.251 320.637 132.556 320.637 135.388V165.289C320.637 168.121 318.33 170.425 315.494 170.425Z" fill="white"/>
<path d="M251.33 191.469H224.266C221.431 191.469 219.124 189.164 219.124 186.332V133.475C219.124 130.643 221.431 128.338 224.266 128.338H251.33C254.166 128.338 256.473 130.643 256.473 133.475V186.332C256.473 189.164 254.166 191.469 251.33 191.469Z" fill="white"/>
<path d="M257.135 132.404H218.487C217.033 132.404 215.803 131.511 215.354 130.129C214.906 128.747 215.377 127.303 216.555 126.45L236.086 112.313C237.254 111.469 238.819 111.477 239.978 112.334L259.095 126.471C260.258 127.331 260.716 128.773 260.263 130.145C259.809 131.517 258.582 132.404 257.135 132.404Z" fill="#CCCCCC"/>
<path d="M319.52 132.882H301.669C300.214 132.882 298.985 131.989 298.536 130.607C298.087 129.225 298.559 127.781 299.736 126.928L308.758 120.399C309.926 119.554 311.49 119.562 312.65 120.42L321.479 126.949C322.642 127.808 323.101 129.251 322.647 130.623C322.194 131.995 320.966 132.882 319.52 132.882Z" fill="#CCCCCC"/>
<path d="M311.557 104.904H300.508C298.01 104.904 295.977 102.873 295.977 100.378V69.2557C295.977 66.7602 298.01 64.73 300.508 64.73H311.557C314.056 64.73 316.088 66.7603 316.088 69.2557V100.378C316.088 102.874 314.056 104.904 311.557 104.904Z" fill="white"/>
<path d="M273.729 104.904H262.68C260.181 104.904 258.149 102.873 258.149 100.378V69.2557C258.149 66.7602 260.181 64.73 262.68 64.73H273.729C276.228 64.73 278.26 66.7603 278.26 69.2557V100.378C278.26 102.874 276.228 104.904 273.729 104.904Z" fill="white"/>
<path d="M235.422 104.904H224.373C221.875 104.904 219.842 102.873 219.842 100.378V69.2557C219.842 66.7602 221.875 64.73 224.373 64.73H235.422C237.921 64.73 239.953 66.7603 239.953 69.2557V100.378C239.953 102.874 237.921 104.904 235.422 104.904Z" fill="white"/>
<path d="M314.892 68.3169H221.517C219.845 68.3169 218.821 67.1339 218.548 65.962C218.275 64.7893 218.671 63.2765 220.173 62.5395L267.361 39.3789C268.211 38.9619 269.225 38.9656 270.073 39.3906L316.26 62.5512C317.568 63.2078 318.196 64.5515 317.858 65.9746C317.52 67.3973 316.356 68.3169 314.892 68.3169Z" fill="#CCCCCC"/>
<path d="M329.734 199.36H211.24V187.349C211.24 177.885 225.266 170.186 242.507 170.186H329.734V199.36Z" fill="#1E1E1E"/>
<path d="M283.766 153.208H277.542V176.164H283.766V153.208Z" fill="#1E1E1E"/>
<path d="M329.735 153.208H323.51V176.164H329.735V153.208Z" fill="#1E1E1E"/>
<path d="M325.425 155.121H282.809V155.599H325.425V155.121Z" fill="#1E1E1E"/>
<path d="M320.637 84.8168H217.208V85.2951H320.637V84.8168Z" fill="#E6E6E6"/>
<path d="M325.425 162.773H282.809V163.251H325.425V162.773Z" fill="#1E1E1E"/>
<path d="M325.425 166.599H282.809V167.077H325.425V166.599Z" fill="#1E1E1E"/>
<path d="M292.387 21.0972H244.022C243.269 21.0972 242.632 20.6353 242.4 19.9198C242.168 19.2047 242.412 18.4574 243.021 18.0161L267.463 0.325145C268.068 -0.111546 268.877 -0.108745 269.477 0.335886L293.401 18.0268C294.003 18.4714 294.24 19.2178 294.005 19.9282C293.771 20.6381 293.135 21.0972 292.387 21.0972Z" fill="#CCCCCC"/>
<path d="M229.658 160.382H221.039V161.338H229.658V160.382Z" fill="#E6E6E6"/>
<path d="M189.756 199.599H66.2163V42.3101C66.2163 21.8402 82.89 5.18665 103.384 5.18665H152.588C173.082 5.18665 189.756 21.8402 189.756 42.3101V199.599Z" fill="#E6E6E6"/>
<path d="M147.539 40.5779H108.971C105.874 40.5779 103.355 38.0619 103.355 34.9691V24.665C103.355 21.5722 105.874 19.0562 108.971 19.0562H147.539C150.635 19.0562 153.154 21.5722 153.154 24.665V34.9691C153.154 38.0619 150.635 40.5779 147.539 40.5779Z" fill="white"/>
<path d="M129.183 85.2951V8.29535H128.704V85.2951H129.183Z" fill="#E6E6E6"/>
<path d="M175.276 170.425H165.45C162.615 170.425 160.308 168.121 160.308 165.289V135.388C160.308 132.556 162.615 130.251 165.45 130.251H175.276C178.112 130.251 180.419 132.556 180.419 135.388V165.289C180.419 168.121 178.112 170.425 175.276 170.425Z" fill="white"/>
<path d="M111.112 191.469H84.0481C81.2122 191.469 78.9053 189.164 78.9053 186.332V133.475C78.9053 130.643 81.2122 128.338 84.0481 128.338H111.112C113.947 128.338 116.254 130.643 116.254 133.475V186.332C116.254 189.164 113.947 191.469 111.112 191.469Z" fill="white"/>
<path d="M116.917 132.404H78.269C76.8145 132.404 75.5847 131.511 75.136 130.129C74.6876 128.747 75.1587 127.303 76.3364 126.45L95.8674 112.313C97.0359 111.469 98.6003 111.477 99.7598 112.334L118.876 126.471C120.039 127.331 120.498 128.773 120.045 130.145C119.591 131.517 118.364 132.404 116.917 132.404Z" fill="#CCCCCC"/>
<path d="M179.301 132.882H161.451C159.996 132.882 158.766 131.989 158.318 130.607C157.869 129.225 158.34 127.781 159.518 126.928L168.539 120.399C169.708 119.554 171.272 119.562 172.431 120.42L181.261 126.949C182.424 127.808 182.882 129.251 182.429 130.623C181.976 131.995 180.748 132.882 179.301 132.882Z" fill="#CCCCCC"/>
<path d="M171.339 104.904H160.29C157.791 104.904 155.759 102.873 155.759 100.378V69.2557C155.759 66.7602 157.791 64.73 160.29 64.73H171.339C173.837 64.73 175.87 66.7603 175.87 69.2557V100.378C175.87 102.874 173.837 104.904 171.339 104.904Z" fill="white"/>
<path d="M133.511 104.904H122.462C119.963 104.904 117.931 102.873 117.931 100.378V69.2557C117.931 66.7602 119.963 64.73 122.462 64.73H133.511C136.009 64.73 138.042 66.7603 138.042 69.2557V100.378C138.042 102.874 136.009 104.904 133.511 104.904Z" fill="white"/>
<path d="M95.2042 104.904H84.155C81.6565 104.904 79.624 102.873 79.624 100.378V69.2557C79.624 66.7602 81.6565 64.73 84.155 64.73H95.2042C97.7026 64.73 99.7351 66.7603 99.7351 69.2557V100.378C99.7351 102.874 97.7026 104.904 95.2042 104.904Z" fill="white"/>
<path d="M174.674 68.3169H81.2987C79.6263 68.3169 78.6024 67.1339 78.3296 65.962C78.0567 64.7893 78.4532 63.2765 79.9543 62.5395L127.142 39.3789C127.993 38.9619 129.006 38.9656 129.854 39.3906L176.041 62.5512C177.35 63.2078 177.978 64.5515 177.64 65.9746C177.302 67.3973 176.138 68.3169 174.674 68.3169Z" fill="#CCCCCC"/>
<path d="M189.516 199.36H124.634V187.349C124.634 177.885 132.314 170.186 141.754 170.186H189.516V199.36Z" fill="#1E1E1E"/>
<path d="M143.548 153.208H137.323V176.164H143.548V153.208Z" fill="#1E1E1E"/>
<path d="M189.516 153.208H183.292V176.164H189.516V153.208Z" fill="#1E1E1E"/>
<path d="M185.207 155.121H142.59V155.599H185.207V155.121Z" fill="#1E1E1E"/>
<path d="M180.419 84.8168H76.9902V85.2951H180.419V84.8168Z" fill="#E6E6E6"/>
<path d="M185.207 162.773H142.59V163.251H185.207V162.773Z" fill="#1E1E1E"/>
<path d="M185.207 166.599H142.59V167.077H185.207V166.599Z" fill="#1E1E1E"/>
<path d="M152.168 21.0972H103.803C103.05 21.0972 102.414 20.6353 102.182 19.9198C101.95 19.2047 102.194 18.4574 102.803 18.0161L127.245 0.325145C127.85 -0.111546 128.659 -0.108745 129.259 0.335886L153.182 18.0268C153.784 18.4714 154.022 19.2178 153.787 19.9282C153.553 20.6381 152.917 21.0972 152.168 21.0972Z" fill="#CCCCCC"/>
<path d="M89.4398 160.382H80.8208V161.338H89.4398V160.382Z" fill="#E6E6E6"/>
<path d="M465.67 199.599H342.13V42.3101C342.13 21.8402 358.804 5.18665 379.299 5.18665H428.502C448.996 5.18665 465.67 21.8402 465.67 42.3101V199.599Z" fill="#E6E6E6"/>
<path d="M423.453 40.5779H384.885C381.789 40.5779 379.27 38.0619 379.27 34.9691V24.665C379.27 21.5722 381.789 19.0562 384.885 19.0562H423.453C426.549 19.0562 429.068 21.5722 429.068 24.665V34.9691C429.068 38.0619 426.549 40.5779 423.453 40.5779Z" fill="white"/>
<path d="M405.097 85.2951V8.29535H404.618V85.2951H405.097Z" fill="#E6E6E6"/>
<path d="M451.19 170.425H441.364C438.529 170.425 436.222 168.121 436.222 165.289V135.388C436.222 132.556 438.529 130.251 441.364 130.251H451.19C454.026 130.251 456.333 132.556 456.333 135.388V165.289C456.333 168.121 454.026 170.425 451.19 170.425Z" fill="white"/>
<path d="M387.026 191.469H359.962C357.126 191.469 354.819 189.164 354.819 186.332V133.475C354.819 130.643 357.126 128.338 359.962 128.338H387.026C389.861 128.338 392.168 130.643 392.168 133.475V186.332C392.168 189.164 389.862 191.469 387.026 191.469Z" fill="white"/>
<path d="M392.831 132.404H354.183C352.729 132.404 351.499 131.511 351.05 130.129C350.602 128.747 351.073 127.303 352.25 126.45L371.781 112.313C372.95 111.469 374.514 111.477 375.674 112.334L394.791 126.471C395.953 127.331 396.412 128.773 395.959 130.145C395.505 131.517 394.278 132.404 392.831 132.404Z" fill="#CCCCCC"/>
<path d="M455.215 132.882H437.365C435.91 132.882 434.68 131.989 434.232 130.607C433.783 129.225 434.254 127.781 435.432 126.928L444.453 120.399C445.622 119.554 447.186 119.562 448.345 120.42L457.175 126.949C458.338 127.808 458.796 129.251 458.343 130.623C457.89 131.995 456.662 132.882 455.215 132.882Z" fill="#CCCCCC"/>
<path d="M447.253 104.904H436.204C433.705 104.904 431.673 102.873 431.673 100.378V69.2557C431.673 66.7602 433.705 64.73 436.204 64.73H447.253C449.751 64.73 451.784 66.7603 451.784 69.2557V100.378C451.784 102.874 449.751 104.904 447.253 104.904Z" fill="white"/>
<path d="M409.425 104.904H398.376C395.877 104.904 393.845 102.873 393.845 100.378V69.2557C393.845 66.7602 395.877 64.73 398.376 64.73H409.425C411.923 64.73 413.956 66.7603 413.956 69.2557V100.378C413.956 102.874 411.923 104.904 409.425 104.904Z" fill="white"/>
<path d="M371.118 104.904H360.069C357.571 104.904 355.538 102.873 355.538 100.378V69.2557C355.538 66.7602 357.571 64.73 360.069 64.73H371.118C373.617 64.73 375.649 66.7603 375.649 69.2557V100.378C375.649 102.874 373.617 104.904 371.118 104.904Z" fill="white"/>
<path d="M450.588 68.3169H357.213C355.54 68.3169 354.516 67.1339 354.244 65.962C353.971 64.7893 354.367 63.2765 355.868 62.5395L403.056 39.3789C403.907 38.9619 404.92 38.9656 405.768 39.3906L451.955 62.5512C453.264 63.2078 453.892 64.5515 453.554 65.9746C453.216 67.3973 452.052 68.3169 450.588 68.3169Z" fill="#CCCCCC"/>
<path d="M465.431 199.36H400.548V187.349C400.548 177.885 408.228 170.186 417.669 170.186H465.431V199.36Z" fill="#1E1E1E"/>
<path d="M419.462 153.208H413.237V176.164H419.462V153.208Z" fill="#1E1E1E"/>
<path d="M465.43 153.208H459.206V176.164H465.43V153.208Z" fill="#1E1E1E"/>
<path d="M461.121 155.121H418.504V155.599H461.121V155.121Z" fill="#1E1E1E"/>
<path d="M456.333 84.8168H352.904V85.2951H456.333V84.8168Z" fill="#E6E6E6"/>
<path d="M461.121 162.773H418.504V163.251H461.121V162.773Z" fill="#1E1E1E"/>
<path d="M461.121 166.599H418.504V167.077H461.121V166.599Z" fill="#1E1E1E"/>
<path d="M428.082 21.0972H379.717C378.964 21.0972 378.328 20.6353 378.096 19.9198C377.864 19.2047 378.108 18.4574 378.717 18.0161L403.159 0.325145C403.764 -0.111546 404.573 -0.108745 405.173 0.335886L429.097 18.0268C429.698 18.4714 429.936 19.2178 429.701 19.9282C429.467 20.6381 428.831 21.0972 428.082 21.0972Z" fill="#CCCCCC"/>
<path d="M365.354 160.382H356.735V161.338H365.354V160.382Z" fill="#E6E6E6"/>
<path d="M86.8925 197.922C86.9321 198.255 86.9434 198.566 86.9208 198.871H70.1341C69.9814 198.566 69.8514 198.249 69.7383 197.922C67.6859 192.032 71.0614 182.228 66.7813 167.692C63.6038 156.906 57.6728 148.469 54.908 144.539C51.5099 139.705 47.6595 135.244 43.1986 128.117C42.2317 126.575 41.2366 124.904 40.2076 123.08C39.8627 122.47 35.888 115.394 36.2498 115.174C36.4194 115.072 37.4711 116.501 37.8273 116.981C40.9709 121.227 42.7971 123.085 45.4149 126.141C47.0037 127.993 48.8808 130.28 51.5156 133.809C58.2721 142.851 61.6475 147.368 62.8235 150.751C63.1345 151.654 64.7911 156.545 67.9121 162.61C69.5065 165.705 70.3037 167.252 70.7391 167.128C71.9717 166.772 70.3094 153.959 65.0851 141.151C64.1918 138.971 63.5246 137.576 62.2581 134.939C60.2001 130.636 48.7395 106.72 40.315 92.4043C39.2577 90.6028 38.2457 88.9595 37.3128 87.5195C37.1318 87.2484 36.9566 86.983 36.787 86.7289C35.6109 84.9782 34.5706 83.5946 33.7055 82.7024C33.2476 82.228 32.0828 80.884 29.7477 78.1847C28.8205 77.1117 28.142 76.3155 27.684 75.7338C27.6162 75.6491 27.554 75.5644 27.5031 75.491C26.949 74.7681 26.7907 74.418 26.9208 74.2317C27.1073 73.9662 27.8254 74.1187 28.6113 74.3954C28.6961 74.4236 28.7866 74.4575 28.8714 74.4914C29.7251 74.8076 30.5902 75.2199 30.8785 75.3611C33.5246 76.6317 36.1085 78.9075 38.5001 81.6125C39.3878 82.612 40.2415 83.6681 41.067 84.7524C43.7244 88.2536 46.0425 92.0654 47.7952 95.1996C49.9437 99.0623 51.2329 101.903 51.2329 101.903C57.2317 115.134 63.8865 130.269 64.237 130.139C64.6215 129.998 57.2431 111.159 55.0946 100.926C54.3765 97.498 54.2465 95.0359 55.1907 94.5615C55.2246 94.5446 55.2585 94.5276 55.2981 94.5163C55.4451 94.4655 55.5808 94.4711 55.6543 94.4768C55.6543 94.4768 56.5306 94.3638 57.4522 94.5615C58.6 94.81 59.9061 98.0006 61.1782 102.479C64.4858 114.022 67.6294 134.092 67.6294 134.092C70.773 154.167 75.545 170.414 76.6758 170.234C77.3034 170.132 76.4044 165.089 77.2412 156.68C77.8292 150.785 78.4963 150.966 80.6336 140.304C84.026 123.39 85.7221 114.937 85.7221 114.891C85.7052 114.536 85.66 113.818 85.7674 113.073C85.8805 112.265 86.1688 111.418 86.8529 110.938C87.8933 110.204 89.5668 110.52 90.2453 110.938C90.7881 111.277 91.0652 111.898 91.1273 112.791C91.5005 118.404 83.4266 134.679 80.6336 156.68C79.2427 167.642 78.4794 173.622 80.6336 181.528C82.7651 189.366 86.4798 194.358 86.8925 197.922Z" fill="#1E1E1E"/>
<path d="M109.752 56.443C105.113 55.6001 99.3525 58.7012 99.0093 62.0902C98.7268 64.88 102.16 67.4271 101.836 67.7374C101.534 68.0274 99.4067 64.9665 96.7477 64.9138C92.7298 64.8341 87.9075 71.6307 89.3975 75.6435C90.5936 78.8646 95.7184 79.9182 95.6169 80.1612C95.5212 80.3903 91.6165 77.8904 87.7013 78.4671C82.0956 79.2926 76.7276 86.3869 78.0896 90.8909C79.6114 95.9235 89.463 97.4818 89.3975 97.6675C89.3284 97.8637 79.4822 92.8289 75.828 95.9733C73.377 98.0824 73.7285 102.999 75.2626 106.138C78.4645 112.691 88.4533 115.013 93.3553 111.785C97.1669 109.276 94.5965 105.588 98.4439 97.6675C103.169 87.9411 111.386 84.5668 111.448 77.3376C111.454 76.6802 111.472 74.5636 110.317 73.9493C108.473 72.9683 104.914 76.4985 104.663 76.2082C104.392 75.8941 109.156 72.4564 112.013 66.608C112.912 64.7684 114.957 60.5833 113.144 58.1372C112.221 56.8918 110.68 56.6117 109.752 56.443Z" fill="#07A0C3"/>
<path d="M83.7436 45.7134C79.1052 44.8705 73.3442 47.9716 73.001 51.3606C72.7185 54.1503 76.1515 56.6974 75.828 57.0078C75.5256 57.2978 73.3984 54.2369 70.7394 54.1842C66.7215 54.1045 61.8992 60.9011 63.3892 64.9138C64.5853 68.135 69.7101 69.1886 69.6086 69.4316C69.5129 69.6607 65.6082 67.1608 61.693 67.7374C56.0873 68.563 50.7193 75.6573 52.0813 80.1612C53.6031 85.1939 63.4547 86.7522 63.3892 86.9379C63.3201 87.1341 53.4739 82.0992 49.8197 85.2437C47.3687 87.3527 47.7202 92.2691 49.2543 95.4086C52.4562 101.961 62.445 104.284 67.347 101.056C71.1586 98.546 68.5882 94.8581 72.4356 86.9379C77.1604 77.2115 85.3775 73.8371 85.4398 66.608C85.4454 65.9506 85.4637 63.8339 84.309 63.2197C82.4649 62.2387 78.9058 65.7689 78.655 65.4786C78.3837 65.1645 83.1478 61.7268 86.0052 55.8784C86.9039 54.0388 88.9486 49.8537 87.136 47.4076C86.2131 46.1622 84.6716 45.8821 83.7436 45.7134Z" fill="#07A0C3"/>
<path d="M52.2498 33.1743C56.6463 34.8745 59.9383 40.5238 58.4592 43.5931C57.2417 46.1197 52.9823 46.5015 53.0959 46.9349C53.2022 47.34 56.6166 45.8389 58.9119 47.1807C62.3802 49.2082 62.9396 57.5197 59.5711 60.1648C56.867 62.2882 51.9455 60.514 51.9051 60.7742C51.8669 61.0195 56.5039 60.9239 59.5415 63.4575C63.8908 67.0852 64.76 75.9351 61.2438 79.066C57.315 82.5644 48.0984 78.7555 48.0571 78.9479C48.0135 79.1514 59.0429 79.9925 60.5155 84.5801C61.5033 87.657 58.6332 91.6666 55.6836 93.544C49.5271 97.4627 39.7942 94.2336 37.301 88.9242C35.3624 84.7959 39.4825 82.9913 40.3419 74.2299C41.3973 63.4707 36.1535 56.3074 39.8797 50.1096C40.2185 49.546 41.3095 47.7313 42.6155 47.8096C44.701 47.9348 45.8908 52.8017 46.2565 52.6848C46.6521 52.5585 44.3862 47.142 45.0069 40.664C45.2021 38.6264 45.6462 33.9908 48.4709 32.85C49.909 32.2691 51.3701 32.8342 52.2498 33.1743Z" fill="#07A0C3"/>
<path d="M2.32115 36.246C-0.45086 40.0549 -0.151691 46.5846 2.7569 48.3632C5.15116 49.8273 8.93785 47.8423 9.07753 48.268C9.20806 48.666 5.52415 49.2529 4.3234 51.6231C2.50903 55.2046 6.54922 62.4921 10.8155 62.8914C14.2402 63.212 17.4133 59.0567 17.5884 59.2534C17.7536 59.4389 13.805 61.8688 12.6272 65.6425C10.9409 71.0456 15.013 78.9533 19.6669 79.6809C24.8671 80.4939 30.5454 72.3035 30.6845 72.4428C30.8316 72.5902 22.0192 79.268 23.2712 83.9205C24.111 87.041 28.6987 88.8568 32.1963 88.8377C39.4965 88.7978 45.9235 80.8152 45.1374 75.0036C44.5263 70.4848 40.0845 71.1987 34.6077 64.3013C27.8821 55.8309 28.4016 46.9723 21.9068 43.7811C21.3162 43.4909 19.4146 42.5565 18.3596 43.3293C16.6749 44.5635 18.3162 49.2976 17.9454 49.3974C17.5444 49.5054 16.5093 43.7269 12.4723 38.619C11.2025 37.0124 8.3136 33.3572 5.32075 33.9277C3.797 34.2181 2.87578 35.4839 2.32115 36.246Z" fill="#07A0C3"/>
<path d="M6.27916 78.0351C3.50715 81.844 3.80632 88.3737 6.71491 90.1523C9.10917 91.6164 12.8959 89.6314 13.0355 90.0572C13.1661 90.4551 9.48216 91.0421 8.2814 93.4123C6.46704 96.9937 10.5072 104.281 14.7735 104.681C18.1982 105.001 21.3713 100.846 21.5464 101.042C21.7117 101.228 17.763 103.658 16.5852 107.432C14.8989 112.835 18.971 120.742 23.6249 121.47C28.8251 122.283 34.5034 114.093 34.6425 114.232C34.7896 114.379 25.9773 121.057 27.2292 125.71C28.069 128.83 32.6567 130.646 36.1543 130.627C43.4545 130.587 49.8815 122.604 49.0954 116.793C48.4843 112.274 44.0425 112.988 38.5657 106.09C31.8401 97.62 32.3596 88.7614 25.8648 85.5702C25.2742 85.28 23.3726 84.3456 22.3176 85.1184C20.6329 86.3527 22.2742 91.0868 21.9035 91.1866C21.5024 91.2945 20.4673 85.516 16.4303 80.4081C15.1605 78.8015 12.2716 75.1463 9.27875 75.7168C7.75501 76.0072 6.83379 77.2731 6.27916 78.0351Z" fill="#07A0C3"/>
<path d="M219.196 198.086C219.235 198.419 219.247 198.729 219.224 199.034H202.437C202.285 198.729 202.155 198.413 202.042 198.086C199.989 192.196 203.365 182.392 199.085 167.856C195.907 157.07 189.976 148.633 187.211 144.703C183.813 139.869 179.963 135.408 175.502 128.281C174.535 126.739 173.54 125.068 172.511 123.244C172.166 122.634 168.191 115.558 168.553 115.337C168.723 115.236 169.774 116.665 170.13 117.145C173.274 121.391 175.1 123.249 177.718 126.304C179.307 128.157 181.184 130.444 183.819 133.973C190.575 143.014 193.951 147.532 195.127 150.915C195.438 151.818 197.094 156.709 200.215 162.774C201.81 165.868 202.607 167.416 203.042 167.292C204.275 166.936 202.613 154.122 197.388 141.314C196.495 139.135 195.828 137.74 194.561 135.103C192.503 130.799 181.043 106.884 172.618 92.568C171.561 90.7666 170.549 89.1232 169.616 87.6832C169.435 87.4122 169.26 87.1467 169.09 86.8926C167.914 85.142 166.874 83.7584 166.009 82.8662C165.551 82.3918 164.386 81.0478 162.051 78.3484C161.124 77.2755 160.445 76.4792 159.987 75.8975C159.919 75.8129 159.857 75.7281 159.806 75.6547C159.252 74.9319 159.094 74.5817 159.224 74.3954C159.411 74.13 160.129 74.2825 160.915 74.5592C160.999 74.5874 161.09 74.6213 161.175 74.6552C162.028 74.9714 162.893 75.3837 163.182 75.5248C165.828 76.7955 168.412 79.0713 170.803 81.7763C171.691 82.7758 172.545 83.8318 173.37 84.9161C176.028 88.4173 178.346 92.2292 180.098 95.3634C182.247 99.2261 183.536 102.067 183.536 102.067C189.535 115.298 196.19 130.432 196.54 130.303C196.925 130.161 189.546 111.322 187.398 101.09C186.68 97.6618 186.55 95.1996 187.494 94.7253C187.528 94.7083 187.562 94.6914 187.601 94.6801C187.748 94.6292 187.884 94.6349 187.958 94.6405C187.958 94.6405 188.834 94.5276 189.755 94.7253C190.903 94.9737 192.209 98.1644 193.481 102.643C196.789 114.185 199.933 134.256 199.933 134.256C203.076 154.331 207.848 170.578 208.979 170.397C209.607 170.296 208.708 165.253 209.544 156.844C210.132 150.949 210.8 151.129 212.937 140.467C216.329 123.554 218.025 115.1 218.025 115.055C218.008 114.699 217.963 113.982 218.071 113.237C218.184 112.429 218.472 111.582 219.156 111.102C220.197 110.368 221.87 110.684 222.549 111.102C223.091 111.441 223.368 112.062 223.431 112.954C223.804 118.568 215.73 134.843 212.937 156.844C211.546 167.805 210.783 173.786 212.937 181.692C215.068 189.53 218.783 194.522 219.196 198.086Z" fill="#1E1E1E"/>
<path d="M242.055 56.6068C237.417 55.7639 231.656 58.8649 231.313 62.254C231.03 65.0437 234.463 67.5908 234.14 67.9012C233.837 68.1912 231.71 65.1303 229.051 65.0776C225.033 64.9979 220.211 71.7945 221.701 75.8072C222.897 79.0284 228.022 80.082 227.92 80.325C227.824 80.5541 223.92 78.0542 220.005 78.6308C214.399 79.4564 209.031 86.5506 210.393 91.0546C211.915 96.0872 221.766 97.6456 221.701 97.8312C221.632 98.0275 211.785 92.9926 208.131 96.1371C205.68 98.2461 206.032 103.162 207.566 106.302C210.768 112.855 220.757 115.177 225.659 111.949C229.47 109.439 226.9 105.752 230.747 97.8312C235.472 88.1048 243.689 84.7305 243.751 77.5014C243.757 76.844 243.775 74.7273 242.62 74.1131C240.776 73.1321 237.217 76.6623 236.967 76.3719C236.695 76.0578 241.459 72.6202 244.317 66.7717C245.215 64.9322 247.26 60.7471 245.447 58.301C244.525 57.0556 242.983 56.7755 242.055 56.6068Z" fill="#07A0C3"/>
<path d="M216.047 45.8772C211.408 45.0343 205.647 48.1353 205.304 51.5244C205.022 54.3141 208.455 56.8612 208.131 57.1715C207.829 57.4616 205.702 54.4007 203.043 54.348C199.025 54.2683 194.202 61.0648 195.692 65.0776C196.889 68.2988 202.013 69.3524 201.912 69.5953C201.816 69.8245 197.911 67.3246 193.996 67.9012C188.39 68.7268 183.023 75.821 184.384 80.325C185.906 85.3576 195.758 86.916 195.692 87.1016C195.623 87.2979 185.777 82.263 182.123 85.4075C179.672 87.5165 180.023 92.4329 181.558 95.5724C184.759 102.125 194.748 104.447 199.65 101.22C203.462 98.7098 200.891 95.0219 204.739 87.1016C209.464 77.3752 217.681 74.0009 217.743 66.7718C217.749 66.1144 217.767 63.9977 216.612 63.3834C214.768 62.4025 211.209 65.9327 210.958 65.6423C210.687 65.3282 215.451 61.8905 218.308 56.0421C219.207 54.2026 221.252 50.0174 219.439 47.5713C218.516 46.326 216.975 46.0458 216.047 45.8772Z" fill="#07A0C3"/>
<path d="M184.553 33.3381C188.949 35.0383 192.242 40.6876 190.762 43.7569C189.545 46.2834 185.285 46.6653 185.399 47.0987C185.505 47.5038 188.92 46.0027 191.215 47.3445C194.683 49.372 195.243 57.6834 191.874 60.3286C189.17 62.452 184.249 60.6778 184.208 60.9379C184.17 61.1833 188.807 61.0876 191.845 63.6213C196.194 67.249 197.063 76.0989 193.547 79.2298C189.618 82.7281 180.402 78.9192 180.36 79.1117C180.317 79.3151 191.346 80.1563 192.819 84.7438C193.806 87.8208 190.936 91.8304 187.987 93.7078C181.83 97.6264 172.097 94.3974 169.604 89.088C167.666 84.9597 171.786 83.155 172.645 74.3937C173.701 63.6344 168.457 56.4712 172.183 50.2733C172.522 49.7097 173.613 47.895 174.919 47.9734C177.004 48.0985 178.194 52.9654 178.56 52.8486C178.955 52.7222 176.689 47.3057 177.31 40.8277C177.505 38.7902 177.949 34.1545 180.774 33.0137C182.212 32.4329 183.673 32.9979 184.553 33.3381Z" fill="#07A0C3"/>
<path d="M134.624 36.4098C131.852 40.2187 132.152 46.7484 135.06 48.527C137.454 49.9911 141.241 48.0061 141.381 48.4318C141.511 48.8297 137.827 49.4167 136.627 51.7869C134.812 55.3683 138.852 62.6559 143.119 63.0552C146.543 63.3757 149.716 59.2204 149.892 59.4171C150.057 59.6026 146.108 62.0326 144.93 65.8063C143.244 71.2094 147.316 79.1171 151.97 79.8447C157.17 80.6576 162.849 72.4672 162.988 72.6066C163.135 72.754 154.322 79.4318 155.574 84.0842C156.414 87.2047 161.002 89.0205 164.5 89.0014C171.8 88.9616 178.227 80.9789 177.441 75.1674C176.829 70.6486 172.388 71.3625 166.911 64.465C160.185 55.9947 160.705 47.136 154.21 43.9448C153.619 43.6546 151.718 42.7202 150.663 43.4931C148.978 44.7273 150.619 49.4614 150.249 49.5612C149.848 49.6691 148.812 43.8906 144.775 38.7827C143.506 37.1761 140.617 33.5209 137.624 34.0914C136.1 34.3819 135.179 35.6477 134.624 36.4098Z" fill="#07A0C3"/>
<path d="M138.582 78.1989C135.81 82.0078 136.11 88.5375 139.018 90.3161C141.412 91.7802 145.199 89.7952 145.339 90.2209C145.469 90.6188 141.785 91.2058 140.585 93.576C138.77 97.1575 142.81 104.445 147.077 104.844C150.501 105.165 153.674 101.01 153.85 101.206C154.015 101.392 150.066 103.822 148.888 107.595C147.202 112.999 151.274 120.906 155.928 121.634C161.128 122.447 166.807 114.256 166.946 114.396C167.093 114.543 158.28 121.221 159.532 125.873C160.372 128.994 164.96 130.81 168.458 130.791C175.758 130.751 182.185 122.768 181.399 116.956C180.787 112.438 176.346 113.152 170.869 106.254C164.143 97.7838 164.663 88.9252 158.168 85.734C157.577 85.4438 155.676 84.5094 154.621 85.2822C152.936 86.5164 154.577 91.2505 154.207 91.3503C153.806 91.4583 152.77 85.6798 148.733 80.5719C147.464 78.9652 144.575 75.31 141.582 75.8805C140.058 76.171 139.137 77.4368 138.582 78.1989Z" fill="#07A0C3"/>
<path d="M461.107 198.086C461.068 198.419 461.056 198.729 461.079 199.034H477.866C478.018 198.729 478.148 198.413 478.261 198.086C480.314 192.196 476.938 182.392 481.218 167.856C484.396 157.07 490.327 148.633 493.092 144.703C496.49 139.869 500.34 135.408 504.801 128.281C505.768 126.739 506.763 125.068 507.792 123.244C508.137 122.634 512.112 115.558 511.75 115.337C511.58 115.236 510.529 116.665 510.172 117.145C507.029 121.391 505.203 123.249 502.585 126.304C500.996 128.157 499.119 130.444 496.484 133.973C489.728 143.014 486.352 147.532 485.176 150.915C484.865 151.818 483.209 156.709 480.088 162.774C478.493 165.868 477.696 167.416 477.261 167.292C476.028 166.936 477.69 154.122 482.915 141.314C483.808 139.135 484.475 137.74 485.742 135.103C487.8 130.799 499.26 106.884 507.685 92.568C508.742 90.7666 509.754 89.1232 510.687 87.6832C510.868 87.4122 511.043 87.1467 511.213 86.8926C512.389 85.142 513.429 83.7584 514.294 82.8662C514.752 82.3918 515.917 81.0478 518.252 78.3484C519.179 77.2755 519.858 76.4792 520.316 75.8975C520.384 75.8129 520.446 75.7281 520.497 75.6547C521.051 74.9319 521.209 74.5817 521.079 74.3954C520.892 74.13 520.174 74.2825 519.388 74.5592C519.304 74.5874 519.213 74.6213 519.128 74.6552C518.275 74.9714 517.41 75.3837 517.121 75.5248C514.475 76.7955 511.891 79.0713 509.5 81.7763C508.612 82.7758 507.758 83.8318 506.933 84.9161C504.275 88.4173 501.957 92.2292 500.204 95.3634C498.056 99.2261 496.767 102.067 496.767 102.067C490.768 115.298 484.113 130.432 483.763 130.303C483.378 130.161 490.757 111.322 492.905 101.09C493.623 97.6618 493.753 95.1996 492.809 94.7253C492.775 94.7083 492.741 94.6914 492.702 94.6801C492.555 94.6292 492.419 94.6349 492.345 94.6405C492.345 94.6405 491.469 94.5276 490.548 94.7253C489.4 94.9737 488.094 98.1644 486.821 102.643C483.514 114.185 480.37 134.256 480.37 134.256C477.227 154.331 472.455 170.578 471.324 170.397C470.696 170.296 471.595 165.253 470.759 156.844C470.171 150.949 469.503 151.129 467.366 140.467C463.974 123.554 462.278 115.1 462.278 115.055C462.295 114.699 462.34 113.982 462.232 113.237C462.119 112.429 461.831 111.582 461.147 111.102C460.106 110.368 458.433 110.684 457.754 111.102C457.212 111.441 456.935 112.062 456.872 112.954C456.499 118.568 464.573 134.843 467.366 156.844C468.757 167.805 469.52 173.786 467.366 181.692C465.235 189.53 461.52 194.522 461.107 198.086Z" fill="#1E1E1E"/>
<path d="M438.248 56.6068C442.886 55.7639 448.647 58.8649 448.991 62.254C449.273 65.0437 445.84 67.5908 446.164 67.9012C446.466 68.1912 448.593 65.1303 451.252 65.0776C455.27 64.9979 460.092 71.7945 458.602 75.8072C457.406 79.0284 452.282 80.082 452.383 80.325C452.479 80.5541 456.383 78.0542 460.299 78.6308C465.904 79.4564 471.272 86.5506 469.91 91.0546C468.389 96.0872 458.537 97.6456 458.602 97.8312C458.672 98.0275 468.518 92.9926 472.172 96.1371C474.623 98.2461 474.271 103.162 472.737 106.302C469.535 112.855 459.547 115.177 454.645 111.949C450.833 109.439 453.403 105.752 449.556 97.8312C444.831 88.1048 436.614 84.7305 436.552 77.5014C436.546 76.844 436.528 74.7273 437.683 74.1131C439.527 73.1321 443.086 76.6623 443.337 76.3719C443.608 76.0578 438.844 72.6202 435.986 66.7717C435.088 64.9322 433.043 60.7471 434.856 58.301C435.779 57.0556 437.32 56.7755 438.248 56.6068Z" fill="#07A0C3"/>
<path d="M464.256 45.8772C468.895 45.0343 474.656 48.1353 474.999 51.5244C475.281 54.3141 471.848 56.8612 472.172 57.1715C472.474 57.4616 474.602 54.4007 477.261 54.348C481.278 54.2683 486.101 61.0648 484.611 65.0776C483.415 68.2988 478.29 69.3524 478.391 69.5953C478.487 69.8245 482.392 67.3246 486.307 67.9012C491.913 68.7268 497.281 75.821 495.919 80.325C494.397 85.3576 484.545 86.916 484.611 87.1016C484.68 87.2979 494.526 82.263 498.18 85.4075C500.631 87.5165 500.28 92.4329 498.746 95.5724C495.544 102.125 485.555 104.447 480.653 101.22C476.841 98.7098 479.412 95.0219 475.564 87.1016C470.84 77.3752 462.622 74.0009 462.56 66.7718C462.555 66.1144 462.536 63.9977 463.691 63.3834C465.535 62.4025 469.094 65.9327 469.345 65.6423C469.616 65.3282 464.852 61.8905 461.995 56.0421C461.096 54.2026 459.051 50.0174 460.864 47.5713C461.787 46.326 463.328 46.0458 464.256 45.8772Z" fill="#07A0C3"/>
<path d="M495.75 33.3381C491.354 35.0383 488.062 40.6876 489.541 43.7569C490.758 46.2834 495.018 46.6653 494.904 47.0987C494.798 47.5038 491.384 46.0027 489.088 47.3445C485.62 49.372 485.06 57.6834 488.429 60.3286C491.133 62.452 496.055 60.6778 496.095 60.9379C496.133 61.1833 491.496 61.0876 488.459 63.6213C484.109 67.249 483.24 76.0989 486.756 79.2298C490.685 82.7281 499.902 78.9192 499.943 79.1117C499.987 79.3151 488.957 80.1563 487.485 84.7438C486.497 87.8208 489.367 91.8304 492.317 93.7078C498.473 97.6264 508.206 94.3974 510.699 89.088C512.638 84.9597 508.518 83.155 507.658 74.3937C506.603 63.6344 511.847 56.4712 508.12 50.2733C507.782 49.7097 506.691 47.895 505.385 47.9734C503.299 48.0985 502.109 52.9654 501.744 52.8486C501.348 52.7222 503.614 47.3057 502.993 40.8277C502.798 38.7902 502.354 34.1545 499.529 33.0137C498.091 32.4329 496.63 32.9979 495.75 33.3381Z" fill="#07A0C3"/>
<path d="M545.678 36.4098C548.45 40.2187 548.151 46.7484 545.243 48.527C542.848 49.9911 539.062 48.0061 538.922 48.4318C538.792 48.8297 542.475 49.4167 543.676 51.7869C545.491 55.3683 541.45 62.6559 537.184 63.0552C533.759 63.3757 530.586 59.2204 530.411 59.4171C530.246 59.6026 534.195 62.0326 535.372 65.8063C537.059 71.2094 532.987 79.1171 528.333 79.8447C523.133 80.6576 517.454 72.4672 517.315 72.6066C517.168 72.754 525.98 79.4318 524.728 84.0842C523.889 87.2047 519.301 89.0205 515.803 89.0014C508.503 88.9616 502.076 80.9789 502.862 75.1674C503.473 70.6486 507.915 71.3625 513.392 64.465C520.118 55.9947 519.598 47.136 526.093 43.9448C526.683 43.6546 528.585 42.7202 529.64 43.4931C531.325 44.7273 529.683 49.4614 530.054 49.5612C530.455 49.6691 531.49 43.8906 535.527 38.7827C536.797 37.1761 539.686 33.5209 542.679 34.0914C544.203 34.3819 545.124 35.6477 545.678 36.4098Z" fill="#07A0C3"/>
<path d="M541.721 78.1989C544.493 82.0078 544.194 88.5375 541.285 90.3161C538.891 91.7802 535.104 89.7952 534.965 90.2209C534.834 90.6188 538.518 91.2058 539.719 93.576C541.533 97.1575 537.493 104.445 533.227 104.844C529.802 105.165 526.629 101.01 526.454 101.206C526.288 101.392 530.237 103.822 531.415 107.595C533.101 112.999 529.029 120.906 524.375 121.634C519.175 122.447 513.497 114.256 513.358 114.396C513.211 114.543 522.023 121.221 520.771 125.873C519.931 128.994 515.343 130.81 511.846 130.791C504.546 130.751 498.119 122.768 498.905 116.956C499.516 112.438 503.958 113.152 509.434 106.254C516.16 97.7838 515.641 88.9252 522.135 85.734C522.726 85.4438 524.628 84.5094 525.682 85.2822C527.367 86.5164 525.726 91.2505 526.097 91.3503C526.498 91.4583 527.533 85.6798 531.57 80.5719C532.84 78.9652 535.729 75.31 538.721 75.8805C540.245 76.171 541.166 77.4368 541.721 78.1989Z" fill="#07A0C3"/>
<path d="M479.494 199.526C479.494 199.791 479.285 200 479.019 200H41.853V199.051H479.019C479.285 199.051 479.494 199.266 479.494 199.526Z" fill="#E6E6E6"/>
</g>
<defs>
<clipPath id="clip0_155_989">
<rect width="547.2" height="200" fill="white" transform="translate(0.399902)"/>
</clipPath>
</defs>
</svg>
