<svg width="237" height="40" viewBox="0 0 237 40" fill="none" xmlns="http://www.w3.org/2000/svg">
<path d="M13.6529 32.378C12.4209 32.378 11.4689 32.042 10.7969 31.37C10.1249 30.67 9.78891 29.704 9.78891 28.472V8.69H3.19491C2.15891 8.69 1.36091 8.424 0.800906 7.892C0.268906 7.332 0.00290625 6.548 0.00290625 5.54C0.00290625 4.504 0.268906 3.72 0.800906 3.188C1.36091 2.656 2.15891 2.39 3.19491 2.39H24.1109C25.1469 2.39 25.9309 2.656 26.4629 3.188C27.0229 3.72 27.3029 4.504 27.3029 5.54C27.3029 6.548 27.0229 7.332 26.4629 7.892C25.9309 8.424 25.1469 8.69 24.1109 8.69H17.5169V28.472C17.5169 29.704 17.1949 30.67 16.5509 31.37C15.9069 32.042 14.9409 32.378 13.6529 32.378ZM29.8419 32.378C28.6099 32.378 27.6579 32.056 26.9859 31.412C26.3419 30.768 26.0199 29.83 26.0199 28.598V14.696C26.0199 13.492 26.3279 12.568 26.9439 11.924C27.5879 11.28 28.4979 10.958 29.6739 10.958C30.8499 10.958 31.7459 11.28 32.3619 11.924C32.9779 12.568 33.2859 13.492 33.2859 14.696V16.418H32.8659C33.1459 14.738 33.8599 13.408 35.0079 12.428C36.1839 11.448 37.6399 10.93 39.3759 10.874C40.1879 10.846 40.7899 11.056 41.1819 11.504C41.6019 11.924 41.8259 12.722 41.8539 13.898C41.8539 14.906 41.6439 15.704 41.2239 16.292C40.8039 16.88 40.0059 17.23 38.8299 17.342L37.8639 17.426C36.3799 17.566 35.3019 17.986 34.6299 18.686C33.9579 19.358 33.6219 20.366 33.6219 21.71V28.598C33.6219 29.83 33.2999 30.768 32.6559 31.412C32.0119 32.056 31.0739 32.378 29.8419 32.378ZM47.9269 32.378C46.7509 32.378 45.8409 32.028 45.1969 31.328C44.5529 30.628 44.2309 29.62 44.2309 28.304V15.032C44.2309 13.716 44.5529 12.708 45.1969 12.008C45.8409 11.308 46.7509 10.958 47.9269 10.958C49.1309 10.958 50.0549 11.308 50.6989 12.008C51.3709 12.708 51.7069 13.716 51.7069 15.032V28.304C51.7069 29.62 51.3849 30.628 50.7409 31.328C50.0969 32.028 49.1589 32.378 47.9269 32.378ZM47.9269 7.976C46.6109 7.976 45.5889 7.668 44.8609 7.052C44.1609 6.436 43.8109 5.54 43.8109 4.364C43.8109 3.216 44.1609 2.334 44.8609 1.718C45.5889 1.102 46.6109 0.793999 47.9269 0.793999C49.2989 0.793999 50.3349 1.102 51.0349 1.718C51.7349 2.334 52.0849 3.216 52.0849 4.364C52.0849 5.54 51.7349 6.436 51.0349 7.052C50.3349 7.668 49.2989 7.976 47.9269 7.976ZM59.7394 39.938C58.5634 39.938 57.6534 39.616 57.0094 38.972C56.3654 38.328 56.0434 37.39 56.0434 36.158V14.696C56.0434 13.492 56.3514 12.568 56.9674 11.924C57.6114 11.28 58.5214 10.958 59.6974 10.958C60.9014 10.958 61.8114 11.28 62.4274 11.924C63.0714 12.568 63.3934 13.492 63.3934 14.696V17.132L62.9314 15.074C63.3234 13.814 64.1354 12.806 65.3674 12.05C66.6274 11.266 68.0554 10.874 69.6514 10.874C71.4434 10.874 73.0114 11.308 74.3554 12.176C75.7274 13.044 76.7914 14.276 77.5474 15.872C78.3034 17.468 78.6814 19.4 78.6814 21.668C78.6814 23.88 78.3034 25.798 77.5474 27.422C76.7914 29.046 75.7274 30.292 74.3554 31.16C73.0114 32.028 71.4434 32.462 69.6514 32.462C68.1114 32.462 66.7254 32.098 65.4934 31.37C64.2614 30.642 63.4354 29.69 63.0154 28.514H63.5194V36.158C63.5194 37.39 63.1834 38.328 62.5114 38.972C61.8674 39.616 60.9434 39.938 59.7394 39.938ZM67.2994 26.96C68.0554 26.96 68.7134 26.778 69.2734 26.414C69.8614 26.022 70.3234 25.448 70.6594 24.692C70.9954 23.908 71.1634 22.9 71.1634 21.668C71.1634 19.792 70.7994 18.448 70.0714 17.636C69.3434 16.796 68.4194 16.376 67.2994 16.376C66.5434 16.376 65.8714 16.558 65.2834 16.922C64.6954 17.286 64.2334 17.86 63.8974 18.644C63.5614 19.4 63.3934 20.408 63.3934 21.668C63.3934 23.516 63.7574 24.86 64.4854 25.7C65.2134 26.54 66.1514 26.96 67.2994 26.96Z" fill="#34D0B6"/>
<path d="M85.7843 39.938C84.6083 39.938 83.6983 39.616 83.0543 38.972C82.4103 38.328 82.0883 37.39 82.0883 36.158V14.696C82.0883 13.492 82.3963 12.568 83.0123 11.924C83.6563 11.28 84.5663 10.958 85.7423 10.958C86.9463 10.958 87.8563 11.28 88.4723 11.924C89.1163 12.568 89.4383 13.492 89.4383 14.696V17.132L88.9763 15.074C89.3683 13.814 90.1803 12.806 91.4123 12.05C92.6723 11.266 94.1003 10.874 95.6963 10.874C97.4883 10.874 99.0563 11.308 100.4 12.176C101.772 13.044 102.836 14.276 103.592 15.872C104.348 17.468 104.726 19.4 104.726 21.668C104.726 23.88 104.348 25.798 103.592 27.422C102.836 29.046 101.772 30.292 100.4 31.16C99.0563 32.028 97.4883 32.462 95.6963 32.462C94.1563 32.462 92.7703 32.098 91.5383 31.37C90.3063 30.642 89.4803 29.69 89.0603 28.514H89.5643V36.158C89.5643 37.39 89.2283 38.328 88.5563 38.972C87.9123 39.616 86.9883 39.938 85.7843 39.938ZM93.3443 26.96C94.1003 26.96 94.7583 26.778 95.3183 26.414C95.9063 26.022 96.3683 25.448 96.7043 24.692C97.0403 23.908 97.2083 22.9 97.2083 21.668C97.2083 19.792 96.8443 18.448 96.1163 17.636C95.3883 16.796 94.4643 16.376 93.3443 16.376C92.5883 16.376 91.9163 16.558 91.3283 16.922C90.7403 17.286 90.2783 17.86 89.9423 18.644C89.6063 19.4 89.4383 20.408 89.4383 21.668C89.4383 23.516 89.8023 24.86 90.5303 25.7C91.2583 26.54 92.1963 26.96 93.3443 26.96ZM115.987 32.462C113.299 32.462 111.311 31.748 110.023 30.32C108.763 28.864 108.133 26.68 108.133 23.768V5.792C108.133 4.56 108.455 3.622 109.099 2.978C109.743 2.334 110.653 2.012 111.829 2.012C113.033 2.012 113.957 2.334 114.601 2.978C115.273 3.622 115.609 4.56 115.609 5.792V23.516C115.609 24.552 115.805 25.308 116.197 25.784C116.617 26.26 117.149 26.498 117.793 26.498C117.989 26.498 118.185 26.484 118.381 26.456C118.605 26.4 118.843 26.358 119.095 26.33C119.571 26.33 119.921 26.512 120.145 26.876C120.397 27.24 120.523 27.982 120.523 29.102C120.523 30.082 120.327 30.824 119.935 31.328C119.543 31.804 118.941 32.112 118.129 32.252C117.905 32.28 117.583 32.322 117.163 32.378C116.743 32.434 116.351 32.462 115.987 32.462ZM129.917 32.462C128.321 32.462 126.907 32.168 125.675 31.58C124.471 30.992 123.519 30.194 122.819 29.186C122.147 28.15 121.811 26.974 121.811 25.658C121.811 24.146 122.203 22.956 122.987 22.088C123.771 21.22 125.031 20.604 126.767 20.24C128.503 19.848 130.813 19.652 133.697 19.652H136.007V23.18H133.697C132.605 23.18 131.695 23.264 130.967 23.432C130.267 23.572 129.749 23.81 129.413 24.146C129.077 24.454 128.909 24.86 128.909 25.364C128.909 26.008 129.133 26.54 129.581 26.96C130.057 27.38 130.729 27.59 131.597 27.59C132.297 27.59 132.913 27.436 133.445 27.128C134.005 26.82 134.453 26.4 134.789 25.868C135.125 25.308 135.293 24.664 135.293 23.936V19.064C135.293 18.056 135.027 17.342 134.495 16.922C133.991 16.502 133.109 16.292 131.849 16.292C131.177 16.292 130.421 16.376 129.581 16.544C128.741 16.684 127.803 16.95 126.767 17.342C126.011 17.622 125.367 17.664 124.835 17.468C124.303 17.272 123.883 16.936 123.575 16.46C123.295 15.984 123.155 15.466 123.155 14.906C123.183 14.346 123.365 13.814 123.701 13.31C124.065 12.806 124.611 12.414 125.339 12.134C126.683 11.63 127.915 11.294 129.035 11.126C130.183 10.958 131.233 10.874 132.185 10.874C134.481 10.874 136.371 11.21 137.855 11.882C139.367 12.526 140.487 13.534 141.215 14.906C141.971 16.25 142.349 17.986 142.349 20.114V28.598C142.349 29.83 142.055 30.768 141.467 31.412C140.879 32.056 140.025 32.378 138.905 32.378C137.757 32.378 136.875 32.056 136.259 31.412C135.671 30.768 135.377 29.83 135.377 28.598V27.506L135.629 28.094C135.489 28.99 135.167 29.76 134.663 30.404C134.159 31.048 133.501 31.552 132.689 31.916C131.877 32.28 130.953 32.462 129.917 32.462ZM150.302 32.378C149.126 32.378 148.216 32.056 147.572 31.412C146.928 30.768 146.606 29.83 146.606 28.598V14.696C146.606 13.492 146.914 12.568 147.53 11.924C148.174 11.28 149.084 10.958 150.26 10.958C151.436 10.958 152.332 11.28 152.948 11.924C153.564 12.568 153.872 13.492 153.872 14.696V16.67L153.41 14.948C154.082 13.632 155.034 12.624 156.266 11.924C157.526 11.224 158.954 10.874 160.55 10.874C162.202 10.874 163.56 11.196 164.624 11.84C165.688 12.456 166.486 13.436 167.018 14.78C167.55 16.096 167.816 17.762 167.816 19.778V28.598C167.816 29.83 167.494 30.768 166.85 31.412C166.206 32.056 165.282 32.378 164.078 32.378C162.874 32.378 161.95 32.056 161.306 31.412C160.662 30.768 160.34 29.83 160.34 28.598V20.072C160.34 18.812 160.116 17.916 159.668 17.384C159.248 16.852 158.618 16.586 157.778 16.586C156.658 16.586 155.762 16.95 155.09 17.678C154.418 18.378 154.082 19.33 154.082 20.534V28.598C154.082 31.118 152.822 32.378 150.302 32.378ZM175.773 32.378C174.597 32.378 173.687 32.056 173.043 31.412C172.399 30.768 172.077 29.83 172.077 28.598V14.696C172.077 13.492 172.385 12.568 173.001 11.924C173.645 11.28 174.555 10.958 175.731 10.958C176.907 10.958 177.803 11.28 178.419 11.924C179.035 12.568 179.343 13.492 179.343 14.696V16.67L178.881 14.948C179.553 13.632 180.505 12.624 181.737 11.924C182.997 11.224 184.425 10.874 186.021 10.874C187.673 10.874 189.031 11.196 190.095 11.84C191.159 12.456 191.957 13.436 192.489 14.78C193.021 16.096 193.287 17.762 193.287 19.778V28.598C193.287 29.83 192.965 30.768 192.321 31.412C191.677 32.056 190.753 32.378 189.549 32.378C188.345 32.378 187.421 32.056 186.777 31.412C186.133 30.768 185.811 29.83 185.811 28.598V20.072C185.811 18.812 185.587 17.916 185.139 17.384C184.719 16.852 184.089 16.586 183.249 16.586C182.129 16.586 181.233 16.95 180.561 17.678C179.889 18.378 179.553 19.33 179.553 20.534V28.598C179.553 31.118 178.293 32.378 175.773 32.378ZM208.803 32.462C206.283 32.462 204.099 32.028 202.251 31.16C200.431 30.264 199.031 29.004 198.051 27.38C197.071 25.756 196.581 23.838 196.581 21.626C196.581 19.498 197.043 17.636 197.967 16.04C198.919 14.416 200.207 13.156 201.831 12.26C203.483 11.336 205.359 10.874 207.459 10.874C208.999 10.874 210.399 11.126 211.659 11.63C212.919 12.106 213.997 12.82 214.893 13.772C215.789 14.696 216.461 15.816 216.909 17.132C217.385 18.448 217.623 19.918 217.623 21.542C217.623 22.102 217.469 22.522 217.161 22.802C216.853 23.054 216.363 23.18 215.691 23.18H202.839V19.652H212.163L211.491 20.198C211.491 19.162 211.351 18.322 211.071 17.678C210.791 17.034 210.371 16.544 209.811 16.208C209.279 15.872 208.607 15.704 207.795 15.704C206.927 15.704 206.171 15.914 205.527 16.334C204.911 16.726 204.435 17.314 204.099 18.098C203.763 18.882 203.595 19.862 203.595 21.038V21.416C203.595 23.404 204.029 24.832 204.897 25.7C205.793 26.54 207.165 26.96 209.013 26.96C209.629 26.96 210.329 26.89 211.113 26.75C211.925 26.582 212.695 26.358 213.423 26.078C214.151 25.798 214.781 25.756 215.313 25.952C215.845 26.12 216.251 26.428 216.531 26.876C216.839 27.296 217.007 27.786 217.035 28.346C217.063 28.878 216.937 29.41 216.657 29.942C216.377 30.446 215.915 30.838 215.271 31.118C214.291 31.566 213.241 31.902 212.121 32.126C211.029 32.35 209.923 32.462 208.803 32.462ZM224.666 32.378C223.434 32.378 222.482 32.056 221.81 31.412C221.166 30.768 220.844 29.83 220.844 28.598V14.696C220.844 13.492 221.152 12.568 221.768 11.924C222.412 11.28 223.322 10.958 224.498 10.958C225.674 10.958 226.57 11.28 227.186 11.924C227.802 12.568 228.11 13.492 228.11 14.696V16.418H227.69C227.97 14.738 228.684 13.408 229.832 12.428C231.008 11.448 232.464 10.93 234.2 10.874C235.012 10.846 235.614 11.056 236.006 11.504C236.426 11.924 236.65 12.722 236.678 13.898C236.678 14.906 236.468 15.704 236.048 16.292C235.628 16.88 234.83 17.23 233.654 17.342L232.688 17.426C231.204 17.566 230.126 17.986 229.454 18.686C228.782 19.358 228.446 20.366 228.446 21.71V28.598C228.446 29.83 228.124 30.768 227.48 31.412C226.836 32.056 225.898 32.378 224.666 32.378Z" fill="white"/>
</svg>
