<svg width="156" height="37" viewBox="0 0 156 37" fill="none" xmlns="http://www.w3.org/2000/svg">
<path d="M18.0874 27.216C17.3834 27.216 16.8394 27.024 16.4554 26.64C16.0714 26.24 15.8794 25.688 15.8794 24.984V13.68H12.1114C11.5194 13.68 11.0634 13.528 10.7434 13.224C10.4394 12.904 10.2874 12.456 10.2874 11.88C10.2874 11.288 10.4394 10.84 10.7434 10.536C11.0634 10.232 11.5194 10.08 12.1114 10.08H24.0634C24.6554 10.08 25.1034 10.232 25.4074 10.536C25.7274 10.84 25.8874 11.288 25.8874 11.88C25.8874 12.456 25.7274 12.904 25.4074 13.224C25.1034 13.528 24.6554 13.68 24.0634 13.68H20.2954V24.984C20.2954 25.688 20.1114 26.24 19.7434 26.64C19.3754 27.024 18.8234 27.216 18.0874 27.216ZM27.3383 27.216C26.6343 27.216 26.0903 27.032 25.7063 26.664C25.3383 26.296 25.1543 25.76 25.1543 25.056V17.112C25.1543 16.424 25.3303 15.896 25.6823 15.528C26.0503 15.16 26.5703 14.976 27.2423 14.976C27.9143 14.976 28.4263 15.16 28.7783 15.528C29.1303 15.896 29.3063 16.424 29.3063 17.112V18.096H29.0663C29.2263 17.136 29.6343 16.376 30.2903 15.816C30.9623 15.256 31.7943 14.96 32.7863 14.928C33.2503 14.912 33.5943 15.032 33.8183 15.288C34.0583 15.528 34.1863 15.984 34.2023 16.656C34.2023 17.232 34.0823 17.688 33.8423 18.024C33.6023 18.36 33.1463 18.56 32.4743 18.624L31.9223 18.672C31.0743 18.752 30.4583 18.992 30.0742 19.392C29.6903 19.776 29.4983 20.352 29.4983 21.12V25.056C29.4983 25.76 29.3143 26.296 28.9463 26.664C28.5783 27.032 28.0423 27.216 27.3383 27.216ZM37.6725 27.216C37.0005 27.216 36.4805 27.016 36.1125 26.616C35.7445 26.216 35.5605 25.64 35.5605 24.888V17.304C35.5605 16.552 35.7445 15.976 36.1125 15.576C36.4805 15.176 37.0005 14.976 37.6725 14.976C38.3605 14.976 38.8885 15.176 39.2565 15.576C39.6405 15.976 39.8325 16.552 39.8325 17.304V24.888C39.8325 25.64 39.6485 26.216 39.2805 26.616C38.9125 27.016 38.3765 27.216 37.6725 27.216ZM37.6725 13.272C36.9205 13.272 36.3365 13.096 35.9205 12.744C35.5205 12.392 35.3205 11.88 35.3205 11.208C35.3205 10.552 35.5205 10.048 35.9205 9.696C36.3365 9.344 36.9205 9.168 37.6725 9.168C38.4565 9.168 39.0485 9.344 39.4485 9.696C39.8485 10.048 40.0485 10.552 40.0485 11.208C40.0485 11.88 39.8485 12.392 39.4485 12.744C39.0485 13.096 38.4565 13.272 37.6725 13.272ZM44.4225 31.536C43.7505 31.536 43.2305 31.352 42.8625 30.984C42.4945 30.616 42.3105 30.08 42.3105 29.376V17.112C42.3105 16.424 42.4865 15.896 42.8385 15.528C43.2065 15.16 43.7265 14.976 44.3985 14.976C45.0865 14.976 45.6065 15.16 45.9585 15.528C46.3265 15.896 46.5105 16.424 46.5105 17.112V18.504L46.2465 17.328C46.4705 16.608 46.9345 16.032 47.6385 15.6C48.3585 15.152 49.1745 14.928 50.0865 14.928C51.1105 14.928 52.0065 15.176 52.7745 15.672C53.5585 16.168 54.1665 16.872 54.5985 17.784C55.0305 18.696 55.2465 19.8 55.2465 21.096C55.2465 22.36 55.0305 23.456 54.5985 24.384C54.1665 25.312 53.5585 26.024 52.7745 26.52C52.0065 27.016 51.1105 27.264 50.0865 27.264C49.2065 27.264 48.4145 27.056 47.7105 26.64C47.0065 26.224 46.5345 25.68 46.2945 25.008H46.5825V29.376C46.5825 30.08 46.3905 30.616 46.0065 30.984C45.6385 31.352 45.1105 31.536 44.4225 31.536ZM48.7425 24.12C49.1745 24.12 49.5505 24.016 49.8705 23.808C50.2065 23.584 50.4705 23.256 50.6625 22.824C50.8545 22.376 50.9505 21.8 50.9505 21.096C50.9505 20.024 50.7425 19.256 50.3265 18.792C49.9105 18.312 49.3825 18.072 48.7425 18.072C48.3105 18.072 47.9265 18.176 47.5905 18.384C47.2545 18.592 46.9905 18.92 46.7985 19.368C46.6065 19.8 46.5105 20.376 46.5105 21.096C46.5105 22.152 46.7185 22.92 47.1345 23.4C47.5505 23.88 48.0865 24.12 48.7425 24.12Z" fill="#34D0B6"/>
<path d="M59.3053 31.536C58.6333 31.536 58.1133 31.352 57.7453 30.984C57.3773 30.616 57.1933 30.08 57.1933 29.376V17.112C57.1933 16.424 57.3693 15.896 57.7213 15.528C58.0893 15.16 58.6093 14.976 59.2813 14.976C59.9693 14.976 60.4893 15.16 60.8413 15.528C61.2093 15.896 61.3933 16.424 61.3933 17.112V18.504L61.1293 17.328C61.3533 16.608 61.8173 16.032 62.5213 15.6C63.2413 15.152 64.0573 14.928 64.9693 14.928C65.9933 14.928 66.8893 15.176 67.6573 15.672C68.4413 16.168 69.0493 16.872 69.4813 17.784C69.9133 18.696 70.1293 19.8 70.1293 21.096C70.1293 22.36 69.9133 23.456 69.4813 24.384C69.0493 25.312 68.4413 26.024 67.6573 26.52C66.8893 27.016 65.9933 27.264 64.9693 27.264C64.0893 27.264 63.2973 27.056 62.5933 26.64C61.8893 26.224 61.4173 25.68 61.1773 25.008H61.4653V29.376C61.4653 30.08 61.2733 30.616 60.8893 30.984C60.5213 31.352 59.9933 31.536 59.3053 31.536ZM63.6253 24.12C64.0573 24.12 64.4333 24.016 64.7533 23.808C65.0893 23.584 65.3533 23.256 65.5453 22.824C65.7373 22.376 65.8333 21.8 65.8333 21.096C65.8333 20.024 65.6253 19.256 65.2093 18.792C64.7933 18.312 64.2653 18.072 63.6253 18.072C63.1933 18.072 62.8093 18.176 62.4733 18.384C62.1373 18.592 61.8733 18.92 61.6813 19.368C61.4893 19.8 61.3933 20.376 61.3933 21.096C61.3933 22.152 61.6013 22.92 62.0173 23.4C62.4333 23.88 62.9693 24.12 63.6253 24.12ZM76.5641 27.264C75.0281 27.264 73.8921 26.856 73.1561 26.04C72.4361 25.208 72.0761 23.96 72.0761 22.296V12.024C72.0761 11.32 72.2601 10.784 72.6281 10.416C72.9961 10.048 73.5161 9.864 74.1881 9.864C74.8761 9.864 75.4041 10.048 75.7721 10.416C76.1561 10.784 76.3481 11.32 76.3481 12.024V22.152C76.3481 22.744 76.4601 23.176 76.6841 23.448C76.9241 23.72 77.2281 23.856 77.5961 23.856C77.7081 23.856 77.8201 23.848 77.9321 23.832C78.0601 23.8 78.1961 23.776 78.3401 23.76C78.6121 23.76 78.8121 23.864 78.9401 24.072C79.0841 24.28 79.1561 24.704 79.1561 25.344C79.1561 25.904 79.0441 26.328 78.8201 26.616C78.5961 26.888 78.2521 27.064 77.7881 27.144C77.6601 27.16 77.4761 27.184 77.2361 27.216C76.9961 27.248 76.7721 27.264 76.5641 27.264ZM84.5239 27.264C83.6119 27.264 82.8039 27.096 82.0999 26.76C81.4119 26.424 80.8679 25.968 80.4679 25.392C80.0839 24.8 79.8919 24.128 79.8919 23.376C79.8919 22.512 80.1159 21.832 80.5639 21.336C81.0119 20.84 81.7319 20.488 82.7239 20.28C83.7159 20.056 85.0359 19.944 86.6839 19.944H88.0039V21.96H86.6839C86.0599 21.96 85.5399 22.008 85.1239 22.104C84.7239 22.184 84.4279 22.32 84.2359 22.512C84.0439 22.688 83.9479 22.92 83.9479 23.208C83.9479 23.576 84.0759 23.88 84.3319 24.12C84.6039 24.36 84.9879 24.48 85.4839 24.48C85.8839 24.48 86.2359 24.392 86.5399 24.216C86.8599 24.04 87.1159 23.8 87.3079 23.496C87.4999 23.176 87.5959 22.808 87.5959 22.392V19.608C87.5959 19.032 87.4439 18.624 87.1399 18.384C86.8519 18.144 86.3479 18.024 85.6279 18.024C85.2439 18.024 84.8119 18.072 84.3319 18.168C83.8519 18.248 83.3159 18.4 82.7239 18.624C82.2919 18.784 81.9239 18.808 81.6199 18.696C81.3159 18.584 81.0759 18.392 80.8999 18.12C80.7399 17.848 80.6599 17.552 80.6599 17.232C80.6759 16.912 80.7799 16.608 80.9719 16.32C81.1799 16.032 81.4919 15.808 81.9079 15.648C82.6759 15.36 83.3799 15.168 84.0199 15.072C84.6759 14.976 85.2759 14.928 85.8199 14.928C87.1319 14.928 88.2119 15.12 89.0599 15.504C89.9239 15.872 90.5639 16.448 90.9799 17.232C91.4119 18 91.6279 18.992 91.6279 20.208V25.056C91.6279 25.76 91.4599 26.296 91.1239 26.664C90.7879 27.032 90.2999 27.216 89.6599 27.216C89.0039 27.216 88.4999 27.032 88.1479 26.664C87.8119 26.296 87.6439 25.76 87.6439 25.056V24.432L87.7879 24.768C87.7079 25.28 87.5239 25.72 87.2359 26.088C86.9479 26.456 86.5719 26.744 86.1079 26.952C85.6439 27.16 85.1159 27.264 84.5239 27.264ZM96.1725 27.216C95.5005 27.216 94.9805 27.032 94.6125 26.664C94.2445 26.296 94.0605 25.76 94.0605 25.056V17.112C94.0605 16.424 94.2365 15.896 94.5885 15.528C94.9565 15.16 95.4765 14.976 96.1485 14.976C96.8205 14.976 97.3325 15.16 97.6845 15.528C98.0365 15.896 98.2125 16.424 98.2125 17.112V18.24L97.9485 17.256C98.3325 16.504 98.8765 15.928 99.5805 15.528C100.301 15.128 101.117 14.928 102.029 14.928C102.973 14.928 103.749 15.112 104.357 15.48C104.965 15.832 105.421 16.392 105.725 17.16C106.029 17.912 106.181 18.864 106.181 20.016V25.056C106.181 25.76 105.997 26.296 105.629 26.664C105.261 27.032 104.733 27.216 104.045 27.216C103.357 27.216 102.829 27.032 102.461 26.664C102.093 26.296 101.909 25.76 101.909 25.056V20.184C101.909 19.464 101.781 18.952 101.525 18.648C101.285 18.344 100.925 18.192 100.445 18.192C99.8045 18.192 99.2925 18.4 98.9085 18.816C98.5245 19.216 98.3325 19.76 98.3325 20.448V25.056C98.3325 26.496 97.6125 27.216 96.1725 27.216ZM110.727 27.216C110.055 27.216 109.535 27.032 109.167 26.664C108.799 26.296 108.615 25.76 108.615 25.056V17.112C108.615 16.424 108.791 15.896 109.143 15.528C109.511 15.16 110.031 14.976 110.703 14.976C111.375 14.976 111.887 15.16 112.239 15.528C112.591 15.896 112.767 16.424 112.767 17.112V18.24L112.503 17.256C112.887 16.504 113.431 15.928 114.135 15.528C114.855 15.128 115.671 14.928 116.583 14.928C117.527 14.928 118.303 15.112 118.911 15.48C119.519 15.832 119.975 16.392 120.279 17.16C120.583 17.912 120.735 18.864 120.735 20.016V25.056C120.735 25.76 120.551 26.296 120.183 26.664C119.815 27.032 119.287 27.216 118.599 27.216C117.911 27.216 117.383 27.032 117.015 26.664C116.647 26.296 116.463 25.76 116.463 25.056V20.184C116.463 19.464 116.335 18.952 116.079 18.648C115.839 18.344 115.479 18.192 114.999 18.192C114.359 18.192 113.847 18.4 113.463 18.816C113.079 19.216 112.887 19.76 112.887 20.448V25.056C112.887 26.496 112.167 27.216 110.727 27.216ZM129.602 27.264C128.162 27.264 126.914 27.016 125.858 26.52C124.818 26.008 124.018 25.288 123.458 24.36C122.898 23.432 122.618 22.336 122.618 21.072C122.618 19.856 122.882 18.792 123.41 17.88C123.954 16.952 124.69 16.232 125.618 15.72C126.562 15.192 127.634 14.928 128.834 14.928C129.714 14.928 130.514 15.072 131.234 15.36C131.954 15.632 132.57 16.04 133.082 16.584C133.594 17.112 133.978 17.752 134.234 18.504C134.506 19.256 134.642 20.096 134.642 21.024C134.642 21.344 134.554 21.584 134.378 21.744C134.202 21.888 133.922 21.96 133.538 21.96H126.194V19.944H131.522L131.138 20.256C131.138 19.664 131.058 19.184 130.898 18.816C130.738 18.448 130.498 18.168 130.178 17.976C129.874 17.784 129.49 17.688 129.026 17.688C128.53 17.688 128.098 17.808 127.73 18.048C127.378 18.272 127.106 18.608 126.914 19.056C126.722 19.504 126.626 20.064 126.626 20.736V20.952C126.626 22.088 126.874 22.904 127.37 23.4C127.882 23.88 128.666 24.12 129.722 24.12C130.074 24.12 130.474 24.08 130.922 24C131.386 23.904 131.826 23.776 132.242 23.616C132.658 23.456 133.018 23.432 133.322 23.544C133.626 23.64 133.858 23.816 134.018 24.072C134.194 24.312 134.29 24.592 134.306 24.912C134.322 25.216 134.25 25.52 134.09 25.824C133.93 26.112 133.666 26.336 133.298 26.496C132.738 26.752 132.138 26.944 131.498 27.072C130.874 27.2 130.242 27.264 129.602 27.264ZM138.666 27.216C137.962 27.216 137.418 27.032 137.034 26.664C136.666 26.296 136.482 25.76 136.482 25.056V17.112C136.482 16.424 136.658 15.896 137.01 15.528C137.378 15.16 137.898 14.976 138.57 14.976C139.242 14.976 139.754 15.16 140.106 15.528C140.458 15.896 140.634 16.424 140.634 17.112V18.096H140.394C140.554 17.136 140.962 16.376 141.618 15.816C142.29 15.256 143.122 14.96 144.114 14.928C144.578 14.912 144.922 15.032 145.146 15.288C145.386 15.528 145.514 15.984 145.53 16.656C145.53 17.232 145.41 17.688 145.17 18.024C144.93 18.36 144.474 18.56 143.802 18.624L143.25 18.672C142.402 18.752 141.786 18.992 141.402 19.392C141.018 19.776 140.826 20.352 140.826 21.12V25.056C140.826 25.76 140.642 26.296 140.274 26.664C139.906 27.032 139.37 27.216 138.666 27.216Z" fill="#0D2F29"/>
</svg>
