<svg width="430" height="200" viewBox="0 0 430 200" fill="none" xmlns="http://www.w3.org/2000/svg">
<g clip-path="url(#clip0_201_2410)">
<path d="M391.147 199.615H218.587C213.893 199.615 210.074 195.391 210.074 190.198V61.8731C210.054 60.8942 210.307 59.929 210.803 59.085C211.299 58.2411 212.02 57.5516 212.886 57.0933L278.094 17.6181C281.668 15.8439 285.604 14.9188 289.594 14.9147C293.585 14.9107 297.522 15.8278 301.1 17.5948L396.831 57.0893C397.7 57.5459 398.426 58.2356 398.925 59.0813C399.425 59.927 399.679 60.8951 399.659 61.8771V190.198C399.659 195.391 395.841 199.615 391.147 199.615Z" fill="#F2F2F2"/>
<path d="M365.666 199.476H217.485C213.437 199.476 210.145 196.494 210.145 192.829V103.129C210.164 102.381 210.407 101.657 210.843 101.049C211.279 100.442 211.888 99.9796 212.59 99.7227L281.587 72.1229C287.927 69.6147 294.983 69.6112 301.326 72.1131L370.557 99.724C371.26 99.9803 371.87 100.442 372.307 101.05C372.744 101.658 372.988 102.383 373.007 103.131V192.829C373.007 196.494 369.714 199.476 365.666 199.476Z" fill="#CCCCCC"/>
<path d="M129.106 105.277C141.097 105.277 150.818 95.5563 150.818 83.5647C150.818 71.5732 141.097 61.8521 129.106 61.8521C117.114 61.8521 107.393 71.5732 107.393 83.5647C107.393 95.5563 117.114 105.277 129.106 105.277Z" fill="#DD6E42"/>
<path d="M138.183 162.616C153.37 162.616 165.683 147.205 165.683 128.194C165.683 109.184 153.37 93.7726 138.183 93.7726C122.995 93.7726 110.683 109.184 110.683 128.194C110.683 147.205 122.995 162.616 138.183 162.616Z" fill="#F2F2F2"/>
<path d="M138.258 121.273H138.334L139.694 199.24H136.823L138.258 121.273Z" fill="#CCCCCC"/>
<path d="M142.949 172.889C143.033 173.049 143.05 173.235 142.996 173.407C142.943 173.58 142.823 173.724 142.664 173.808L138.719 175.884L138.086 174.681L142.03 172.604C142.19 172.52 142.376 172.503 142.548 172.557C142.721 172.61 142.865 172.73 142.949 172.889Z" fill="#CCCCCC"/>
<path d="M59.1211 162.616C74.3089 162.616 86.6211 147.205 86.6211 128.194C86.6211 109.184 74.3089 93.7726 59.1211 93.7726C43.9333 93.7726 31.6211 109.184 31.6211 128.194C31.6211 147.205 43.9333 162.616 59.1211 162.616Z" fill="#F2F2F2"/>
<path d="M63.8871 174.178C63.8031 174.019 63.6591 173.899 63.4869 173.846C63.3146 173.792 63.1282 173.809 62.9686 173.893L60.2151 175.343L59.272 121.273H59.1965L57.7612 199.24H60.632L60.2418 176.866L63.6022 175.097C63.7618 175.013 63.8814 174.869 63.9348 174.697C63.9882 174.524 63.9711 174.338 63.8871 174.178Z" fill="#CCCCCC"/>
<path d="M98.5563 48.8677C117.801 48.8677 133.443 85.1292 133.443 109.218C133.443 133.306 117.842 152.834 98.5974 152.834C79.3528 152.834 63.752 133.306 63.752 109.218C63.752 85.1292 79.3116 48.8677 98.5563 48.8677Z" fill="#07A0C3"/>
<path d="M104.636 167.484C104.584 167.384 104.512 167.295 104.425 167.223C104.338 167.151 104.238 167.096 104.129 167.063C104.021 167.029 103.908 167.017 103.795 167.028C103.683 167.038 103.573 167.071 103.473 167.123L99.9838 168.96L98.789 100.447H98.6933L96.8745 199.24H100.512L100.018 170.89L104.276 168.648C104.376 168.595 104.465 168.523 104.537 168.436C104.609 168.349 104.664 168.249 104.697 168.141C104.731 168.033 104.743 167.919 104.732 167.806C104.722 167.694 104.689 167.584 104.636 167.484Z" fill="#1E1E1E"/>
<path d="M256.978 137.833V128.556C256.978 127.346 256.497 126.185 255.641 125.33C254.786 124.474 253.625 123.993 252.415 123.993H229.005C227.795 123.993 226.634 124.474 225.779 125.33C224.923 126.185 224.442 127.346 224.442 128.556V137.833H256.978Z" fill="white"/>
<path d="M224.442 139.29V153.666C224.442 154.876 224.923 156.036 225.779 156.892C226.634 157.747 227.795 158.228 229.005 158.228H252.415C253.625 158.228 254.786 157.747 255.641 156.892C256.497 156.036 256.978 154.876 256.978 153.666V139.29H224.442Z" fill="white"/>
<path d="M367.371 112.369L297.085 86.6034C292.813 85.0374 288.125 85.0374 283.853 86.6034L213.567 112.369C212.086 112.912 210.495 113.089 208.93 112.886C207.366 112.683 205.873 112.105 204.58 111.201C203.286 110.298 202.23 109.095 201.501 107.696C200.771 106.297 200.391 104.743 200.391 103.165C200.391 101.157 201.007 99.1977 202.157 97.5517C203.307 95.9057 204.934 94.6524 206.819 93.9614L283.853 65.7227C288.125 64.1568 292.813 64.1568 297.085 65.7227L374.119 93.9614C376.004 94.6524 377.631 95.9057 378.781 97.5517C379.931 99.1977 380.547 101.157 380.547 103.165C380.547 104.743 380.167 106.297 379.437 107.696C378.708 109.095 377.652 110.298 376.358 111.201C375.065 112.105 373.572 112.683 372.008 112.886C370.443 113.089 368.852 112.912 367.371 112.369Z" fill="#1E1E1E"/>
<path d="M301.818 199.905H283.033C281.04 199.903 279.128 199.11 277.719 197.701C276.309 196.291 275.516 194.38 275.514 192.386V146.893C275.516 144.899 276.309 142.988 277.719 141.578C279.128 140.169 281.04 139.376 283.033 139.373H301.818C303.812 139.376 305.723 140.169 307.133 141.578C308.543 142.988 309.336 144.899 309.338 146.893V192.386C309.336 194.38 308.543 196.291 307.133 197.701C305.723 199.11 303.812 199.903 301.818 199.905ZM283.033 140.663C281.381 140.664 279.798 141.321 278.63 142.489C277.462 143.657 276.805 145.241 276.803 146.893V192.386C276.805 194.038 277.462 195.621 278.63 196.789C279.798 197.958 281.381 198.615 283.033 198.616H301.818C303.47 198.615 305.054 197.958 306.222 196.789C307.39 195.621 308.047 194.038 308.049 192.386V146.893C308.047 145.241 307.39 143.657 306.222 142.489C305.054 141.321 303.47 140.664 301.818 140.663H283.033Z" fill="#1E1E1E"/>
<path d="M303.64 42.6166C303.338 39.2345 301.78 36.088 299.275 33.7964C296.769 31.5047 293.496 30.2339 290.1 30.2339C286.705 30.2339 283.432 31.5047 280.926 33.7964C278.421 36.088 276.863 39.2345 276.561 42.6166H303.64Z" fill="white"/>
<path d="M276.51 44.0735C276.572 47.6365 278.032 51.0325 280.574 53.5302C283.116 56.0278 286.537 57.4273 290.1 57.4273C293.664 57.4273 297.085 56.0278 299.627 53.5302C302.169 51.0325 303.628 47.6365 303.691 44.0735H276.51Z" fill="white"/>
<path d="M301.513 59.099H278.689C277.602 59.099 276.559 58.6671 275.791 57.8983C275.022 57.1294 274.59 56.0867 274.59 54.9994C274.59 53.9121 275.022 52.8694 275.791 52.1006C276.559 51.3317 277.602 50.8998 278.689 50.8998H301.513C302.6 50.8998 303.643 51.3317 304.411 52.1006C305.18 52.8694 305.612 53.9121 305.612 54.9994C305.612 56.0867 305.18 57.1294 304.411 57.8983C303.643 58.6671 302.6 59.099 301.513 59.099Z" fill="#CCCCCC"/>
<path d="M224.685 153.587C223.711 153.587 222.778 153.974 222.09 154.662C221.401 155.35 221.015 156.283 221.015 157.257C221.015 158.23 221.401 159.164 222.09 159.852C222.778 160.54 223.711 160.927 224.685 160.927H256.734C257.707 160.927 258.641 160.54 259.329 159.852C260.017 159.164 260.404 158.23 260.404 157.257C260.404 156.283 260.017 155.35 259.329 154.662C258.641 153.974 257.707 153.587 256.734 153.587H224.685Z" fill="#CCCCCC"/>
<path d="M324.232 139.29V153.666C324.232 154.876 324.713 156.036 325.569 156.892C326.424 157.747 327.585 158.228 328.795 158.228H352.205C353.415 158.228 354.576 157.747 355.431 156.892C356.287 156.036 356.768 154.876 356.768 153.666V139.29H324.232Z" fill="white"/>
<path d="M356.768 137.833V128.556C356.768 127.346 356.287 126.185 355.431 125.33C354.576 124.474 353.415 123.993 352.205 123.993H328.795C327.585 123.993 326.424 124.474 325.569 125.33C324.713 126.185 324.232 127.346 324.232 128.556V137.833H356.768Z" fill="white"/>
<path d="M303.595 171.096C305.07 171.096 306.265 169.901 306.265 168.426C306.265 166.951 305.07 165.755 303.595 165.755C302.12 165.755 300.924 166.951 300.924 168.426C300.924 169.901 302.12 171.096 303.595 171.096Z" fill="#1E1E1E"/>
<path d="M213.882 170.145L203.362 153.781L203.849 153.467L213.832 168.996L221.966 153.49L222.478 153.758L213.882 170.145Z" fill="#1E1E1E"/>
<path d="M222.449 148.416H197.423V147.982C197.423 147.279 197.285 146.583 197.016 145.934C196.747 145.285 196.353 144.695 195.856 144.198C195.359 143.701 194.769 143.306 194.119 143.037C193.47 142.768 192.774 142.63 192.071 142.63C191.368 142.63 190.672 142.768 190.023 143.037C189.373 143.306 188.783 143.701 188.286 144.198C187.789 144.695 187.395 145.285 187.126 145.934C186.857 146.583 186.719 147.279 186.719 147.982V148.416H184.26C182.84 148.416 181.479 148.98 180.475 149.984C179.471 150.988 178.907 152.349 178.907 153.769C178.907 155.188 179.471 156.549 180.475 157.553C181.479 158.557 182.84 159.121 184.26 159.121H186.719V199.569C197.384 199.355 186.642 199.785 197.423 199.569V159.121H222.449C223.869 159.121 225.23 158.557 226.234 157.553C227.238 156.549 227.801 155.188 227.801 153.769C227.801 152.349 227.238 150.988 226.234 149.984C225.23 148.98 223.869 148.416 222.449 148.416Z" fill="#1E1E1E"/>
<path d="M191.926 155.649C193.044 155.649 193.951 154.742 193.951 153.624C193.951 152.505 193.044 151.599 191.926 151.599C190.807 151.599 189.9 152.505 189.9 153.624C189.9 154.742 190.807 155.649 191.926 155.649Z" fill="white"/>
<path d="M225.629 180.456H202.488C201.395 180.454 200.347 180.02 199.574 179.247C198.801 178.474 198.366 177.426 198.365 176.333V168.815C198.366 167.722 198.801 166.674 199.574 165.901C200.347 165.128 201.395 164.694 202.488 164.692H225.629C226.722 164.694 227.77 165.128 228.543 165.901C229.316 166.674 229.75 167.722 229.752 168.815V176.333C229.75 177.426 229.316 178.474 228.543 179.247C227.77 180.02 226.722 180.454 225.629 180.456Z" fill="#CCCCCC"/>
<path d="M221.292 170.693H206.537C205.658 170.693 204.945 171.406 204.945 172.285C204.945 173.163 205.658 173.876 206.537 173.876H221.292C222.17 173.876 222.883 173.163 222.883 172.285C222.883 171.406 222.17 170.693 221.292 170.693Z" fill="#07A0C3"/>
<path d="M428.903 200H1.09779C1.0097 200 0.92521 199.965 0.862916 199.903C0.800622 199.84 0.765625 199.756 0.765625 199.668C0.765625 199.58 0.800622 199.495 0.862916 199.433C0.92521 199.371 1.0097 199.336 1.09779 199.336H428.903C428.991 199.336 429.075 199.371 429.138 199.433C429.2 199.495 429.235 199.58 429.235 199.668C429.235 199.756 429.2 199.84 429.138 199.903C429.075 199.965 428.991 200 428.903 200Z" fill="#CCCCCC"/>
<path d="M356.282 161.356H324.232C323.145 161.356 322.102 160.925 321.334 160.156C320.565 159.387 320.133 158.344 320.133 157.257C320.133 156.17 320.565 155.127 321.334 154.358C322.102 153.589 323.145 153.157 324.232 153.157H356.282C357.369 153.157 358.412 153.589 359.181 154.358C359.95 155.127 360.381 156.17 360.381 157.257C360.381 158.344 359.95 159.387 359.181 160.156C358.412 160.925 357.369 161.356 356.282 161.356Z" fill="#CCCCCC"/>
<path d="M399.334 66.1538C399.334 66.1538 391.562 65.6024 375.702 64.8647C356.796 31.7791 295.35 23.8042 295.35 5.9008e-05L370.873 0C378.43 0 385.676 3.00175 391.02 8.34489C396.363 13.688 399.364 20.9349 399.364 28.4912L399.334 66.1538Z" fill="#CCCCCC"/>
<path d="M333.831 8.69836C333.66 8.69855 333.496 8.76652 333.376 8.88735C333.255 9.00818 333.187 9.17201 333.187 9.34289V30.8614C333.187 31.0323 333.255 31.1962 333.376 31.317C333.496 31.4378 333.66 31.5058 333.831 31.506H347.235C347.406 31.5058 347.57 31.4378 347.691 31.317C347.811 31.1962 347.879 31.0323 347.88 30.8614V9.34289C347.879 9.17201 347.811 9.00818 347.691 8.88735C347.57 8.76652 347.406 8.69855 347.235 8.69836H333.831Z" fill="#F2F2F2"/>
<path d="M371.06 64.4184L300.774 22.0552C296.502 20.4892 291.813 20.4892 287.541 22.0552L217.255 64.4184C215.774 64.9614 214.183 65.1389 212.619 64.9357C211.054 64.7324 209.562 64.1545 208.268 63.251C206.975 62.3475 205.919 61.1452 205.189 59.7461C204.46 58.3471 204.079 56.7926 204.079 55.2148C204.079 53.207 204.696 51.2476 205.845 49.6016C206.995 47.9556 208.623 46.7023 210.508 46.0113L287.541 1.17449C291.813 -0.391496 296.502 -0.391496 300.774 1.17449L377.807 46.0112C379.692 46.7023 381.32 47.9556 382.47 49.6016C383.619 51.2476 384.236 53.207 384.236 55.2148C384.236 56.7926 383.855 58.347 383.126 59.7461C382.396 61.1452 381.34 62.3475 380.047 63.251C378.753 64.1545 377.261 64.7324 375.696 64.9356C374.131 65.1389 372.541 64.9614 371.06 64.4184Z" fill="#CCCCCC"/>
</g>
<defs>
<clipPath id="clip0_201_2410">
<rect width="428.469" height="200" fill="white" transform="translate(0.765625)"/>
</clipPath>
</defs>
</svg>
