<svg width="376" height="200" viewBox="0 0 376 200" fill="none" xmlns="http://www.w3.org/2000/svg">
<g clip-path="url(#clip0_201_1324)">
<path d="M375.999 118.439C375.999 101.83 362.471 62.4194 345.782 62.4194C329.093 62.4194 315.564 101.83 315.564 118.439C315.57 126.416 318.756 134.064 324.423 139.703C330.089 145.342 337.772 148.509 345.782 148.509C353.792 148.509 361.475 145.342 367.141 139.703C372.807 134.064 375.994 126.416 375.999 118.439Z" fill="#F2F2F2"/>
<path d="M345.782 185.075C345.69 185.075 345.602 185.039 345.538 184.975C345.473 184.91 345.437 184.823 345.437 184.731V114.483C345.437 114.392 345.473 114.304 345.538 114.24C345.602 114.175 345.69 114.139 345.782 114.139C345.874 114.139 345.961 114.175 346.026 114.24C346.091 114.304 346.127 114.392 346.127 114.483V184.731C346.127 184.823 346.091 184.91 346.026 184.975C345.961 185.039 345.874 185.075 345.782 185.075Z" fill="#CCCCCC"/>
<path d="M345.783 127.608C345.733 127.608 345.684 127.597 345.639 127.577C345.594 127.556 345.554 127.526 345.521 127.489L328.143 107.53C328.083 107.461 328.053 107.372 328.059 107.281C328.066 107.19 328.109 107.105 328.178 107.045C328.247 106.986 328.337 106.956 328.428 106.962C328.52 106.968 328.605 107.011 328.665 107.079L346.044 127.038C346.087 127.088 346.115 127.149 346.125 127.215C346.134 127.28 346.124 127.346 346.097 127.406C346.069 127.466 346.025 127.517 345.97 127.553C345.914 127.589 345.849 127.608 345.783 127.608Z" fill="#CCCCCC"/>
<path d="M345.782 139.126C345.714 139.126 345.647 139.106 345.59 139.068C345.533 139.031 345.489 138.977 345.463 138.914C345.437 138.851 345.43 138.782 345.443 138.715C345.456 138.648 345.489 138.587 345.538 138.539L355.413 128.705C355.477 128.64 355.565 128.604 355.657 128.605C355.748 128.605 355.836 128.641 355.901 128.705C355.965 128.77 356.002 128.857 356.002 128.948C356.002 129.039 355.966 129.127 355.901 129.191L346.026 139.026C345.994 139.058 345.956 139.083 345.914 139.1C345.872 139.118 345.827 139.126 345.782 139.126Z" fill="#CCCCCC"/>
<path d="M42.7969 147.551C42.7969 138.198 35.1785 116.005 25.7807 116.005C16.383 116.005 8.76465 138.198 8.76465 147.551C8.76716 152.043 10.561 156.351 13.7519 159.527C16.9428 162.703 21.2695 164.487 25.7808 164.487C30.2921 164.487 34.6188 162.703 37.8096 159.527C41.0005 156.351 42.7944 152.043 42.7969 147.551Z" fill="#F2F2F2"/>
<path d="M25.7805 185.075C25.7289 185.075 25.6794 185.055 25.6429 185.019C25.6064 184.982 25.5859 184.933 25.5859 184.882V145.323C25.5859 145.272 25.6064 145.223 25.6429 145.186C25.6794 145.15 25.7289 145.13 25.7805 145.13C25.8321 145.13 25.8816 145.15 25.918 145.186C25.9545 145.223 25.975 145.272 25.975 145.323V184.882C25.975 184.933 25.9545 184.982 25.918 185.019C25.8815 185.055 25.8321 185.075 25.7805 185.075Z" fill="#CCCCCC"/>
<path d="M25.7813 152.714C25.7534 152.714 25.7258 152.708 25.7004 152.697C25.6751 152.685 25.6525 152.668 25.6342 152.647L15.8478 141.408C15.8143 141.369 15.7975 141.319 15.8013 141.268C15.8051 141.216 15.829 141.169 15.8679 141.135C15.9068 141.102 15.9574 141.085 16.0088 141.088C16.0602 141.092 16.108 141.116 16.1419 141.154L25.9283 152.393C25.9527 152.422 25.9685 152.456 25.9738 152.493C25.9792 152.53 25.9738 152.567 25.9583 152.601C25.9428 152.635 25.9179 152.663 25.8865 152.683C25.8551 152.703 25.8186 152.714 25.7813 152.714Z" fill="#CCCCCC"/>
<path d="M25.7805 159.201C25.742 159.201 25.7044 159.189 25.6724 159.168C25.6404 159.147 25.6155 159.116 25.6007 159.081C25.586 159.046 25.5822 159.007 25.5897 158.969C25.5972 158.931 25.6157 158.897 25.6429 158.87L31.2037 153.332C31.2402 153.296 31.2897 153.275 31.3413 153.275C31.3929 153.275 31.4424 153.296 31.4788 153.332C31.5153 153.368 31.5358 153.418 31.5358 153.469C31.5358 153.52 31.5153 153.57 31.4788 153.606L25.918 159.144C25.9 159.162 25.8786 159.176 25.855 159.186C25.8313 159.196 25.806 159.201 25.7805 159.201Z" fill="#CCCCCC"/>
<path d="M7.35059 184.819C7.35059 182.942 8.09902 181.143 9.43124 179.816C10.7635 178.49 12.5703 177.744 14.4544 177.744C16.3384 177.744 18.1453 178.49 19.4775 179.816C20.8097 181.143 21.5582 182.942 21.5582 184.819" fill="#F2F2F2"/>
<path d="M14.4546 184.819C14.4037 184.819 14.3549 184.799 14.3189 184.763C14.2829 184.727 14.2627 184.678 14.2627 184.628V180.899C14.2627 180.848 14.2829 180.8 14.3189 180.764C14.3549 180.728 14.4037 180.708 14.4546 180.708C14.5055 180.708 14.5544 180.728 14.5904 180.764C14.6264 180.8 14.6466 180.848 14.6466 180.899V184.628C14.6466 184.678 14.6264 184.727 14.5904 184.763C14.5544 184.799 14.5055 184.819 14.4546 184.819Z" fill="#CCCCCC"/>
<path d="M14.455 183.537C14.4091 183.538 14.3647 183.521 14.33 183.491L12.0254 181.522C12.0062 181.506 11.9904 181.486 11.9789 181.463C11.9675 181.441 11.9605 181.417 11.9586 181.391C11.9566 181.366 11.9597 181.341 11.9675 181.317C11.9754 181.293 11.9879 181.271 12.0043 181.252C12.0208 181.233 12.0409 181.217 12.0634 181.206C12.086 181.195 12.1106 181.188 12.1358 181.186C12.161 181.184 12.1863 181.187 12.2103 181.195C12.2343 181.203 12.2565 181.216 12.2756 181.232L14.5802 183.201C14.6099 183.227 14.6312 183.261 14.641 183.298C14.6508 183.336 14.6488 183.376 14.6351 183.413C14.6215 183.449 14.5969 183.481 14.5647 183.503C14.5325 183.526 14.4942 183.537 14.455 183.537Z" fill="#CCCCCC"/>
<path d="M29.2383 184.819C29.2383 182.942 29.9867 181.143 31.3189 179.816C32.6512 178.49 34.458 177.744 36.3421 177.744C38.2261 177.744 40.033 178.49 41.3652 179.816C42.6974 181.143 43.4459 182.942 43.4459 184.819" fill="#F2F2F2"/>
<path d="M36.3423 184.819C36.2914 184.819 36.2426 184.799 36.2066 184.763C36.1706 184.727 36.1504 184.678 36.1504 184.628V180.899C36.1504 180.848 36.1706 180.8 36.2066 180.764C36.2426 180.728 36.2914 180.708 36.3423 180.708C36.3932 180.708 36.4421 180.728 36.4781 180.764C36.514 180.8 36.5343 180.848 36.5343 180.899V184.628C36.5343 184.678 36.514 184.727 36.4781 184.763C36.4421 184.799 36.3932 184.819 36.3423 184.819Z" fill="#CCCCCC"/>
<path d="M36.3422 183.537C36.2964 183.538 36.252 183.521 36.2172 183.491L33.9127 181.522C33.874 181.489 33.8501 181.442 33.8463 181.392C33.8424 181.341 33.8589 181.291 33.892 181.253C33.9252 181.214 33.9724 181.19 34.0232 181.186C34.074 181.183 34.1242 181.199 34.1628 181.232L36.4674 183.201C36.4972 183.227 36.5184 183.261 36.5283 183.298C36.5381 183.336 36.536 183.376 36.5224 183.413C36.5088 183.449 36.4842 183.481 36.452 183.503C36.4198 183.526 36.3815 183.537 36.3422 183.537Z" fill="#CCCCCC"/>
<path d="M160.971 156.709C117.587 156.709 82.291 121.56 82.291 78.3547C82.291 35.1499 117.587 0 160.971 0C204.356 0 239.652 35.1499 239.652 78.3547C239.652 121.56 204.356 156.709 160.971 156.709ZM160.971 1.05174C118.169 1.05174 83.3471 35.7297 83.3471 78.3547C83.3471 120.98 118.169 155.658 160.971 155.658C203.774 155.658 238.596 120.98 238.596 78.3547C238.596 35.7297 203.774 1.05174 160.971 1.05174Z" fill="#CCCCCC"/>
<path d="M160.971 72.5701C160.831 72.5701 160.697 72.5147 160.598 72.4161C160.499 72.3175 160.443 72.1837 160.443 72.0443V0.52587C160.443 0.386401 160.499 0.252651 160.598 0.154032C160.697 0.0554117 160.831 0 160.971 0C161.111 0 161.246 0.0554117 161.345 0.154032C161.444 0.252651 161.499 0.386401 161.499 0.52587V72.0443C161.499 72.1837 161.444 72.3175 161.345 72.4161C161.246 72.5147 161.111 72.5701 160.971 72.5701Z" fill="#CCCCCC"/>
<path d="M239.123 78.8806H167.307C167.167 78.8806 167.033 78.8252 166.934 78.7266C166.835 78.628 166.779 78.4942 166.779 78.3547C166.779 78.2153 166.835 78.0815 166.934 77.9829C167.033 77.8843 167.167 77.8289 167.307 77.8289H239.123C239.263 77.8289 239.397 77.8843 239.496 77.9829C239.595 78.0815 239.651 78.2153 239.651 78.3547C239.651 78.4942 239.595 78.628 239.496 78.7266C239.397 78.8252 239.263 78.8806 239.123 78.8806Z" fill="#CCCCCC"/>
<path d="M154.635 78.8806H82.8533C82.7132 78.8806 82.5789 78.8252 82.4799 78.7266C82.3808 78.628 82.3252 78.4942 82.3252 78.3547C82.3252 78.2153 82.3808 78.0815 82.4799 77.9829C82.5789 77.8843 82.7132 77.8289 82.8533 77.8289H154.635C154.775 77.8289 154.909 77.8843 155.008 77.9829C155.107 78.0815 155.163 78.2153 155.163 78.3547C155.163 78.4942 155.107 78.628 155.008 78.7266C154.909 78.8252 154.775 78.8806 154.635 78.8806Z" fill="#CCCCCC"/>
<path d="M160.971 156.709C160.831 156.709 160.697 156.654 160.598 156.555C160.499 156.457 160.443 156.323 160.443 156.184V84.6652C160.443 84.5257 160.499 84.3919 160.598 84.2933C160.697 84.1947 160.831 84.1393 160.971 84.1393C161.111 84.1393 161.246 84.1947 161.345 84.2933C161.444 84.3919 161.499 84.5257 161.499 84.6652V156.184C161.499 156.323 161.444 156.457 161.345 156.555C161.246 156.654 161.111 156.709 160.971 156.709Z" fill="#CCCCCC"/>
<path d="M165.627 74.6074C165.522 74.6073 165.42 74.5765 165.333 74.5187C165.246 74.4609 165.179 74.3788 165.139 74.2827C165.099 74.1866 165.088 74.0809 165.109 73.9789C165.129 73.8769 165.179 73.7833 165.253 73.7097L215.811 23.3609C215.86 23.3121 215.918 23.2734 215.982 23.247C216.046 23.2205 216.115 23.2069 216.184 23.2069C216.254 23.2069 216.322 23.2205 216.386 23.247C216.451 23.2734 216.509 23.3121 216.558 23.3609C216.607 23.4098 216.646 23.4677 216.672 23.5315C216.699 23.5953 216.712 23.6637 216.712 23.7327C216.712 23.8018 216.699 23.8702 216.672 23.934C216.646 23.9978 216.607 24.0557 216.558 24.1046L166 74.4533C165.951 74.5022 165.893 74.541 165.829 74.5675C165.765 74.5939 165.696 74.6075 165.627 74.6074Z" fill="#CCCCCC"/>
<path d="M156.315 74.6074C156.246 74.6074 156.177 74.5939 156.113 74.5674C156.049 74.541 155.991 74.5022 155.942 74.4533L105.384 24.1045C105.285 24.0059 105.229 23.8722 105.229 23.7327C105.229 23.5933 105.285 23.4595 105.384 23.3609C105.483 23.2623 105.617 23.2069 105.757 23.2069C105.898 23.2069 106.032 23.2623 106.131 23.3609L156.689 73.7097C156.763 73.7832 156.813 73.8769 156.833 73.9789C156.854 74.0809 156.843 74.1866 156.803 74.2827C156.763 74.3788 156.696 74.4609 156.609 74.5187C156.522 74.5765 156.42 74.6073 156.315 74.6074Z" fill="#CCCCCC"/>
<path d="M216.184 133.503C216.115 133.503 216.046 133.489 215.982 133.463C215.918 133.436 215.86 133.397 215.811 133.348L165.253 82.9997C165.154 82.9011 165.099 82.7674 165.099 82.6279C165.099 82.4885 165.154 82.3547 165.253 82.2561C165.352 82.1575 165.487 82.1021 165.627 82.1021C165.767 82.1021 165.901 82.1575 166 82.2561L216.558 132.605C216.632 132.678 216.682 132.772 216.702 132.874C216.723 132.976 216.712 133.082 216.672 133.178C216.632 133.274 216.565 133.356 216.478 133.414C216.391 133.472 216.289 133.503 216.184 133.503Z" fill="#CCCCCC"/>
<path d="M105.757 133.503C105.653 133.503 105.551 133.472 105.464 133.414C105.377 133.356 105.31 133.274 105.27 133.178C105.23 133.082 105.219 132.976 105.24 132.874C105.26 132.772 105.31 132.678 105.384 132.605L155.942 82.2562C155.991 82.2073 156.049 82.1686 156.113 82.1422C156.177 82.1158 156.246 82.1022 156.315 82.1022C156.385 82.1022 156.453 82.1158 156.517 82.1422C156.582 82.1686 156.64 82.2073 156.689 82.2562C156.738 82.305 156.777 82.363 156.803 82.4268C156.83 82.4906 156.843 82.5589 156.843 82.628C156.843 82.697 156.83 82.7654 156.803 82.8292C156.777 82.893 156.738 82.951 156.689 82.9998L106.131 133.349C106.082 133.397 106.024 133.436 105.96 133.463C105.895 133.489 105.827 133.503 105.757 133.503Z" fill="#CCCCCC"/>
<path d="M160.971 132.256C150.266 132.256 139.802 129.095 130.901 123.172C122 117.25 115.062 108.831 110.966 98.9821C106.869 89.1328 105.797 78.295 107.886 67.839C109.974 57.3831 115.129 47.7788 122.699 40.2405C130.268 32.7022 139.913 27.5685 150.412 25.4887C160.911 23.4089 171.794 24.4763 181.684 28.556C191.575 32.6357 200.028 39.5444 205.975 48.4085C211.923 57.2726 215.097 67.694 215.097 78.3547C215.081 92.6454 209.373 106.346 199.226 116.451C189.079 126.556 175.322 132.24 160.971 132.256ZM160.971 25.5047C150.475 25.5047 140.215 28.6043 131.488 34.4116C122.76 40.2188 115.958 48.4728 111.942 58.1299C107.925 67.787 106.874 78.4134 108.922 88.6653C110.969 98.9172 116.024 108.334 123.446 115.725C130.867 123.117 140.324 128.15 150.618 130.189C160.913 132.228 171.583 131.182 181.28 127.182C190.977 123.182 199.266 116.408 205.097 107.717C210.929 99.0255 214.041 88.8075 214.041 78.3547C214.025 64.3429 208.429 50.9095 198.48 41.0016C188.531 31.0938 175.042 25.5206 160.971 25.5047Z" fill="#CCCCCC"/>
<path d="M160.971 84.6651C164.471 84.6651 167.308 81.8399 167.308 78.3547C167.308 74.8695 164.471 72.0443 160.971 72.0443C157.472 72.0443 154.635 74.8695 154.635 78.3547C154.635 81.8399 157.472 84.6651 160.971 84.6651Z" fill="#1E1E1E"/>
<path d="M136.439 184.946L130.872 185.107L158.044 75.8858L163.095 77.4203L136.439 184.946Z" fill="#1E1E1E"/>
<path d="M185.503 184.946L191.071 185.107L163.899 75.8858L158.848 77.4203L185.503 184.946Z" fill="#1E1E1E"/>
<path d="M169.42 16.302H151.994V25.7676H169.42V16.302Z" fill="#CCCCCC"/>
<path d="M159.915 18.4055H153.051V25.7676H159.915V18.4055Z" fill="white"/>
<path d="M168.364 18.4055H161.499V25.7676H168.364V18.4055Z" fill="white"/>
<path d="M160.707 36.0221C158.047 36.0191 155.497 34.9655 153.616 33.0924C151.735 31.2192 150.677 28.6796 150.674 26.0306V25.7677C150.675 25.1403 150.925 24.5388 151.371 24.0951C151.816 23.6515 152.42 23.402 153.05 23.4012H168.364C168.994 23.402 169.598 23.6515 170.043 24.0951C170.489 24.5388 170.739 25.1403 170.74 25.7677V26.0306C170.737 28.6796 169.679 31.2192 167.798 33.0924C165.917 34.9655 163.367 36.0191 160.707 36.0221Z" fill="#CCCCCC"/>
<path d="M168.768 18.6684H152.647C152.422 18.6684 152.201 18.6111 152.004 18.502C151.808 18.3929 151.643 18.2355 151.524 18.0449C151.406 17.8543 151.339 17.6367 151.328 17.4128C151.318 17.1889 151.366 16.9661 151.467 16.7657L154.635 10.4553C154.744 10.2363 154.912 10.0522 155.121 9.9238C155.33 9.79536 155.57 9.72773 155.816 9.72858H165.599C165.845 9.72773 166.085 9.79536 166.294 9.9238C166.503 10.0522 166.671 10.2363 166.78 10.4553L169.949 16.7657C170.049 16.9661 170.097 17.1889 170.087 17.4128C170.077 17.6367 170.009 17.8542 169.891 18.0449C169.773 18.2355 169.607 18.3929 169.411 18.502C169.214 18.6111 168.993 18.6684 168.768 18.6684Z" fill="#07A0C3"/>
<path d="M216.417 37.3368H198.991V46.8025H216.417V37.3368Z" fill="#CCCCCC"/>
<path d="M206.913 39.4403H200.048V46.8025H206.913V39.4403Z" fill="white"/>
<path d="M215.361 39.4403H208.496V46.8025H215.361V39.4403Z" fill="white"/>
<path d="M207.704 57.057C205.044 57.054 202.494 56.0003 200.613 54.1272C198.732 52.2541 197.674 49.7144 197.671 47.0654V46.8025C197.672 46.1751 197.922 45.5736 198.368 45.13C198.813 44.6863 199.417 44.4368 200.047 44.4361H215.361C215.991 44.4368 216.595 44.6863 217.04 45.13C217.486 45.5736 217.736 46.1751 217.737 46.8025V47.0654C217.734 49.7144 216.676 52.2541 214.795 54.1272C212.914 56.0003 210.364 57.054 207.704 57.057Z" fill="#CCCCCC"/>
<path d="M202.812 31.2893C202.665 31.2888 202.52 31.3294 202.395 31.4065C202.27 31.4835 202.169 31.594 202.104 31.7253L198.935 38.0358C198.875 38.156 198.846 38.2897 198.852 38.424C198.858 38.5583 198.899 38.6889 198.97 38.8033C199.041 38.9177 199.14 39.0121 199.258 39.0776C199.376 39.143 199.509 39.1774 199.644 39.1774H215.764C215.899 39.1774 216.032 39.143 216.15 39.0776C216.268 39.0121 216.367 38.9177 216.438 38.8033C216.509 38.6889 216.549 38.5583 216.555 38.424C216.561 38.2897 216.533 38.156 216.472 38.0358L213.304 31.7253C213.239 31.594 213.138 31.4835 213.012 31.4065C212.887 31.3294 212.743 31.2888 212.596 31.2893H202.812Z" fill="#07A0C3"/>
<path d="M234.899 84.6652H217.474V94.1308H234.899V84.6652Z" fill="#CCCCCC"/>
<path d="M225.394 86.7686H218.529V94.1308H225.394V86.7686Z" fill="white"/>
<path d="M233.843 86.7686H226.979V94.1308H233.843V86.7686Z" fill="white"/>
<path d="M226.186 104.385C223.526 104.382 220.976 103.329 219.095 101.456C217.214 99.5824 216.156 97.0428 216.153 94.3938V94.1308C216.154 93.5034 216.405 92.9019 216.85 92.4583C217.296 92.0147 217.9 91.7651 218.53 91.7644H233.843C234.473 91.7651 235.077 92.0147 235.523 92.4583C235.968 92.9019 236.219 93.5034 236.219 94.1308V94.3938C236.216 97.0428 235.158 99.5824 233.277 101.456C231.397 103.329 228.846 104.382 226.186 104.385Z" fill="#CCCCCC"/>
<path d="M234.246 87.0316H218.126C217.901 87.0316 217.68 86.9744 217.483 86.8652C217.286 86.7561 217.121 86.5988 217.003 86.4081C216.885 86.2175 216.817 85.9999 216.807 85.776C216.797 85.5521 216.844 85.3294 216.945 85.1289L220.113 78.8185C220.222 78.5996 220.391 78.4155 220.599 78.287C220.808 78.1586 221.049 78.0909 221.294 78.0918H231.078C231.323 78.0909 231.564 78.1586 231.773 78.287C231.981 78.4155 232.15 78.5996 232.259 78.8185L235.427 85.1289C235.528 85.3294 235.575 85.5521 235.565 85.776C235.555 85.9999 235.488 86.2175 235.369 86.4081C235.251 86.5987 235.086 86.7561 234.889 86.8652C234.693 86.9744 234.471 87.0316 234.246 87.0316Z" fill="#07A0C3"/>
<path d="M215.361 128.838H197.936V138.304H215.361V128.838Z" fill="#CCCCCC"/>
<path d="M205.856 130.942H198.991V138.304H205.856V130.942Z" fill="white"/>
<path d="M214.305 130.942H207.44V138.304H214.305V130.942Z" fill="white"/>
<path d="M206.648 148.558C203.988 148.555 201.438 147.502 199.557 145.629C197.676 143.756 196.618 141.216 196.615 138.567V138.304C196.616 137.677 196.867 137.075 197.312 136.631C197.757 136.188 198.361 135.938 198.991 135.938H214.305C214.935 135.938 215.539 136.188 215.985 136.631C216.43 137.075 216.681 137.677 216.681 138.304V138.567C216.678 141.216 215.62 143.756 213.739 145.629C211.858 147.502 209.308 148.555 206.648 148.558Z" fill="#CCCCCC"/>
<path d="M214.708 131.205H198.588C198.363 131.205 198.141 131.147 197.945 131.038C197.748 130.929 197.583 130.772 197.465 130.581C197.346 130.391 197.279 130.173 197.269 129.949C197.259 129.725 197.306 129.502 197.407 129.302L200.575 122.992C200.684 122.773 200.853 122.589 201.061 122.46C201.27 122.332 201.511 122.264 201.756 122.265H211.54C211.785 122.264 212.026 122.332 212.235 122.46C212.443 122.589 212.612 122.773 212.721 122.992L215.889 129.302C215.99 129.502 216.037 129.725 216.027 129.949C216.017 130.173 215.95 130.391 215.831 130.581C215.713 130.772 215.548 130.929 215.351 131.038C215.155 131.147 214.933 131.205 214.708 131.205Z" fill="#07A0C3"/>
<path d="M105.525 46.8025H122.951V37.3368H105.525V46.8025Z" fill="#CCCCCC"/>
<path d="M115.031 46.8025H121.896V39.4403H115.031V46.8025Z" fill="white"/>
<path d="M106.582 46.8025H113.446V39.4403H106.582V46.8025Z" fill="white"/>
<path d="M114.238 57.057C111.578 57.054 109.028 56.0003 107.147 54.1272C105.266 52.2541 104.208 49.7144 104.205 47.0654V46.8025C104.206 46.1751 104.456 45.5736 104.902 45.13C105.347 44.6863 105.951 44.4368 106.581 44.4361H121.895C122.525 44.4368 123.129 44.6863 123.574 45.13C124.02 45.5736 124.27 46.1751 124.271 46.8025V47.0654C124.268 49.7144 123.21 52.2541 121.329 54.1272C119.448 56.0003 116.898 57.054 114.238 57.057Z" fill="#CCCCCC"/>
<path d="M122.299 39.7032H106.179C105.954 39.7033 105.732 39.646 105.536 39.5369C105.339 39.4277 105.174 39.2704 105.056 39.0797C104.937 38.8891 104.87 38.6715 104.86 38.4476C104.85 38.2237 104.897 38.001 104.998 37.8006L108.166 31.4901C108.275 31.2712 108.444 31.0871 108.652 30.9586C108.861 30.8302 109.102 30.7626 109.347 30.7634H119.131C119.376 30.7626 119.617 30.8302 119.825 30.9586C120.034 31.0871 120.202 31.2712 120.311 31.4901L123.48 37.8006C123.58 38.001 123.628 38.2237 123.618 38.4476C123.608 38.6715 123.54 38.8891 123.422 39.0797C123.304 39.2704 123.138 39.4277 122.942 39.5369C122.745 39.646 122.524 39.7033 122.299 39.7032Z" fill="#07A0C3"/>
<path d="M87.0439 94.1308H104.47V84.6651H87.0439V94.1308Z" fill="#CCCCCC"/>
<path d="M96.5484 94.1308H103.413V86.7686H96.5484V94.1308Z" fill="white"/>
<path d="M88.0992 94.1308H94.9639V86.7686H88.0992V94.1308Z" fill="white"/>
<path d="M95.7567 104.385C93.0967 104.382 90.5465 103.329 88.6656 101.456C86.7847 99.5824 85.7267 97.0428 85.7236 94.3938V94.1308C85.7243 93.5034 85.9749 92.9019 86.4204 92.4583C86.8659 92.0147 87.4699 91.7651 88.0999 91.7644H103.413C104.043 91.7651 104.647 92.0147 105.093 92.4583C105.538 92.9019 105.789 93.5034 105.79 94.1308V94.3938C105.787 97.0428 104.729 99.5824 102.848 101.456C100.967 103.329 98.4167 104.382 95.7567 104.385Z" fill="#CCCCCC"/>
<path d="M103.817 87.0316H87.6962C87.4711 87.0316 87.2498 86.9744 87.0533 86.8652C86.8567 86.7561 86.6914 86.5988 86.5731 86.4081C86.4548 86.2175 86.3874 85.9999 86.3773 85.776C86.3672 85.5521 86.4147 85.3294 86.5154 85.1289L89.6837 78.8185C89.7927 78.5996 89.9611 78.4155 90.1698 78.287C90.3785 78.1586 90.6192 78.0909 90.8645 78.0918H100.648C100.894 78.0909 101.134 78.1586 101.343 78.287C101.552 78.4155 101.72 78.5996 101.829 78.8185L104.997 85.1289C105.098 85.3294 105.146 85.5521 105.135 85.776C105.125 85.9999 105.058 86.2175 104.94 86.4081C104.821 86.5987 104.656 86.7561 104.459 86.8652C104.263 86.9744 104.042 87.0316 103.817 87.0316Z" fill="#07A0C3"/>
<path d="M106.582 138.304H124.008V128.838H106.582V138.304Z" fill="#CCCCCC"/>
<path d="M116.086 138.304H122.951V130.942H116.086V138.304Z" fill="white"/>
<path d="M107.638 138.304H114.503V130.942H107.638V138.304Z" fill="white"/>
<path d="M115.295 148.558C112.635 148.555 110.085 147.502 108.204 145.629C106.323 143.756 105.265 141.216 105.262 138.567V138.304C105.262 137.677 105.513 137.075 105.958 136.631C106.404 136.188 107.008 135.938 107.638 135.938H122.952C123.582 135.938 124.186 136.188 124.631 136.631C125.077 137.075 125.327 137.677 125.328 138.304V138.567C125.325 141.216 124.267 143.756 122.386 145.629C120.505 147.502 117.955 148.555 115.295 148.558Z" fill="#CCCCCC"/>
<path d="M123.355 131.205H107.234C107.009 131.205 106.788 131.147 106.591 131.038C106.395 130.929 106.23 130.772 106.111 130.581C105.993 130.391 105.925 130.173 105.915 129.949C105.905 129.725 105.953 129.502 106.053 129.302L109.222 122.992C109.331 122.773 109.499 122.589 109.708 122.46C109.917 122.332 110.157 122.264 110.403 122.265H120.186C120.432 122.264 120.672 122.332 120.881 122.46C121.09 122.589 121.258 122.773 121.367 122.992L124.535 129.302C124.636 129.502 124.684 129.725 124.674 129.949C124.663 130.173 124.596 130.391 124.478 130.581C124.359 130.772 124.194 130.929 123.998 131.038C123.801 131.147 123.58 131.205 123.355 131.205Z" fill="#07A0C3"/>
<path d="M169.42 148.821H151.994V158.287H169.42V148.821Z" fill="#CCCCCC"/>
<path d="M159.915 150.925H153.051V158.287H159.915V150.925Z" fill="white"/>
<path d="M168.364 150.925H161.499V158.287H168.364V150.925Z" fill="white"/>
<path d="M153.05 156.447C152.56 156.447 152.091 156.641 151.744 156.986C151.398 157.331 151.203 157.799 151.202 158.287V158.55C151.202 161.06 152.204 163.468 153.986 165.243C155.769 167.018 158.186 168.016 160.707 168.016C163.228 168.016 165.646 167.018 167.428 165.243C169.211 163.468 170.212 161.06 170.212 158.55V158.287C170.212 157.799 170.017 157.331 169.67 156.986C169.324 156.641 168.854 156.447 168.364 156.447H153.05Z" fill="#CCCCCC"/>
<path d="M155.815 142.774C155.668 142.773 155.523 142.814 155.398 142.891C155.273 142.968 155.172 143.079 155.107 143.21L151.938 149.52C151.878 149.641 151.849 149.774 151.855 149.909C151.861 150.043 151.902 150.173 151.973 150.288C152.044 150.402 152.143 150.497 152.261 150.562C152.379 150.628 152.512 150.662 152.647 150.662H168.767C168.902 150.662 169.035 150.628 169.153 150.562C169.271 150.497 169.37 150.402 169.441 150.288C169.512 150.173 169.552 150.043 169.558 149.909C169.564 149.774 169.536 149.641 169.475 149.52L166.307 143.21C166.242 143.079 166.141 142.968 166.015 142.891C165.89 142.814 165.746 142.773 165.599 142.774H155.815Z" fill="#07A0C3"/>
<path d="M279.366 169.33C279.506 169.33 279.64 169.275 279.739 169.176C279.838 169.078 279.894 168.944 279.894 168.804C279.894 168.665 279.838 168.531 279.739 168.433C279.64 168.334 279.506 168.279 279.366 168.279H274.349V166.175H279.366C279.506 166.175 279.64 166.12 279.739 166.021C279.838 165.922 279.894 165.789 279.894 165.649C279.894 165.51 279.838 165.376 279.739 165.277C279.64 165.179 279.506 165.123 279.366 165.123H236.593C236.453 165.123 236.319 165.179 236.22 165.277C236.121 165.376 236.065 165.51 236.065 165.649C236.065 165.789 236.121 165.922 236.22 166.021C236.319 166.12 236.453 166.175 236.593 166.175H241.61V168.279H236.593C236.453 168.279 236.319 168.334 236.22 168.433C236.121 168.531 236.065 168.665 236.065 168.804C236.065 168.944 236.121 169.078 236.22 169.176C236.319 169.275 236.453 169.33 236.593 169.33H241.61V171.434H236.593C236.453 171.434 236.319 171.489 236.22 171.588C236.121 171.686 236.065 171.82 236.065 171.96C236.065 172.099 236.121 172.233 236.22 172.332C236.319 172.43 236.453 172.486 236.593 172.486H241.61V174.589H237.122C236.841 174.589 236.573 174.7 236.375 174.897C236.177 175.094 236.065 175.362 236.065 175.641C236.065 175.92 236.177 176.187 236.375 176.384C236.573 176.582 236.841 176.693 237.122 176.693H241.394C241.363 176.777 241.347 176.866 241.346 176.955V184.318C241.346 184.527 241.429 184.727 241.578 184.875C241.727 185.023 241.928 185.106 242.138 185.106C242.348 185.106 242.55 185.023 242.698 184.875C242.847 184.727 242.93 184.527 242.93 184.318V176.955C242.929 176.866 242.913 176.777 242.882 176.693H273.078C273.047 176.777 273.03 176.866 273.029 176.955V184.318C273.029 184.527 273.113 184.727 273.261 184.875C273.41 185.023 273.611 185.106 273.821 185.106C274.031 185.106 274.233 185.023 274.381 184.875C274.53 184.727 274.613 184.527 274.613 184.318V176.955C274.613 176.866 274.596 176.777 274.565 176.693H278.838C279.118 176.693 279.387 176.582 279.585 176.384C279.783 176.187 279.894 175.92 279.894 175.641C279.894 175.362 279.783 175.094 279.585 174.897C279.387 174.7 279.118 174.589 278.838 174.589H274.349V172.486H279.366C279.506 172.486 279.64 172.43 279.739 172.332C279.838 172.233 279.894 172.099 279.894 171.96C279.894 171.82 279.838 171.686 279.739 171.588C279.64 171.489 279.506 171.434 279.366 171.434H274.349V169.33H279.366ZM242.666 166.175H273.293V168.279H242.666V166.175ZM273.293 174.589H242.666V172.486H273.293V174.589ZM273.293 171.434H242.666V169.33H273.293V171.434Z" fill="#1E1E1E"/>
<path d="M99.8269 169.33C99.967 169.33 100.101 169.275 100.2 169.176C100.299 169.078 100.355 168.944 100.355 168.804C100.355 168.665 100.299 168.531 100.2 168.433C100.101 168.334 99.967 168.279 99.8269 168.279H94.8104V166.175H99.8269C99.967 166.175 100.101 166.12 100.2 166.021C100.299 165.922 100.355 165.789 100.355 165.649C100.355 165.51 100.299 165.376 100.2 165.277C100.101 165.179 99.967 165.123 99.8269 165.123H57.0544C56.9144 165.123 56.7801 165.179 56.681 165.277C56.582 165.376 56.5264 165.51 56.5264 165.649C56.5264 165.789 56.582 165.922 56.681 166.021C56.7801 166.12 56.9144 166.175 57.0544 166.175H62.071V168.279H57.0544C56.9144 168.279 56.7801 168.334 56.681 168.433C56.582 168.531 56.5264 168.665 56.5264 168.804C56.5264 168.944 56.582 169.078 56.681 169.176C56.7801 169.275 56.9144 169.33 57.0544 169.33H62.071V171.434H57.0544C56.9144 171.434 56.7801 171.489 56.681 171.588C56.582 171.686 56.5264 171.82 56.5264 171.96C56.5264 172.099 56.582 172.233 56.681 172.332C56.7801 172.43 56.9144 172.486 57.0544 172.486H62.071V174.589H57.5825C57.3024 174.589 57.0338 174.7 56.8357 174.897C56.6376 175.094 56.5264 175.362 56.5264 175.641C56.5264 175.92 56.6376 176.187 56.8357 176.384C57.0338 176.582 57.3024 176.693 57.5825 176.693H61.8554C61.8242 176.777 61.8079 176.866 61.8069 176.955V184.318C61.8069 184.527 61.8904 184.727 62.0389 184.875C62.1875 185.023 62.3889 185.106 62.599 185.106C62.8091 185.106 63.0106 185.023 63.1591 184.875C63.3076 184.727 63.3911 184.527 63.3911 184.318V176.955C63.3902 176.866 63.3738 176.777 63.3426 176.693H93.5387C93.5076 176.777 93.4912 176.866 93.4903 176.955V184.318C93.4903 184.527 93.5737 184.727 93.7223 184.875C93.8708 185.023 94.0723 185.106 94.2824 185.106C94.4924 185.106 94.6939 185.023 94.8424 184.875C94.991 184.727 95.0744 184.527 95.0744 184.318V176.955C95.0735 176.866 95.0571 176.777 95.0259 176.693H99.2989C99.579 176.693 99.8476 176.582 100.046 176.384C100.244 176.187 100.355 175.92 100.355 175.641C100.355 175.362 100.244 175.094 100.046 174.897C99.8476 174.7 99.579 174.589 99.2989 174.589H94.8104V172.486H99.8269C99.967 172.486 100.101 172.43 100.2 172.332C100.299 172.233 100.355 172.099 100.355 171.96C100.355 171.82 100.299 171.686 100.2 171.588C100.101 171.489 99.967 171.434 99.8269 171.434H94.8104V169.33H99.8269ZM63.1271 166.175H93.7543V168.279H63.1271V166.175ZM93.7543 174.589H63.1271V172.486H93.7543V174.589ZM93.7543 171.434H63.1271V169.33H93.7543V171.434Z" fill="#1E1E1E"/>
<path d="M266.164 166.438H264.58C264.37 166.438 264.169 166.355 264.02 166.207C263.872 166.059 263.788 165.858 263.788 165.649V164.072C263.788 163.862 263.872 163.662 264.02 163.514C264.169 163.366 264.37 163.283 264.58 163.283H266.164C266.374 163.283 266.576 163.366 266.724 163.514C266.873 163.662 266.956 163.862 266.956 164.072V165.649C266.956 165.858 266.873 166.059 266.724 166.207C266.576 166.355 266.374 166.438 266.164 166.438Z" fill="#CCCCCC"/>
<path d="M265.402 164.7C265.372 164.7 265.341 164.697 265.312 164.692C265.243 164.68 265.178 164.655 265.119 164.619C265.061 164.582 265.01 164.534 264.97 164.477C264.93 164.421 264.901 164.357 264.886 164.29C264.871 164.222 264.869 164.153 264.881 164.085L270.103 133.823C270.127 133.686 270.205 133.563 270.319 133.483C270.433 133.403 270.575 133.371 270.713 133.395C270.851 133.418 270.973 133.495 271.054 133.609C271.135 133.723 271.167 133.864 271.144 134.001L265.922 164.263C265.9 164.385 265.837 164.496 265.742 164.576C265.647 164.656 265.526 164.7 265.402 164.7Z" fill="#CCCCCC"/>
<path d="M265.401 164.7C265.277 164.699 265.156 164.656 265.061 164.576C264.966 164.496 264.902 164.385 264.881 164.263L259.659 134.001C259.635 133.863 259.667 133.722 259.748 133.608C259.829 133.494 259.952 133.417 260.09 133.394C260.228 133.37 260.37 133.402 260.484 133.482C260.599 133.563 260.676 133.685 260.7 133.823L265.922 164.085C265.934 164.153 265.932 164.222 265.917 164.29C265.901 164.357 265.873 164.421 265.833 164.477C265.793 164.534 265.742 164.582 265.683 164.618C265.625 164.655 265.559 164.68 265.491 164.692C265.461 164.697 265.431 164.7 265.401 164.7Z" fill="#CCCCCC"/>
<path d="M276.644 128.643C277.153 125.051 275.227 121.811 272.342 121.406C269.457 121 266.706 123.583 266.197 127.174C265.767 130.203 267.073 132.975 269.223 134.014L269.1 134.878L271.712 135.245L271.835 134.381C274.189 133.975 276.215 131.672 276.644 128.643Z" fill="#DD6E42"/>
<path d="M264.516 127.008C263.891 123.435 261.058 120.942 258.188 121.44C255.317 121.938 253.497 125.238 254.122 128.811C254.649 131.825 256.748 134.062 259.114 134.393L259.265 135.252L261.863 134.801L261.713 133.942C263.828 132.834 265.043 130.022 264.516 127.008Z" fill="#FFB7B7"/>
<path d="M265.373 164.072C265.233 164.072 265.098 164.016 264.999 163.918C264.9 163.819 264.845 163.685 264.845 163.546V132.437C264.845 132.297 264.9 132.163 264.999 132.065C265.098 131.966 265.233 131.911 265.373 131.911C265.513 131.911 265.647 131.966 265.746 132.065C265.845 132.163 265.901 132.297 265.901 132.437V163.546C265.901 163.685 265.845 163.819 265.746 163.918C265.647 164.016 265.513 164.072 265.373 164.072Z" fill="#CCCCCC"/>
<path d="M270.32 126.461C270.32 122.834 267.959 119.894 265.045 119.894C262.131 119.894 259.77 122.834 259.77 126.461C259.77 129.52 261.452 132.083 263.726 132.813V133.685H266.364V132.813C268.638 132.083 270.32 129.52 270.32 126.461Z" fill="#07A0C3"/>
<path d="M375.175 185.915H0.628742C0.461988 185.915 0.302067 185.849 0.184154 185.731C0.0662413 185.614 0 185.455 0 185.289C0 185.123 0.0662413 184.963 0.184154 184.846C0.302067 184.729 0.461988 184.663 0.628742 184.663H375.175C375.342 184.663 375.502 184.729 375.62 184.846C375.738 184.963 375.804 185.123 375.804 185.289C375.804 185.455 375.738 185.614 375.62 185.731C375.502 185.849 375.342 185.915 375.175 185.915Z" fill="#CCCCCC"/>
<path d="M292.265 184.795L291.064 184.794L290.493 180.181H292.265V184.795Z" fill="#A0616A"/>
<path d="M290.035 184.453H292.523V185.905H288.748V185.735C288.748 185.566 288.781 185.4 288.846 185.244C288.911 185.089 289.006 184.947 289.125 184.828C289.245 184.709 289.387 184.615 289.543 184.55C289.699 184.486 289.866 184.453 290.035 184.453Z" fill="#1E1E1E"/>
<path d="M300.98 183.439L299.888 183.936L297.443 179.977L299.056 179.243L300.98 183.439Z" fill="#A0616A"/>
<path d="M298.809 184.051L301.071 183.022L301.677 184.343L298.244 185.905L298.173 185.75C298.102 185.597 298.063 185.432 298.057 185.263C298.051 185.095 298.078 184.927 298.137 184.77C298.196 184.612 298.286 184.467 298.401 184.344C298.516 184.221 298.655 184.121 298.809 184.051Z" fill="#1E1E1E"/>
<path d="M292.189 183.578H291.041C290.93 183.578 290.823 183.535 290.741 183.46C290.66 183.384 290.61 183.281 290.601 183.171L289.976 166.531C289.971 166.467 289.98 166.403 290.003 166.343C290.026 166.283 290.062 166.229 290.108 166.184C290.154 166.14 290.209 166.106 290.269 166.084C290.33 166.063 290.394 166.056 290.458 166.062L297.094 166.764C297.202 166.774 297.302 166.823 297.375 166.903C297.448 166.982 297.49 167.085 297.492 167.192L297.631 174.532C297.632 174.572 297.64 174.612 297.654 174.649L300.376 181.679C300.397 181.733 300.407 181.791 300.406 181.849C300.404 181.907 300.391 181.964 300.366 182.017C300.342 182.07 300.308 182.118 300.265 182.158C300.222 182.197 300.172 182.228 300.117 182.248L298.954 182.675C298.854 182.712 298.742 182.711 298.642 182.672C298.542 182.633 298.459 182.559 298.41 182.464L295.066 175.989C295.048 175.954 295.035 175.916 295.027 175.877L294.455 173.136C294.439 173.057 294.394 172.986 294.33 172.936C294.266 172.886 294.185 172.861 294.104 172.865C294.023 172.868 293.945 172.901 293.886 172.956C293.826 173.011 293.788 173.086 293.779 173.167L292.627 183.189C292.614 183.296 292.563 183.395 292.482 183.467C292.401 183.538 292.297 183.578 292.189 183.578Z" fill="#1E1E1E"/>
<path d="M292.76 153.519C294.089 153.519 295.166 152.447 295.166 151.123C295.166 149.8 294.089 148.727 292.76 148.727C291.431 148.727 290.354 149.8 290.354 151.123C290.354 152.447 291.431 153.519 292.76 153.519Z" fill="#A0616A"/>
<path d="M294.419 168.049C292.867 168.03 291.349 167.598 290.021 166.797C289.953 166.755 289.897 166.695 289.861 166.624C289.824 166.553 289.808 166.473 289.814 166.393L290.399 158.064C290.436 157.502 290.605 156.956 290.893 156.471C291.18 155.986 291.577 155.574 292.053 155.269C292.507 154.969 293.025 154.78 293.566 154.716C294.107 154.652 294.655 154.714 295.168 154.899C295.394 154.977 295.607 155.087 295.801 155.226C296.424 155.669 296.914 156.273 297.216 156.973C297.518 157.674 297.622 158.443 297.515 159.198C297.086 162.439 297.572 166.811 297.629 167.299L297.633 167.334L297.601 167.349C296.604 167.81 295.518 168.049 294.419 168.049Z" fill="#07A0C3"/>
<path d="M297.483 169.239C297.598 169.152 297.693 169.042 297.76 168.916C297.828 168.789 297.867 168.649 297.874 168.506C297.882 168.363 297.858 168.219 297.804 168.086C297.749 167.954 297.667 167.834 297.561 167.736L298.973 164.546L297.179 164.849L296.114 167.832C295.961 168.019 295.882 168.256 295.893 168.497C295.903 168.738 296.002 168.967 296.171 169.141C296.34 169.314 296.566 169.42 296.808 169.438C297.05 169.456 297.29 169.385 297.483 169.239Z" fill="#A0616A"/>
<path d="M297.617 167.268C297.556 167.268 297.496 167.255 297.44 167.231C297.384 167.206 297.334 167.17 297.293 167.125L296.766 166.554C296.715 166.498 296.679 166.43 296.662 166.356C296.645 166.282 296.647 166.205 296.669 166.133L297.874 162.069L296.04 158.234C295.959 158.065 295.94 157.874 295.984 157.692C296.023 157.533 296.11 157.39 296.233 157.28C296.355 157.171 296.508 157.102 296.672 157.081C296.835 157.06 297.001 157.089 297.147 157.164C297.293 157.239 297.414 157.356 297.492 157.501L299.971 161.507C300.068 161.663 300.124 161.84 300.136 162.022C300.148 162.205 300.114 162.388 300.039 162.554L298.02 167.009C297.99 167.076 297.944 167.134 297.886 167.178C297.828 167.222 297.76 167.251 297.687 167.262C297.664 167.266 297.641 167.268 297.617 167.268Z" fill="#07A0C3"/>
<path d="M294.743 153.236C294.493 153.278 294.288 152.933 294.257 152.689C294.259 152.449 294.282 152.208 294.324 151.971C294.338 151.845 294.311 151.718 294.247 151.609C294.183 151.5 294.085 151.414 293.968 151.364C293.703 151.289 293.458 151.5 293.188 151.475C292.811 151.44 292.622 151 292.576 150.645C292.53 150.289 292.494 149.869 292.168 149.666C291.842 149.464 291.44 149.611 291.066 149.617C290.746 149.614 290.436 149.509 290.18 149.318C289.924 149.127 289.736 148.86 289.643 148.555C289.719 148.577 289.801 148.573 289.875 148.544C289.949 148.514 290.011 148.461 290.052 148.392C290.083 148.319 290.09 148.237 290.07 148.16C290.05 148.083 290.005 148.014 289.942 147.965L290.659 148.314C290.641 148.265 290.633 148.213 290.636 148.16C290.639 148.108 290.653 148.057 290.677 148.01C290.701 147.963 290.734 147.922 290.774 147.888C290.815 147.854 290.862 147.83 290.912 147.815C291.13 147.758 291.359 147.755 291.577 147.808C292.699 147.982 293.998 147.896 294.743 148.748C295.304 149.439 295.614 150.298 295.624 151.187C295.446 151.914 295.148 152.606 294.743 153.236Z" fill="#1E1E1E"/>
<path d="M281.984 157.321C282.11 157.25 282.249 157.207 282.392 157.195C282.536 157.184 282.68 157.204 282.815 157.254C282.95 157.304 283.073 157.383 283.174 157.485C283.275 157.587 283.352 157.71 283.4 157.845L286.901 157.82L285.911 159.339L282.738 159.13C282.505 159.196 282.255 159.174 282.037 159.069C281.819 158.963 281.647 158.782 281.554 158.559C281.461 158.336 281.454 158.087 281.533 157.858C281.612 157.63 281.773 157.439 281.984 157.321Z" fill="#A0616A"/>
<path d="M283.806 158.977C283.794 158.918 283.794 158.856 283.807 158.797C283.819 158.737 283.844 158.681 283.88 158.632L284.335 158.002C284.379 157.941 284.439 157.892 284.508 157.86C284.577 157.828 284.653 157.815 284.729 157.821L288.824 157.65L292.366 155.597C292.515 155.484 292.699 155.426 292.886 155.432C293.051 155.438 293.21 155.493 293.342 155.591C293.474 155.688 293.574 155.823 293.628 155.978C293.681 156.133 293.687 156.3 293.643 156.458C293.599 156.616 293.508 156.758 293.382 156.863L289.949 160.097C289.816 160.223 289.653 160.314 289.476 160.363C289.299 160.412 289.113 160.416 288.934 160.377L284.142 159.317C284.071 159.301 284.005 159.268 283.95 159.22C283.894 159.173 283.852 159.112 283.826 159.044C283.818 159.023 283.811 159 283.806 158.977Z" fill="#07A0C3"/>
<path d="M223.607 182.83C223.657 182.69 223.675 182.542 223.661 182.395C223.647 182.248 223.6 182.106 223.525 181.979C223.449 181.852 223.347 181.742 223.225 181.659C223.102 181.575 222.963 181.519 222.817 181.495L222.209 177.957L220.841 179.232L221.628 182.397C221.604 182.644 221.671 182.892 221.818 183.093C221.965 183.294 222.18 183.435 222.424 183.488C222.668 183.541 222.923 183.504 223.141 183.383C223.359 183.261 223.525 183.064 223.607 182.83Z" fill="#FFB8B8"/>
<path d="M222.699 181.137L221.356 181.488C221.292 181.504 221.225 181.495 221.167 181.462C221.11 181.43 221.068 181.376 221.05 181.313L218.637 172.802L217.909 170.63C217.838 170.421 217.822 170.198 217.862 169.981C217.902 169.764 217.996 169.56 218.136 169.389C218.276 169.218 218.457 169.085 218.663 169.003C218.868 168.92 219.091 168.891 219.311 168.917C219.566 168.948 219.806 169.052 220.002 169.217C220.198 169.381 220.341 169.6 220.413 169.845L222.341 176.333L222.885 180.864C222.891 180.914 222.881 180.965 222.858 181.01C222.834 181.055 222.797 181.092 222.752 181.116C222.735 181.125 222.717 181.132 222.699 181.137Z" fill="#07A0C3"/>
<path d="M217.792 167.482C219.16 167.482 220.269 166.377 220.269 165.014C220.269 163.652 219.16 162.547 217.792 162.547C216.424 162.547 215.314 163.652 215.314 165.014C215.314 166.377 216.424 167.482 217.792 167.482Z" fill="#FFB8B8"/>
<path d="M210.498 198.766L209.312 198.415L210.109 193.695L211.859 194.213L210.498 198.766Z" fill="#FFB8B8"/>
<path d="M210.458 200L206.636 198.868L206.65 198.819C206.708 198.625 206.804 198.444 206.933 198.286C207.061 198.128 207.22 197.998 207.399 197.901C207.578 197.804 207.775 197.744 207.977 197.723C208.18 197.702 208.385 197.721 208.58 197.779L210.915 198.47L210.458 200Z" fill="#1E1E1E"/>
<path d="M223.483 198.706L222.246 198.705L221.658 193.955L222.878 193.956L223.483 198.706Z" fill="#FFB8B8"/>
<path d="M223.799 199.9L219.812 199.899V199.849C219.812 199.646 219.852 199.445 219.93 199.258C220.008 199.07 220.122 198.9 220.266 198.756C220.41 198.613 220.581 198.499 220.77 198.421C220.958 198.344 221.16 198.304 221.364 198.304L223.799 198.304L223.799 199.9Z" fill="#1E1E1E"/>
<path d="M210.954 197.37H209.712C209.645 197.37 209.58 197.355 209.519 197.327C209.459 197.299 209.406 197.258 209.363 197.207C209.321 197.156 209.29 197.096 209.273 197.032C209.256 196.968 209.253 196.901 209.265 196.836C208.474 196.485 212.737 176.124 213.744 176.519L213.777 176.471L218.85 176.883C221.122 181.412 222.56 188.905 223.906 196.727C223.922 196.792 223.924 196.86 223.911 196.926C223.898 196.991 223.871 197.053 223.831 197.107C223.791 197.161 223.739 197.205 223.68 197.237C223.621 197.269 223.555 197.287 223.488 197.29L222.093 197.357C221.998 197.362 221.905 197.337 221.825 197.287C221.746 197.236 221.684 197.161 221.649 197.074L216.304 183.767C216.294 183.738 216.274 183.713 216.248 183.696C216.222 183.679 216.191 183.671 216.16 183.672C216.129 183.673 216.099 183.683 216.074 183.701C216.049 183.719 216.031 183.744 216.021 183.773L211.382 197.066C211.351 197.155 211.293 197.232 211.217 197.286C211.14 197.34 211.048 197.37 210.954 197.37Z" fill="#1E1E1E"/>
<path d="M218.956 177.282L218.917 177.279L213.517 176.873L214.464 170.873C214.568 170.203 214.887 169.585 215.372 169.11C215.858 168.636 216.485 168.33 217.159 168.24C217.201 168.234 217.243 168.228 217.285 168.223C217.815 168.153 218.353 168.221 218.849 168.418C219.346 168.616 219.782 168.938 220.118 169.352C220.461 169.769 220.691 170.266 220.786 170.797C220.88 171.328 220.836 171.874 220.658 172.382L218.956 177.282Z" fill="#07A0C3"/>
<path d="M222.603 167.837C220.899 168.613 218.588 168.474 215.945 167.837C216.311 166.839 216.596 165.876 216.273 165.169C216.142 164.902 216.068 164.611 216.056 164.314C216.044 164.017 216.094 163.721 216.202 163.444C216.455 162.841 216.882 162.326 217.429 161.963C217.975 161.601 218.617 161.408 219.274 161.408C220.157 161.408 221.003 161.757 221.628 162.379C222.252 163 222.603 163.843 222.603 164.723L222.603 167.837Z" fill="#1E1E1E"/>
<path d="M217.138 161.633H218.972V164.227H214.533C214.533 163.887 214.601 163.549 214.731 163.235C214.862 162.92 215.054 162.634 215.296 162.393C215.538 162.152 215.825 161.961 216.141 161.831C216.457 161.7 216.796 161.633 217.138 161.633Z" fill="#1E1E1E"/>
<path d="M213.401 183.388C213.51 183.288 213.596 183.165 213.653 183.029C213.71 182.892 213.735 182.745 213.729 182.598C213.722 182.45 213.683 182.306 213.614 182.175C213.546 182.044 213.449 181.93 213.331 181.84L214.459 178.431L212.651 178.919L211.857 182.082C211.719 182.289 211.662 182.539 211.697 182.786C211.731 183.032 211.856 183.257 212.046 183.418C212.237 183.579 212.48 183.664 212.729 183.659C212.979 183.653 213.218 183.557 213.401 183.388Z" fill="#FFB8B8"/>
<path d="M213.394 181.468L212.043 181.152C211.979 181.136 211.923 181.097 211.888 181.041C211.853 180.986 211.84 180.919 211.854 180.854L213.728 172.21L214.106 169.951C214.143 169.734 214.234 169.529 214.371 169.356C214.508 169.183 214.687 169.047 214.892 168.961C215.096 168.876 215.318 168.843 215.539 168.866C215.759 168.889 215.97 168.967 216.152 169.093C216.362 169.239 216.525 169.442 216.621 169.679C216.716 169.916 216.74 170.176 216.689 170.426L215.338 177.058L213.687 181.314C213.668 181.362 213.636 181.402 213.594 181.431C213.552 181.459 213.502 181.475 213.451 181.475C213.432 181.475 213.413 181.473 213.394 181.468Z" fill="#07A0C3"/>
<path d="M255.145 162.68C255.093 162.693 255.042 162.711 254.992 162.732L250.934 160.125L250.99 158.957L249.232 158.643L248.931 160.7C248.907 160.866 248.937 161.035 249.018 161.183C249.099 161.33 249.225 161.448 249.378 161.517L254.377 163.79C254.402 163.995 254.489 164.188 254.627 164.343C254.765 164.498 254.946 164.607 255.148 164.656C255.349 164.706 255.561 164.693 255.755 164.62C255.949 164.546 256.116 164.416 256.234 164.246C256.352 164.075 256.415 163.873 256.415 163.667C256.414 163.46 256.351 163.258 256.233 163.088C256.114 162.918 255.947 162.788 255.753 162.715C255.559 162.642 255.347 162.63 255.145 162.68Z" fill="#FFB8B8"/>
<path d="M250.768 160.053L248.591 159.652C248.529 159.641 248.47 159.617 248.419 159.58C248.367 159.544 248.324 159.498 248.292 159.444C248.261 159.389 248.241 159.329 248.235 159.267C248.228 159.204 248.236 159.141 248.256 159.082L248.97 157.003C249.03 156.687 249.213 156.407 249.479 156.226C249.746 156.044 250.074 155.976 250.391 156.035C250.708 156.094 250.989 156.276 251.171 156.542C251.354 156.807 251.422 157.134 251.363 157.45L251.285 159.639C251.283 159.702 251.267 159.763 251.239 159.819C251.211 159.875 251.171 159.925 251.122 159.964C251.073 160.003 251.016 160.031 250.955 160.047C250.893 160.062 250.83 160.064 250.768 160.053Z" fill="#1E1E1E"/>
<path d="M258.337 154.413C258.325 154.465 258.318 154.518 258.314 154.572L254.13 156.975L253.113 156.392L252.029 157.806L253.729 159.012C253.866 159.11 254.031 159.16 254.2 159.156C254.369 159.152 254.531 159.093 254.664 158.989L258.978 155.6C259.173 155.672 259.385 155.683 259.586 155.632C259.787 155.58 259.968 155.47 260.104 155.314C260.24 155.158 260.326 154.964 260.349 154.759C260.372 154.553 260.332 154.345 260.233 154.163C260.135 153.981 259.984 153.833 259.799 153.739C259.614 153.645 259.405 153.609 259.199 153.636C258.993 153.663 258.8 153.752 258.647 153.89C258.493 154.029 258.385 154.211 258.337 154.413Z" fill="#FFB8B8"/>
<path d="M253.99 157.089L252.638 158.835C252.599 158.884 252.551 158.925 252.495 158.954C252.439 158.983 252.378 159 252.315 159.004C252.252 159.007 252.189 158.997 252.13 158.974C252.072 158.951 252.019 158.916 251.975 158.871L250.444 157.288C250.189 157.091 250.024 156.801 249.983 156.482C249.943 156.163 250.031 155.841 250.229 155.587C250.427 155.333 250.718 155.168 251.039 155.128C251.359 155.087 251.682 155.176 251.937 155.373L253.857 156.442C253.912 156.472 253.96 156.514 253.997 156.565C254.034 156.616 254.06 156.674 254.072 156.735C254.085 156.797 254.084 156.86 254.07 156.921C254.056 156.982 254.029 157.04 253.99 157.089Z" fill="#CCCCCC"/>
<path d="M248.453 152.922C249.774 152.922 250.845 151.856 250.845 150.54C250.845 149.224 249.774 148.158 248.453 148.158C247.132 148.158 246.061 149.224 246.061 150.54C246.061 151.856 247.132 152.922 248.453 152.922Z" fill="#FFB8B8"/>
<path d="M250.711 184.649H251.905L252.473 180.062H250.711L250.711 184.649Z" fill="#FFB8B8"/>
<path d="M250.406 184.261L252.758 184.261C252.955 184.261 253.149 184.299 253.331 184.374C253.513 184.449 253.678 184.559 253.817 184.698C253.957 184.836 254.067 185.001 254.142 185.182C254.218 185.363 254.256 185.557 254.256 185.753V185.801L250.406 185.802L250.406 184.261Z" fill="#1E1E1E"/>
<path d="M246.62 184.649H247.814L248.382 180.062H246.62V184.649Z" fill="#FFB8B8"/>
<path d="M246.315 184.261L248.667 184.261C248.864 184.261 249.059 184.299 249.24 184.374C249.422 184.449 249.587 184.559 249.727 184.698C249.866 184.836 249.976 185.001 250.051 185.182C250.127 185.363 250.166 185.557 250.166 185.753V185.801L246.315 185.802L246.315 184.261Z" fill="#1E1E1E"/>
<path d="M250.353 182.908L249.135 173.524C249.135 173.511 249.129 173.5 249.12 173.491C249.111 173.483 249.099 173.478 249.086 173.479C249.08 173.478 249.073 173.479 249.068 173.482C249.062 173.484 249.056 173.487 249.052 173.492C249.047 173.496 249.044 173.501 249.042 173.507C249.039 173.513 249.038 173.519 249.038 173.525L248.688 182.773C248.684 182.886 248.636 182.993 248.554 183.072C248.473 183.15 248.364 183.194 248.25 183.193H246.804C246.689 183.194 246.579 183.15 246.497 183.07C246.415 182.99 246.368 182.882 246.366 182.768L245.99 167.359L252.463 167.423L252.624 182.881C252.623 182.943 252.608 183.003 252.582 183.059C252.555 183.114 252.517 183.164 252.471 183.203C252.425 183.243 252.371 183.272 252.313 183.29C252.255 183.307 252.194 183.312 252.134 183.304L250.731 183.308C250.632 183.295 250.54 183.248 250.471 183.175C250.402 183.102 250.361 183.008 250.353 182.908Z" fill="#1E1E1E"/>
<path d="M245.894 167.78C245.822 167.753 245.758 167.707 245.709 167.646C245.661 167.586 245.629 167.514 245.617 167.438L245.553 158.97C245.267 157.084 244.928 155.237 246.584 154.281L246.73 153.846C246.746 153.799 246.776 153.757 246.816 153.728C246.856 153.698 246.904 153.681 246.954 153.68L250.094 153.591C250.143 153.589 250.191 153.602 250.232 153.628C250.273 153.654 250.306 153.692 250.325 153.737L250.558 154.28L250.641 154.327C251.43 154.775 252.069 155.445 252.478 156.252C252.887 157.06 253.047 157.969 252.94 158.867L252.76 160.377L252.632 167.432C252.631 167.509 252.609 167.585 252.568 167.651C252.528 167.717 252.471 167.772 252.402 167.809C251.514 168.269 250.524 168.498 249.523 168.476C248.282 168.454 247.055 168.219 245.894 167.78Z" fill="#CCCCCC"/>
<path d="M248.375 153.01C248.015 153.018 247.657 152.95 247.326 152.81C246.994 152.671 246.696 152.463 246.451 152.2C246.205 151.937 246.019 151.626 245.903 151.286C245.787 150.947 245.745 150.587 245.779 150.23C245.813 149.873 245.922 149.527 246.1 149.215C246.278 148.903 246.52 148.632 246.81 148.42C247.101 148.208 247.433 148.059 247.785 147.984C248.137 147.909 248.501 147.909 248.853 147.984C249.371 147.644 249.984 147.477 250.604 147.506C250.912 147.525 251.209 147.627 251.464 147.801C251.719 147.974 251.922 148.213 252.052 148.492C252.168 148.776 252.172 149.094 252.063 149.381C251.954 149.668 251.741 149.904 251.465 150.041C251.084 150.151 250.681 150.157 250.297 150.058C249.912 149.96 249.504 149.995 249.143 150.16C248.803 150.36 248.651 150.897 248.955 151.148C249.116 151.286 249.231 151.469 249.284 151.674C249.338 151.879 249.328 152.095 249.255 152.294C249.184 152.48 249.065 152.643 248.911 152.769C248.756 152.894 248.572 152.978 248.375 153.01Z" fill="#1E1E1E"/>
<path d="M109.659 198.661H110.822L111.376 194.191H109.658L109.659 198.661Z" fill="#FFB8B8"/>
<path d="M109.146 200L109.146 198.067L111.654 198.067C112.098 198.067 112.525 198.243 112.839 198.556C113.153 198.869 113.33 199.294 113.331 199.737V200L109.146 200Z" fill="#1E1E1E"/>
<path d="M103.386 198.661H104.549L105.103 194.191H103.386L103.386 198.661Z" fill="#FFB8B8"/>
<path d="M102.873 200L102.873 198.067L105.381 198.067C105.826 198.067 106.252 198.243 106.567 198.556C106.881 198.869 107.058 199.294 107.058 199.737V200L102.873 200Z" fill="#1E1E1E"/>
<path d="M106.794 166.885C108.175 166.885 109.294 165.77 109.294 164.395C109.294 163.02 108.175 161.905 106.794 161.905C105.413 161.905 104.294 163.02 104.294 164.395C104.294 165.77 105.413 166.885 106.794 166.885Z" fill="#FFB8B8"/>
<path d="M115.342 180.632C115.325 180.494 115.277 180.362 115.203 180.244C115.128 180.127 115.029 180.027 114.912 179.951C114.794 179.876 114.662 179.828 114.524 179.809C114.385 179.79 114.245 179.802 114.111 179.843L112.714 178.175L111.489 178.774L113.496 181.102C113.58 181.32 113.742 181.5 113.951 181.607C114.16 181.714 114.401 181.741 114.628 181.684C114.856 181.626 115.054 181.487 115.186 181.293C115.317 181.099 115.373 180.864 115.342 180.632Z" fill="#FFB8B8"/>
<path d="M103.318 182.319C103.378 182.193 103.409 182.056 103.41 181.917C103.41 181.778 103.38 181.641 103.322 181.515C103.263 181.388 103.178 181.277 103.071 181.187C102.964 181.097 102.839 181.032 102.704 180.996L102.424 178.842L101.067 178.692L101.507 181.729C101.46 181.958 101.5 182.196 101.619 182.398C101.737 182.6 101.926 182.752 102.149 182.825C102.372 182.898 102.615 182.886 102.83 182.793C103.046 182.7 103.22 182.531 103.318 182.319Z" fill="#FFB8B8"/>
<path d="M104.705 169.098C104.572 168.928 104.396 168.795 104.196 168.715C103.995 168.634 103.777 168.607 103.562 168.637C103.348 168.667 103.146 168.753 102.975 168.886C102.805 169.019 102.673 169.195 102.593 169.395L100.543 174.487C100.334 175.008 100.267 175.574 100.35 176.129L101.017 180.605C101.026 180.663 101.047 180.718 101.079 180.767C101.111 180.816 101.153 180.857 101.203 180.888C101.252 180.92 101.308 180.94 101.366 180.947C101.424 180.955 101.484 180.95 101.54 180.933L102.419 180.664C102.51 180.636 102.588 180.578 102.64 180.498C102.693 180.419 102.715 180.324 102.704 180.229C102.393 177.594 102.804 174.924 103.891 172.502L104.857 170.35C104.948 170.147 104.982 169.923 104.955 169.703C104.928 169.482 104.842 169.273 104.705 169.098Z" fill="#CCCCCC"/>
<path d="M106.186 166.885C105.81 166.893 105.436 166.821 105.089 166.675C104.743 166.529 104.431 166.312 104.175 166.037C103.918 165.763 103.723 165.438 103.602 165.083C103.482 164.728 103.437 164.351 103.473 163.978C103.508 163.605 103.623 163.244 103.808 162.918C103.994 162.592 104.247 162.309 104.551 162.087C104.854 161.865 105.201 161.71 105.569 161.632C105.937 161.553 106.318 161.553 106.686 161.631C107.227 161.276 107.868 161.102 108.515 161.132C108.837 161.152 109.148 161.258 109.414 161.44C109.681 161.621 109.893 161.871 110.029 162.162C110.15 162.459 110.154 162.791 110.041 163.091C109.927 163.391 109.704 163.638 109.416 163.782C109.018 163.896 108.596 163.902 108.195 163.799C107.792 163.696 107.366 163.734 106.988 163.905C106.633 164.115 106.474 164.676 106.792 164.938C106.96 165.082 107.08 165.274 107.136 165.488C107.192 165.702 107.182 165.928 107.106 166.136C107.031 166.33 106.907 166.501 106.746 166.632C106.584 166.763 106.391 166.85 106.186 166.885Z" fill="#1E1E1E"/>
<path d="M103.083 180.533L102.64 197.294C102.638 197.349 102.648 197.405 102.67 197.457C102.691 197.509 102.722 197.555 102.762 197.594C102.803 197.633 102.85 197.664 102.903 197.684C102.955 197.703 103.011 197.712 103.068 197.709L104.528 197.635C104.622 197.63 104.71 197.594 104.78 197.532C104.849 197.469 104.895 197.385 104.91 197.294L106.647 186.408C106.655 186.361 106.678 186.319 106.714 186.288C106.749 186.256 106.795 186.239 106.842 186.237C106.89 186.236 106.936 186.251 106.973 186.28C107.011 186.308 107.037 186.349 107.047 186.395L109.399 196.877C109.412 196.933 109.436 196.985 109.471 197.031C109.505 197.077 109.549 197.115 109.6 197.143C109.65 197.171 109.706 197.188 109.763 197.192C109.821 197.197 109.879 197.189 109.933 197.17L111.383 197.082C111.467 197.052 111.539 196.996 111.587 196.922C111.636 196.848 111.659 196.76 111.653 196.671L110.387 180.375L103.083 180.533Z" fill="#1E1E1E"/>
<path d="M102.372 172.573C102.31 171.969 102.37 171.358 102.548 170.777C102.725 170.196 103.018 169.656 103.408 169.189C103.797 168.722 104.277 168.336 104.818 168.056C105.359 167.775 105.951 167.605 106.559 167.555C107.66 167.477 109.369 167.449 109.933 168.887C111.63 173.217 108.659 173.111 109.682 176.863C110.706 180.614 111.611 180.829 110.206 181.1C108.801 181.371 102.483 182.97 102.743 180.33C102.902 178.707 102.616 175.106 102.372 172.573Z" fill="#CCCCCC"/>
<path d="M109.632 168.446C109.43 168.369 109.211 168.345 108.998 168.379C108.784 168.412 108.583 168.501 108.415 168.636C108.246 168.772 108.117 168.949 108.039 169.15C107.962 169.352 107.939 169.569 107.973 169.782L108.771 174.748C108.908 175.598 109.268 176.395 109.816 177.06L112.408 180.205C112.445 180.25 112.492 180.287 112.544 180.312C112.597 180.338 112.655 180.352 112.713 180.353C112.772 180.355 112.83 180.343 112.884 180.32C112.938 180.297 112.986 180.263 113.025 180.219L113.641 179.538C113.704 179.468 113.741 179.377 113.745 179.283C113.749 179.188 113.719 179.095 113.661 179.02L113.479 178.785C111.972 176.837 111.021 174.519 110.726 172.077L110.409 169.443C110.383 169.222 110.296 169.013 110.159 168.837C110.022 168.662 109.84 168.527 109.632 168.446Z" fill="#CCCCCC"/>
<path d="M115.462 181.786C115.591 181.722 115.703 181.631 115.793 181.52C115.882 181.408 115.946 181.278 115.979 181.139C116.012 181.001 116.015 180.856 115.986 180.716C115.957 180.577 115.898 180.445 115.813 180.33L116.546 173.192H114.961L114.379 180.162C114.195 180.318 114.075 180.535 114.041 180.773C114.007 181.011 114.062 181.253 114.196 181.453C114.33 181.653 114.532 181.798 114.766 181.859C114.999 181.92 115.247 181.894 115.462 181.786Z" fill="#A0616A"/>
<path d="M116.916 169.252C118.154 169.252 119.158 168.253 119.158 167.02C119.158 165.787 118.154 164.788 116.916 164.788C115.678 164.788 114.675 165.787 114.675 167.02C114.675 168.253 115.678 169.252 116.916 169.252Z" fill="#A0616A"/>
<path d="M117.338 177.349C117.249 177.349 117.161 177.32 117.09 177.265C117.019 177.211 116.967 177.135 116.943 177.049C116.567 175.926 116.103 174.834 115.555 173.784C115.387 173.441 115.294 173.066 115.283 172.685C115.271 172.304 115.34 171.925 115.485 171.572C115.631 171.219 115.85 170.901 116.128 170.639C116.405 170.377 116.736 170.175 117.097 170.049C117.439 169.929 117.802 169.878 118.165 169.9C118.527 169.922 118.882 170.016 119.207 170.176C119.532 170.337 119.822 170.561 120.059 170.835C120.295 171.109 120.475 171.427 120.586 171.771C121.006 173.22 121.178 174.728 121.094 176.233C121.09 176.323 121.055 176.408 120.997 176.477C120.939 176.545 120.86 176.593 120.772 176.612L117.426 177.339C117.398 177.346 117.368 177.349 117.338 177.349Z" fill="#07A0C3"/>
<path d="M120.579 198.546H121.697L122.229 194.248H120.578L120.579 198.546Z" fill="#A0616A"/>
<path d="M124.119 199.844H120.074L120.074 197.965H122.497C122.71 197.965 122.921 198.007 123.117 198.088C123.314 198.169 123.493 198.288 123.644 198.438C123.794 198.588 123.914 198.766 123.995 198.962C124.077 199.158 124.119 199.369 124.119 199.581L124.119 199.844Z" fill="#1E1E1E"/>
<path d="M109.39 197.102L110.37 197.639L112.916 194.128L111.469 193.336L109.39 197.102Z" fill="#A0616A"/>
<path d="M111.865 199.938L108.321 197.997L109.23 196.351L111.352 197.513C111.73 197.719 112.009 198.067 112.129 198.478C112.249 198.89 112.2 199.332 111.993 199.707L111.865 199.938Z" fill="#1E1E1E"/>
<path d="M120.526 196.161C120.426 196.161 120.33 196.124 120.255 196.059C120.18 195.993 120.132 195.903 120.119 195.804L118.72 185.066C118.714 185.019 118.693 184.974 118.66 184.94C118.627 184.905 118.584 184.881 118.536 184.872C118.489 184.863 118.44 184.869 118.397 184.89C118.353 184.91 118.317 184.944 118.294 184.986L112.462 195.522C112.414 195.608 112.337 195.674 112.244 195.708C112.151 195.742 112.049 195.742 111.956 195.707L110.685 195.225C110.634 195.205 110.588 195.176 110.548 195.138C110.508 195.101 110.477 195.056 110.455 195.006C110.433 194.956 110.422 194.902 110.421 194.847C110.42 194.793 110.431 194.739 110.451 194.688L114.491 184.806C114.501 184.781 114.508 184.754 114.512 184.727C115.059 180.51 116.451 178.365 116.864 177.808C116.895 177.768 116.915 177.72 116.922 177.67C116.93 177.62 116.926 177.568 116.91 177.52L116.853 177.35C116.83 177.283 116.825 177.211 116.839 177.141C116.853 177.071 116.885 177.006 116.932 176.952C118.422 175.262 121.02 176.184 121.046 176.194L121.059 176.199L121.067 176.21C123.98 180.188 122.903 193.109 122.658 195.659C122.649 195.755 122.606 195.845 122.537 195.912C122.468 195.979 122.377 196.02 122.281 196.027L120.558 196.159C120.547 196.16 120.537 196.161 120.526 196.161Z" fill="#1E1E1E"/>
<path d="M125.631 169.613C125.62 169.662 125.612 169.712 125.609 169.762L121.689 172.015L120.736 171.468L119.72 172.793L121.312 173.923C121.441 174.014 121.596 174.062 121.754 174.058C121.912 174.054 122.064 173.999 122.188 173.902L126.231 170.726C126.413 170.793 126.612 170.803 126.801 170.755C126.989 170.707 127.158 170.603 127.286 170.457C127.414 170.311 127.494 170.13 127.516 169.937C127.537 169.745 127.5 169.55 127.407 169.38C127.315 169.209 127.173 169.07 127 168.982C126.827 168.894 126.631 168.86 126.438 168.885C126.245 168.911 126.065 168.994 125.92 169.124C125.776 169.254 125.675 169.425 125.631 169.613Z" fill="#A0616A"/>
<path d="M121.558 172.121L120.29 173.757C120.254 173.803 120.209 173.841 120.157 173.869C120.104 173.896 120.047 173.912 119.988 173.915C119.929 173.918 119.87 173.909 119.815 173.887C119.76 173.866 119.71 173.833 119.67 173.791L118.235 172.307C117.997 172.122 117.843 171.851 117.806 171.552C117.768 171.254 117.851 170.953 118.036 170.716C118.222 170.478 118.494 170.324 118.793 170.286C119.092 170.247 119.395 170.329 119.634 170.513L121.433 171.515C121.484 171.543 121.529 171.583 121.564 171.63C121.599 171.678 121.623 171.732 121.635 171.789C121.647 171.847 121.646 171.907 121.633 171.964C121.619 172.021 121.594 172.075 121.558 172.121Z" fill="#07A0C3"/>
<path d="M116.646 174.963L114.605 174.596C114.547 174.585 114.492 174.562 114.444 174.529C114.395 174.495 114.355 174.452 114.325 174.401C114.295 174.35 114.276 174.294 114.27 174.235C114.264 174.177 114.27 174.118 114.289 174.062L114.951 172.111C115.006 171.816 115.177 171.554 115.426 171.383C115.675 171.213 115.981 171.148 116.278 171.202C116.575 171.256 116.838 171.426 117.01 171.673C117.182 171.92 117.248 172.225 117.194 172.521L117.13 174.573C117.128 174.632 117.113 174.689 117.087 174.742C117.061 174.795 117.024 174.841 116.978 174.878C116.932 174.915 116.879 174.942 116.821 174.956C116.764 174.971 116.705 174.973 116.646 174.963Z" fill="#07A0C3"/>
<path d="M117.271 166.507C117.847 166.899 118.604 167.303 119.192 166.885C119.376 166.745 119.51 166.55 119.573 166.329C119.636 166.107 119.626 165.871 119.543 165.656C119.262 164.853 118.487 164.5 117.747 164.229C116.807 163.806 115.76 163.674 114.744 163.849C113.75 164.101 112.872 165.059 113.052 166.065C113.196 166.873 113.961 167.546 113.853 168.359C113.743 169.178 112.818 169.61 112.002 169.756C111.185 169.902 110.271 169.949 109.685 170.533C108.936 171.279 109.123 172.611 109.827 173.397C110.597 174.131 111.573 174.615 112.625 174.783C113.99 175.104 115.466 175.273 116.762 174.74C118.058 174.207 119.067 172.772 118.692 171.426C118.494 170.869 118.191 170.354 117.798 169.91C117.406 169.466 117.111 168.944 116.934 168.38C116.87 168.141 116.863 167.891 116.913 167.65C116.963 167.408 117.069 167.182 117.222 166.988C117.28 166.925 117.317 166.845 117.326 166.761C117.336 166.676 117.319 166.59 117.277 166.516L117.271 166.507Z" fill="#1E1E1E"/>
</g>
<defs>
<clipPath id="clip0_201_1324">
<rect width="376" height="200" fill="white"/>
</clipPath>
</defs>
</svg>
